<svg fill="none" height="64" viewBox="0 0 56 64" width="56" xmlns="http://www.w3.org/2000/svg" xmlns:xlink="http://www.w3.org/1999/xlink"><linearGradient id="a" gradientUnits="userSpaceOnUse" x1="21.1681" x2="34.5653" y1="22.2432" y2="37.3876"><stop offset="0" stop-color="#45b0ea"/><stop offset=".5156" stop-color="#c6ec43"/><stop offset="1" stop-color="#fdf239"/></linearGradient><path d="m6 1.5h44c2.4853 0 4.5 2.01472 4.5 4.5v36.7243c0 1.5312-.7786 2.9573-2.0666 3.7853l-22 14.1429c-1.4823.9529-3.3845.9529-4.8668 0l-22.00001-14.1429c-1.288-.828-2.06659-2.2541-2.06659-3.7853v-36.7243c0-2.48528 2.01472-4.5 4.5-4.5z" fill="#f9fff0" stroke="#b8ec51" stroke-width="3"/><g fill="#000" fill-opacity=".8"><path d="m21.9644 48.9999c-2.109 0-1.8004-1.9066-.6756-2.5346.6756-.3394.6819-.495 1.335-.8797.1802-.1131 1.0071-.4102 1.2098-.3876 1.3071-.3394 2.0719-.5657 3.1529-.4978.1351 0 .2026 0 .1801-.2263-.045-.6789.1126-1.3805-.0225-2.0368-.1576-.6562.1802-1.2673 0-1.9462-.1351-.4752.0676-1.041.1576-1.5615.1314-.7919.4188-1.1311 1.4188-.6789.2027 1.1542 0 2.3083.0451 3.4625.0225.7241.1351 1.4936-.0226 2.1951-.1351.611.2478.6789.5631.6563.6305-.0453 1.2386.1584 1.8016.2942 2.5902.3394 2.8376 1.1994 4.0762 2.1272.4729.3621.4279.8826.3603 1.3805-.0225.1357-.1351.2715-.3603.2942-1.5764.1131-3.1529.1357-4.7293.0452-.8107-.0452-1.644.1132-2.4547.0453-1.3062-.1132-1.553.1131-2.8592 0-.2027-.0226-1.2621.2037-1.735.2263s.6678.0226-1.4413.0226z"/><path d="m38.0981 24.1455c-.1808.2997-.4994 1.1084 0 1.3485.9586-.2354 1.818.0214 2.7947 0 .5065 0 1.8068-.4507 1.8068 1.2229 0 1.6737-.138 2.6038-.5681 4.0391-.93 1.5322-1.2387 1.5322-2.0472 1.7975-.5727.1879-1.1713.3682-1.7245.3682-1.4681-.252-.9218 1.4769.0474 1.4769.9691 0 1.0592 0 1.6771-.2534.6179-.2533 1.0362-.2652 1.8663-.7958.7485-.4785 1.3079-1.6366 1.712-3.0719.4715-1.6745.4915-5.1777-.2139-5.9482-.7054-.7706-1.6515-.5107-2.5559-.5107-.832-.0214-2.035-.1012-2.7947.3269z"/><path d="m18.19 24.1455c.1809.2996.4994 1.1084 0 1.3485-.9586-.2355-1.818.0214-2.7947 0-.5064 0-1.8488-.1034-1.8488 1.5702 0 1.6737.1801 2.2564.6102 3.6917.9299 1.5322 1.2386 1.5322 2.0471 1.7975.5727.1879 1.1714.3682 1.7245.3682 1.4682-.2519 1.8727 1.477.9035 1.477-.9691 0-2.0101 0-2.628-.2534-.6178-.2534-1.0361-.2653-1.8662-.7959-.7486-.4784-1.6454-2.0677-2.0495-3.5031-.4715-1.6745-.368-4.2876.3374-5.0581.7054-.7706 1.8655-.9695 2.7698-.9695.832-.0214 2.0351-.1013 2.7947.3269z"/></g><path d="m28.812 39.65c-1.0088-.445-2.2362.3142-3.1979 0-2.6124 0-4.5415-1.5733-5.6901-3.2069-.8346-1.1688-1.143-2.5571-1.5165-3.9302-.3153-1.2142-.3828-1.7442-.3828-3.8191-.1352-.3753-.1802-.7947-.1577-1.1921.0676-.7947-.1575-1.5048-.0449-2.2995.1126-.3311-.079-.6014-.0001-1.056.2027-1.17.4053-2.318.5855-3.488.045-.2428.1351-.3532.3603-.4194.4955-.1766.9909-.3091 1.5089-.3312 1.5764-.0883 3.1754-.1766 4.7518-.1766 3.1078.0442 6.2157-.2649 9.301.1766.9008.1325 1.7791.1325 2.6799.1987.3378.0221.518.1325.6531.4194.5855 1.148.6531 2.3401.4279 3.5763-.1126.3312-.1802 1.17 0 1.5233-.1126.5298 0 .8908 0 1.4427.0225 1.9647.2702 3.5243-.0225 5.4449-.2589 1.2686-.829 2.5503-1.5329 3.9302-1.1485 1.6777-1.7618 2.3787-6.0565 3.0523-.563.0883-1.1261.0883-1.6665.1546zm5.2923-11.9938c.1126-.6622-.2027-1.1921-.5405-1.6556-.7432-1.0376-1.6891-1.744-3.1079-1.6557-1.0584.0662-1.9367.4415-2.6348 1.2362-.1352.1766-.2478.2428-.4279.0442-.473-.5519-1.1486-.7948-1.7791-1.1038-.8333-.3974-1.9818-.1766-2.6124.4856-.9008.9493-1.1035 2.0752-1.1035 3.3776.0225 1.6337.9458 2.7374 1.8917 3.8854.6531.8168 1.5539 1.3466 2.4547 1.8764.6756.4195 1.8017.3532 2.4322-.0883 1.2612-.8609 2.5674-1.6777 3.6709-2.7595 1.0134-1.0375 1.5764-2.2517 1.7566-3.6425z" fill="url(#a)"/><path d="m34.1043 27.6558c-.1801 1.3908-.7206 2.605-1.7565 3.6205-1.1035 1.0817-2.4097 1.8985-3.6709 2.7595-.6305.4415-1.7566.5077-2.4322.0883-.8783-.5519-1.7791-1.0818-2.4547-1.8765-.9233-1.1479-1.8692-2.2517-1.8917-3.8853-.0225-1.2804.2027-2.4063 1.1035-3.3776.608-.6623 1.7791-.8831 2.6124-.4857.6305.3091 1.3061.5519 1.7791 1.1038.1801.2207.2927.1324.4279-.0442.6756-.7947 1.5539-1.17 2.6348-1.2362 1.4188-.0883 2.3647.6181 3.1079 1.6557.3378.5077.653 1.0375.5404 1.6777zm-1.3962-.5739c-.0451-.8389-.6756-1.5453-1.4638-1.5233-1.1936.0221-2.1395.5519-2.7701 1.5674-.1351.1987-.2927.2649-.5179.2208-.4279-.1104-.8333-.287-1.0585-.6402-.1801-.287-.4279-.5298-.6981-.7064-.9909-.7065-1.9818-.5961-2.4547.4856-.2478.574-.4955 1.17-.4504 1.8985.0675.9052.2702 1.744.7656 2.4505.7883 1.1037 1.8467 1.9426 3.0853 2.5387.0901.0441.1577.1104.2928 0 .6981-.4857 1.4413-.9051 2.0719-1.4791.7882-.7285 1.5989-1.457 2.2745-2.318.6081-.7726.9684-1.5453.9234-2.4945z" fill="#000" fill-opacity=".8"/><path d="m0 6c0-3.31371 2.68629-6 6-6h44c3.3137 0 6 2.68629 6 6v8h-56z" fill="#b8ec51"/><path d="m14.7304 11c-.5103 0-.7627-.2847-.7627-.6929 0-.3061.1181-.51022.4458-.81101l2.3095-2.20752c.9561-.91845 1.2032-1.29443 1.2032-1.85302 0-.63916-.4942-1.09571-1.187-1.09571-.6231 0-1.0528.31153-1.3321.93457-.1826.32227-.3706.47266-.7197.47266-.4351 0-.6929-.25781-.6929-.66064 0-.12354.0215-.23633.0591-.34913.2632-.85937 1.2354-1.65966 2.7017-1.65966 1.6435 0 2.75.92382 2.75 2.25586 0 .94531-.4619 1.53613-1.7295 2.73388l-1.6758 1.61133v.03223h2.9219c.4189 0 .6714.25244.6714.64456 0 .3813-.2525.6445-.6714.6445zm9.516.1719c-1.9658 0-3.1636-1.55227-3.1636-4.06057 0-2.50293 1.2085-4.03906 3.1636-4.03906s3.1582 1.53076 3.1582 4.03369-1.1924 4.06594-3.1582 4.06594zm0-1.29983c.956 0 1.5093-.98291 1.5093-2.76074 0-1.76709-.5586-2.73926-1.5093-2.73926-.9453 0-1.5147.97754-1.5147 2.73926 0 1.77783.5586 2.76074 1.5147 2.76074zm5.4555 1.12793c-.5103 0-.7627-.2847-.7627-.6929 0-.3061.1181-.51022.4458-.81101l2.3095-2.20752c.9561-.91845 1.2032-1.29443 1.2032-1.85302 0-.63916-.4942-1.09571-1.1871-1.09571-.623 0-1.0527.31153-1.332.93457-.1826.32227-.3706.47266-.7197.47266-.4351 0-.6929-.25781-.6929-.66064 0-.12354.0215-.23633.0591-.34913.2632-.85937 1.2353-1.65966 2.7017-1.65966 1.6435 0 2.75.92382 2.75 2.25586 0 .94531-.462 1.53613-1.7295 2.73388l-1.6758 1.61133v.03223h2.9219c.4189 0 .6713.25244.6713.64456 0 .3813-.2524.6445-.6713.6445zm9.3656.1719c-1.4771 0-2.3848-.6392-2.75-1.40188-.086-.17725-.1236-.34912-.1236-.51025 0-.41895.2686-.68213.7144-.68213.3223 0 .5264.1289.6875.42431.2739.54248.6929.86475 1.4985.86475.795 0 1.3428-.46191 1.3428-1.10645.0054-.75195-.5478-1.17089-1.4878-1.17089h-.3384c-.3921 0-.6176-.23096-.6176-.58008 0-.33838.2255-.57471.6176-.57471h.3169c.8111 0 1.3374-.44043 1.3374-1.07422 0-.62305-.4189-1.03662-1.2031-1.03662-.6553 0-1.0527.27393-1.3052.82178-.1772.36523-.3652.49951-.7304.49951-.4512 0-.6822-.26318-.6822-.65527 0-.18262.0376-.33838.1182-.521.3438-.75732 1.2246-1.39111 2.5942-1.39111 1.6382 0 2.7447.81103 2.7447 2.05175 0 .98291-.7036 1.62745-1.6167 1.81543v.03223c1.1548.10742 1.9013.78418 1.9013 1.85303 0 1.40722-1.2192 2.34182-3.0185 2.34182z" fill="#055c00"/></svg>