<svg height="500" viewBox="0 0 500 500" width="500" xmlns="http://www.w3.org/2000/svg"><path d="m144.5 92.58h138.64a2 2 0 0 1 2 2v40.79a0 0 0 0 1 0 0h-142.64a0 0 0 0 1 0 0v-40.79a2 2 0 0 1 2-2z" fill="#daa900"/><g fill="#f8f9f9"><path d="m171 142.5a7.13 7.13 0 0 1 -7.13-7.13v-14.27a7.13 7.13 0 0 1 14.26 0v14.27a7.13 7.13 0 0 1 -7.13 7.13z"/><path d="m199.56 142.5a7.13 7.13 0 0 1 -7.13-7.13v-14.27a7.13 7.13 0 1 1 14.26 0v14.27a7.13 7.13 0 0 1 -7.13 7.13z"/><path d="m228.09 142.5a7.13 7.13 0 0 1 -7.13-7.13v-14.27a7.13 7.13 0 0 1 14.26 0v14.27a7.13 7.13 0 0 1 -7.13 7.13z"/><path d="m256.62 142.5a7.13 7.13 0 0 1 -7.14-7.13v-14.27a7.14 7.14 0 0 1 14.27 0v14.27a7.13 7.13 0 0 1 -7.13 7.13z"/></g><path d="m121.1 228.09h185.43v114.11h-185.43z" fill="#daa900"/><path d="m270.88 86.48h-114.11a20.39 20.39 0 0 0 -20.37 20.36v28.53a6.11 6.11 0 0 0 6.1 6.1h142.65a6.11 6.11 0 0 0 6.09-6.1v-28.53a20.38 20.38 0 0 0 -20.36-20.36zm8.17 42.79h-130.44v-22.43a8.17 8.17 0 0 1 8.16-8.17h114.11a8.19 8.19 0 0 1 8.17 8.17z"/><path d="m295.35 167.12-18.35-7.34v-24.41a6.1 6.1 0 0 0 -6.1-6.1h-114.13a6.1 6.1 0 0 0 -6.1 6.1v24.41l-18.38 7.34a27.36 27.36 0 0 0 -17.29 25.53v192.35a27.52 27.52 0 0 0 27.49 27.49h142.66a27.53 27.53 0 0 0 27.49-27.49v-192.35a27.37 27.37 0 0 0 -17.29-25.53zm5.09 217.88a15.31 15.31 0 0 1 -15.29 15.29h-142.65a15.31 15.31 0 0 1 -15.29-15.29v-192.35a15.2 15.2 0 0 1 9.61-14.2l22.18-8.89a6.06 6.06 0 0 0 3.83-5.66v-22.43h101.95v22.43a6.07 6.07 0 0 0 3.83 5.66l22.22 8.89a15.2 15.2 0 0 1 9.61 14.2z"/><path d="m313.67 413.52a71.32 71.32 0 1 1 71.33-71.32 71.41 71.41 0 0 1 -71.33 71.32zm0-128.38a57.06 57.06 0 1 0 57.06 57.06 57.12 57.12 0 0 0 -57.06-57.06z"/><path d="m226 300.46-13.32 13.32a18.84 18.84 0 1 1 -26.64-26.64l13.32-13.32z"/><path d="m226 300.46 13.32-13.32a18.84 18.84 0 1 0 -26.64-26.65l-13.32 13.33z" fill="#f8f9f9"/><circle cx="313.67" cy="342.2" fill="#daa900" r="59.12"/><path d="m347.9 330.79v22.82h-22.82v22.82h-22.81v-22.82h-22.82v-22.82h22.82v-22.81h22.81v22.81z"/></svg>