<svg height="500" viewBox="0 0 500 500" width="500" xmlns="http://www.w3.org/2000/svg"><path d="m209.25 116.8v8.13h-24.25a13.21 13.21 0 0 0 -13.19 13.18v161.61h-8.12v-161.61a21.33 21.33 0 0 1 21.31-21.31z" stroke="#000" stroke-miterlimit="10" stroke-width="3"/><path d="m213.22 124.93h-4v-8.13h4a4.07 4.07 0 0 1 0 8.13z"/><path d="m335.72 138.11v161.61h-8.13v-161.61a13.21 13.21 0 0 0 -13.19-13.18h-24.28v-8.13h24.28a21.34 21.34 0 0 1 21.32 21.31z" stroke="#000" stroke-miterlimit="10" stroke-width="3"/><path d="m282 121.71a4 4 0 0 1 0-1.69 4.06 4.06 0 0 1 4-3.22h4.16v8.13h-4.16a4.06 4.06 0 0 1 -4-3.22z"/><g stroke="#000" stroke-miterlimit="10" stroke-width="3"><path d="m299.29 284.17h-100.07a4.07 4.07 0 0 1 0-8.13h100.07a4.07 4.07 0 0 1 0 8.13z"/><path d="m299.29 259.41h-100.07a4.07 4.07 0 0 1 0-8.13h100.07a4.07 4.07 0 0 1 0 8.13z"/><path d="m299.29 236h-100.07a4.07 4.07 0 0 1 0-8.13h100.07a4.07 4.07 0 0 1 0 8.13z"/><path d="m286.06 99.61h-15.66c-2-9-10.49-15.82-20.63-15.82s-18.64 6.8-20.63 15.82h-15.83a4.06 4.06 0 0 0 -4.06 4.06v34a4.06 4.06 0 0 0 4.06 4.06h72.75a4.06 4.06 0 0 0 4.06-4.06v-34a4.06 4.06 0 0 0 -4.06-4.06zm-4.06 33.94h-64.63v-25.82h15.39a4.06 4.06 0 0 0 4.07-4.06c0-6.48 5.8-11.75 12.94-11.75s13 5.27 13 11.75a4.05 4.05 0 0 0 4.06 4.06h15.17z"/></g><path d="m112.23 155.57h10.88v203.32h-10.88z"/><path d="m376.89 155.57h10.88v203.32h-10.88z"/><path d="m127.6 140.19h10.88v41.64h-10.88z" transform="matrix(0 1 -1 0 294.05 27.97)"/><path d="m361.52 140.19h10.88v41.64h-10.88z" transform="matrix(0 1 -1 0 527.97 -205.95)"/><path d="m112.76 348h274.49v10.89h-274.49z"/><path d="m244.24 349.62h10.88v61.05h-10.88z"/><rect height="130.36" rx="5.44" transform="matrix(0 1 -1 0 654.91 155.55)" width="10.88" x="244.24" y="340.05"/><path d="m123.11 310.61h253.78v37.39h-253.78z" fill="#daa900"/><path d="m112.77 299.73h274.48v10.88h-274.48z"/><circle cx="251.99" cy="184.29" fill="#daa900" r="32.25"/><path d="m271.34 177.85v12.89h-12.9v12.9h-12.9v-12.9h-12.89v-12.89h12.89v-12.9h12.9v12.9z"/><circle cx="249.68" cy="314.43" r="13.32"/></svg>