<svg viewBox="0 0 448 512" xmlns="http://www.w3.org/2000/svg"><path d="m224 0c-17.7 0-32 14.3-32 32v17.9c-72.5 11.5-128 74.3-128 150.1v33.4c0 45.4-15.5 89.5-43.8 124.9l-14.9 18.7c-5.8 7.2-6.9 17.1-2.9 25.4s12.4 13.6 21.6 13.6h400c9.2 0 17.6-5.3 21.6-13.6s2.9-18.2-2.9-25.4l-14.9-18.6c-28.3-35.5-43.8-79.6-43.8-125v-33.4c0-75.8-55.5-138.6-128-150.1v-17.9c0-17.7-14.3-32-32-32zm0 96h8c57.4 0 104 46.6 104 104v33.4c0 47.9 13.9 94.6 39.7 134.6h-303.4c25.8-40 39.7-86.7 39.7-134.6v-33.4c0-57.4 46.6-104 104-104zm64 352h-64-64c0 17 6.7 33.3 18.7 45.3s28.3 18.7 45.3 18.7 33.3-6.7 45.3-18.7 18.7-28.3 18.7-45.3z"/></svg>