<svg viewBox="0 0 512 512" xmlns="http://www.w3.org/2000/svg"><path d="m223.3 465.9 2.5 2.3c8.2 7.6 19 11.9 30.2 11.9s22-4.2 30.2-11.9l2.5-2.3 175.2-162.7c30.7-28.5 48.1-68.5 48.1-110.4v-3.3c0-70.4-50-130.8-119.2-144-39.4-7.6-79.7 1.5-111.8 24.1-4 2.8-7.8 5.8-11.5 9-4.7 4.1-9.3 8.5-13.5 13.3-7.5-8.4-15.9-15.9-25-22.3-32.1-22.6-72.4-31.7-111.8-24.2-69.2 13.2-119.2 73.7-119.2 144.1v3.3c0 41.9 17.4 81.9 48.1 110.4zm6.6-331.1-67.6 67.6c-1.5 1.5-2.4 3.6-2.3 5.8s1 4.2 2.6 5.7l112 104c2.9 2.7 7.4 2.9 10.5.3s3.8-7 1.7-10.4l-59.7-97 88.9-51.9c3.6-2.1 5-6.6 3.2-10.3l-16.6-35.1c22.4-18.5 52.2-26.4 81.3-20.9 46.5 8.9 80.1 49.5 80.1 96.9v3.3c0 28.5-11.9 55.8-32.8 75.2l-175.2 162.7-175.2-162.7c-20.9-19.4-32.8-46.7-32.8-75.2v-3.3c0-47.3 33.6-88 80.1-96.9 34-6.5 69 5.4 92 31.2l.1.1 9.6 10.8z"/></svg>