<svg fill="none" height="16" viewBox="0 0 16 16" width="16" xmlns="http://www.w3.org/2000/svg" xmlns:xlink="http://www.w3.org/1999/xlink"><clipPath id="a"><path d="m0 0h16v16h-16z"/></clipPath><g clip-path="url(#a)"><path d="m8 0c1.65625 0 3 1.34375 3 3v.1125c0 .49062-.3969.8875-.8875.8875h-4.225c-.49063 0-.8875-.39688-.8875-.8875v-.1125c0-1.65625 1.34375-3 3-3zm-6.78125 3.21875c.29375-.29375.76875-.29375 1.05938 0l2.2625 2.2625c.5-.30313 1.08437-.48125 1.70937-.48125h3.5c.625 0 1.2094.17812 1.7063.48438l2.2625-2.26563c.2937-.29375.7687-.29375 1.0593 0s.2938.76875 0 1.05937l-2.2625 2.26251c.3063.5.4844 1.08437.4844 1.70937h2.25c.4156 0 .75.33437.75.75s-.3344.75-.75.75h-2.25v.25c0 .85-.2125 1.65-.5875 2.3531l2.3687 2.3657c.2938.2937.2938.7687 0 1.0593-.2937.2906-.7687.2938-1.0593 0l-2.2156-2.2156c-.9032.8906-2.14067 1.4375-3.5063 1.4375s-2.60312-.5469-3.50625-1.4344l-2.2125 2.2156c-.29375.2938-.76875.2938-1.05938 0-.29062-.2937-.293745-.7687 0-1.0593l2.36876-2.3688c-.37813-.7031-.59063-1.5031-.59063-2.3531v-.25h-2.25c-.415625 0-.75-.33437-.75-.75s.334375-.75.75-.75h2.25c0-.625.17812-1.20938.48438-1.70625l-2.26563-2.2625c-.29375-.29375-.29375-.76875 0-1.05938zm3.28125 5.03125v1.75c0 1.675 1.17813 3.075 2.75 3.4187v-4.6687c0-.41563.33437-.75.75-.75s.75.33437.75.75v4.6687c1.5719-.3437 2.75-1.7437 2.75-3.4187v-1.75c0-.96562-.7844-1.75-1.75-1.75h-3.5c-.96562 0-1.75.78438-1.75 1.75z" fill="#fff"/></g></svg>