<svg height="16" viewBox="0 0 512 512" width="16" xmlns="http://www.w3.org/2000/svg"><path d="m256 0c53 0 96 43 96 96v3.6c0 15.7-12.7 28.4-28.4 28.4h-135.2c-15.7 0-28.4-12.7-28.4-28.4v-3.6c0-53 43-96 96-96zm-217 103c9.4-9.4 24.6-9.4 33.9 0l72.4 72.4c16-9.7 34.7-15.4 54.7-15.4h112c20 0 38.7 5.7 54.6 15.5l72.4-72.5c9.4-9.4 24.6-9.4 33.9 0s9.4 24.6 0 33.9l-72.4 72.4c9.8 16 15.5 34.7 15.5 54.7h72c13.3 0 24 10.7 24 24s-10.7 24-24 24h-72v8c0 27.2-6.8 52.8-18.8 75.3l75.8 75.7c9.4 9.4 9.4 24.6 0 33.9s-24.6 9.4-33.9 0l-70.9-70.9c-28.9 28.5-68.5 46-112.2 46s-83.3-17.5-112.2-45.9l-70.8 70.9c-9.4 9.4-24.6 9.4-33.9 0s-9.4-24.6 0-33.9l75.8-75.8c-12.1-22.5-18.9-48.1-18.9-75.3v-8h-72c-13.3 0-24-10.7-24-24s10.7-24 24-24h72c0-20 5.7-38.7 15.5-54.6l-72.5-72.4c-9.4-9.4-9.4-24.6 0-33.9zm105 161v56c0 53.6 37.7 98.4 88 109.4v-149.4c0-13.3 10.7-24 24-24s24 10.7 24 24v149.4c50.3-11 88-55.8 88-109.4v-56c0-30.9-25.1-56-56-56h-112c-30.9 0-56 25.1-56 56z"/></svg>