<svg viewBox="0 0 576 512" xmlns="http://www.w3.org/2000/svg"><path d="m552 32c-13.3 0-24 10.7-24 24v5.7l-480 130.9v-8.6c0-13.3-10.7-24-24-24s-24 10.7-24 24v21.7 18.3 64 18.3 21.7c0 13.3 10.7 24 24 24s24-10.7 24-24v-8.6l117.6 32.1c-3.6 10.2-5.6 21.1-5.6 32.5 0 53 43 96 96 96 46.9 0 86-33.6 94.3-78.1l177.7 48.4v5.7c0 13.3 10.7 24 24 24s24-10.7 24-24v-24-352-24c0-13.3-10.7-24-24-24zm-24 368.6-480-130.9v-27.4l480-130.9zm-320-16.6c0-7.1 1.5-13.8 4.3-19.8l91.5 24.9c-2.6 24.1-23 42.8-47.7 42.8-26.5 0-48-21.5-48-48z"/></svg>