<svg width="576" height="512" viewBox="0 0 576 512" fill="none" xmlns="http://www.w3.org/2000/svg">
<path d="M552 32C538.7 32 528 42.7 528 56V61.7L48 192.6V184C48 170.7 37.3 160 24 160C10.7 160 0 170.7 0 184V205.7V224V288V306.3V328C0 341.3 10.7 352 24 352C37.3 352 48 341.3 48 328V319.4L165.6 351.5C162 361.7 160 372.6 160 384C160 437 203 480 256 480C302.9 480 342 446.4 350.3 401.9L528 450.3V456C528 469.3 538.7 480 552 480C565.3 480 576 469.3 576 456V432V80V56C576 42.7 565.3 32 552 32ZM528 400.6L48 269.7V242.3L528 111.4V400.6ZM208 384C208 376.9 209.5 370.2 212.3 364.2L303.8 389.1C301.2 413.2 280.8 431.9 256.1 431.9C229.6 431.9 208.1 410.4 208.1 383.9L208 384Z" fill="white"/>
</svg>
