<svg width="512" height="512" viewBox="0 0 512 512" fill="none" xmlns="http://www.w3.org/2000/svg">
<g clip-path="url(#clip0_403_6)">
<path d="M464 32C464 3.89998 430.3 -10.6 409.9 8.79998L365.9 50.7C326.4 88.4 277 113.4 224 123.3V139.6C281.1 129.6 334.4 102.9 376.9 62.4L420.9 20.5C431.1 10.8 447.9 18 447.9 32.1V448C447.9 462.1 431.1 469.3 420.9 459.6L376.9 417.7C334.4 377.2 281.1 350.5 224 340.5V356.8C277 366.7 326.4 391.7 365.9 429.3L409.9 471.2C430.3 490.6 464 476.2 464 448V313.3C492.3 301 512 272.8 512 240C512 207.2 492.3 179 464 166.7V32ZM192 416V352.7V336.7V143.4V127.4C185.6 127.8 179.2 128.1 172.8 128.1H160H64C28.7 128.1 0 156.8 0 192.1V288.1C0 323.4 28.7 352.1 64 352.1V472.1C64 494.2 81.9 512.1 104 512.1H152C174.1 512.1 192 494.2 192 472.1V416ZM464 295.4V184.6C483.1 195.7 496 216.3 496 240C496 263.7 483.1 284.4 464 295.4ZM176 352V472C176 485.3 165.3 496 152 496H104C90.7 496 80 485.3 80 472V352H160H172.8H176ZM172.8 336H160H64C37.5 336 16 314.5 16 288V192C16 165.5 37.5 144 64 144H160H172.8H176V336C174.9 336 173.9 336 172.8 336Z" fill="white"/>
</g>
<defs>
<clipPath id="clip0_403_6">
<rect width="512" height="512" fill="white"/>
</clipPath>
</defs>
</svg>
