<svg width="14" height="16" viewBox="0 0 14 16" fill="none" xmlns="http://www.w3.org/2000/svg">
<g clip-path="url(#clip0_547_2)">
<path d="M2.7 0.171875L1.93125 1.4875C1.8125 1.69062 1.75 1.925 1.75 2.1625V2.25C1.75 2.94063 2.30937 3.5 3 3.5C3.69063 3.5 4.25 2.94063 4.25 2.25V2.1625C4.25 1.925 4.1875 1.69375 4.06875 1.4875L3.3 0.171875C3.2375 0.065625 3.125 0 3 0C2.875 0 2.7625 0.065625 2.7 0.171875ZM6.7 0.171875L5.93125 1.4875C5.8125 1.69062 5.75 1.925 5.75 2.1625V2.25C5.75 2.94063 6.30937 3.5 7 3.5C7.69063 3.5 8.25 2.94063 8.25 2.25V2.1625C8.25 1.925 8.1875 1.69375 8.06875 1.4875L7.3 0.171875C7.2375 0.065625 7.125 0 7 0C6.875 0 6.7625 0.065625 6.7 0.171875ZM9.93125 1.4875C9.8125 1.69062 9.75 1.925 9.75 2.1625V2.25C9.75 2.94063 10.3094 3.5 11 3.5C11.6906 3.5 12.25 2.94063 12.25 2.25V2.1625C12.25 1.925 12.1875 1.69375 12.0688 1.4875L11.3 0.171875C11.2375 0.065625 11.125 0 11 0C10.875 0 10.7625 0.065625 10.7 0.171875L9.93125 1.4875ZM3.75 5.25C3.75 4.83437 3.41563 4.5 3 4.5C2.58437 4.5 2.25 4.83437 2.25 5.25V7H2C0.896875 7 0 7.89688 0 9V15C0 15.5531 0.446875 16 1 16H13C13.5531 16 14 15.5531 14 15V9C14 7.89688 13.1031 7 12 7H11.75V5.25C11.75 4.83437 11.4156 4.5 11 4.5C10.5844 4.5 10.25 4.83437 10.25 5.25V7H7.75V5.25C7.75 4.83437 7.41563 4.5 7 4.5C6.58437 4.5 6.25 4.83437 6.25 5.25V7H3.75V5.25ZM2 8.5H12C12.275 8.5 12.5 8.725 12.5 9V10.9C12.3281 10.8344 12.1594 10.7406 12.0063 10.6344C11.9063 10.5656 11.8156 10.4781 11.7219 10.3938C11.5125 10.1969 11.3 10 10.9969 10C10.7031 10 10.4813 10.2031 10.2656 10.4C10.175 10.4844 10.0844 10.5687 9.9875 10.6344C9.69375 10.8437 9.34375 11 9 11C8.65625 11 8.30625 10.8437 8.00625 10.6344C7.90625 10.5656 7.81563 10.4781 7.72188 10.3938C7.5125 10.1969 7.3 10 6.99687 10C6.70312 10 6.48125 10.2031 6.26562 10.4C6.175 10.4844 6.08438 10.5687 5.9875 10.6344C5.69375 10.8437 5.34375 11 5 11C4.65625 11 4.30625 10.8437 4.00625 10.6344C3.90625 10.5656 3.81562 10.4781 3.72187 10.3938C3.5125 10.1969 3.30312 10 3 10C2.70625 10 2.48437 10.2031 2.26875 10.4C2.17812 10.4844 2.0875 10.5687 1.99063 10.6344C1.8375 10.7406 1.66875 10.8344 1.49688 10.9V9C1.49688 8.725 1.72188 8.5 1.99688 8.5H2ZM12.5 12.4531V14.5H1.5V12.4531C2.04688 12.35 2.55937 12.0906 3 11.7563C3.575 12.1938 4.26875 12.5 5 12.5C5.73125 12.5 6.425 12.1938 7 11.7563C7.575 12.1938 8.26875 12.5 9 12.5C9.73125 12.5 10.425 12.1938 11 11.7563C11.4406 12.0906 11.9531 12.35 12.5 12.4531Z" fill="white"/>
</g>
<defs>
<clipPath id="clip0_547_2">
<rect width="14" height="16" fill="white"/>
</clipPath>
</defs>
</svg>
