<svg height="16" viewBox="0 0 448 512" width="14" xmlns="http://www.w3.org/2000/svg"><path d="m86.4 5.5-24.6 42.1c-3.8 6.5-5.8 14-5.8 21.6v2.8c0 22.1 17.9 40 40 40s40-17.9 40-40v-2.8c0-7.6-2-15-5.8-21.6l-24.6-42.1c-2-3.4-5.6-5.5-9.6-5.5s-7.6 2.1-9.6 5.5zm128 0-24.6 42.1c-3.8 6.5-5.8 14-5.8 21.6v2.8c0 22.1 17.9 40 40 40s40-17.9 40-40v-2.8c0-7.6-2-15-5.8-21.6l-24.6-42.1c-2-3.4-5.6-5.5-9.6-5.5s-7.6 2.1-9.6 5.5zm103.4 42.1c-3.8 6.5-5.8 14-5.8 21.6v2.8c0 22.1 17.9 40 40 40s40-17.9 40-40v-2.8c0-7.6-2-15-5.8-21.6l-24.6-42.1c-2-3.4-5.6-5.5-9.6-5.5s-7.6 2.1-9.6 5.5zm-197.8 120.4c0-13.3-10.7-24-24-24s-24 10.7-24 24v56h-8c-35.3 0-64 28.7-64 64v192c0 17.7 14.3 32 32 32h384c17.7 0 32-14.3 32-32v-192c0-35.3-28.7-64-64-64h-8v-56c0-13.3-10.7-24-24-24s-24 10.7-24 24v56h-80v-56c0-13.3-10.7-24-24-24s-24 10.7-24 24v56h-80zm-56 104h320c8.8 0 16 7.2 16 16v60.8c-5.5-2.1-10.9-5.1-15.8-8.5-3.2-2.2-6.1-5-9.1-7.7-6.7-6.3-13.5-12.6-23.2-12.6-9.4 0-16.5 6.5-23.4 12.8-2.9 2.7-5.8 5.4-8.9 7.5-9.4 6.7-20.6 11.7-31.6 11.7s-22.2-5-31.8-11.7c-3.2-2.2-6.1-5-9.1-7.7-6.7-6.3-13.5-12.6-23.2-12.6-9.4 0-16.5 6.5-23.4 12.8-2.9 2.7-5.8 5.4-8.9 7.5-9.4 6.7-20.6 11.7-31.6 11.7s-22.2-5-31.8-11.7c-3.2-2.2-6.1-5-9.1-7.7-6.7-6.3-13.4-12.6-23.1-12.6-9.4 0-16.5 6.5-23.4 12.8-2.9 2.7-5.8 5.4-8.9 7.5-4.9 3.4-10.3 6.4-15.8 8.5v-60.8c0-8.8 7.2-16 16-16zm336 126.5v65.5h-352v-65.5c17.5-3.3 33.9-11.6 48-22.3 18.4 14 40.6 23.8 64 23.8s45.6-9.8 64-23.8c18.4 14 40.6 23.8 64 23.8s45.6-9.8 64-23.8c14.1 10.7 30.5 19 48 22.3z" fill="#1e3050"/></svg>