<svg fill="none" height="16" viewBox="0 0 14 16" width="14" xmlns="http://www.w3.org/2000/svg" xmlns:xlink="http://www.w3.org/1999/xlink"><clipPath id="a"><path d="m0 0h14v16h-14z"/></clipPath><g clip-path="url(#a)"><path d="m2.7.171875-.76875 1.315625c-.11875.20312-.18125.4375-.18125.675v.0875c0 .69063.55937 1.25 1.25 1.25s1.25-.55937 1.25-1.25v-.0875c0-.2375-.0625-.46875-.18125-.675l-.76875-1.315625c-.0625-.10625-.175-.171875-.3-.171875s-.2375.065625-.3.171875zm4 0-.76875 1.315625c-.11875.20312-.18125.4375-.18125.675v.0875c0 .69063.55937 1.25 1.25 1.25s1.25-.55937 1.25-1.25v-.0875c0-.2375-.0625-.46875-.18125-.675l-.76875-1.315625c-.0625-.10625-.175-.171875-.3-.171875s-.2375.065625-.3.171875zm3.23125 1.315625c-.11875.20312-.18125.4375-.18125.675v.0875c0 .69063.5594 1.25 1.25 1.25s1.25-.55937 1.25-1.25v-.0875c0-.2375-.0625-.46875-.1812-.675l-.7688-1.315625c-.0625-.10625-.175-.171875-.3-.171875s-.2375.065625-.3.171875zm-6.18125 3.7625c0-.41563-.33437-.75-.75-.75s-.75.33437-.75.75v1.75h-.25c-1.103125 0-2 .89688-2 2v6c0 .5531.446875 1 1 1h12c.5531 0 1-.4469 1-1v-6c0-1.10312-.8969-2-2-2h-.25v-1.75c0-.41563-.3344-.75-.75-.75s-.75.33437-.75.75v1.75h-2.5v-1.75c0-.41563-.33437-.75-.75-.75s-.75.33437-.75.75v1.75h-2.5zm-1.75 3.25h10c.275 0 .5.225.5.5v1.9c-.1719-.0656-.3406-.1594-.4937-.2656-.1-.0688-.1907-.1563-.2844-.2406-.2094-.1969-.4219-.3938-.725-.3938-.2938 0-.5156.2031-.7313.4-.0906.0844-.1812.1687-.2781.2344-.29375.2093-.64375.3656-.9875.3656s-.69375-.1563-.99375-.3656c-.1-.0688-.19062-.1563-.28437-.2406-.20938-.1969-.42188-.3938-.72501-.3938-.29375 0-.51562.2031-.73125.4-.09062.0844-.18124.1687-.27812.2344-.29375.2093-.64375.3656-.9875.3656s-.69375-.1563-.99375-.3656c-.1-.0688-.19063-.1563-.28438-.2406-.20937-.1969-.41875-.3938-.72187-.3938-.29375 0-.51563.2031-.73125.4-.09063.0844-.18125.1687-.27812.2344-.15313.1062-.32188.2-.49375.2656v-1.9c0-.275.225-.5.5-.5zm10.5 3.9531v2.0469h-11v-2.0469c.54688-.1031 1.05937-.3625 1.5-.6968.575.4375 1.26875.7437 2 .7437s1.425-.3062 2-.7437c.575.4375 1.26875.7437 2 .7437s1.425-.3062 2-.7437c.4406.3343.9531.5937 1.5.6968z" fill="#fff"/></g></svg>