<svg fill="none" height="512" viewBox="0 0 576 512" width="576" xmlns="http://www.w3.org/2000/svg" xmlns:xlink="http://www.w3.org/1999/xlink"><clipPath id="a"><path d="m0 0h576v512h-576z"/></clipPath><g clip-path="url(#a)"><path d="m128 0c13.3 0 24 10.7 24 24v40h144v-40c0-13.3 10.7-24 24-24s24 10.7 24 24v40h40c35.3 0 64 28.7 64 64v16 48h-16-32-48-304v256c0 8.8 7.2 16 16 16h220.5c12.3 18.8 28 35.1 46.3 48h-266.8c-35.3 0-64-28.7-64-64v-256-48-16c0-35.3 28.7-64 64-64h40v-40c0-13.3 10.7-24 24-24zm304 224c38.191 0 74.818 15.171 101.823 42.177 27.006 27.005 42.177 63.632 42.177 101.823s-15.171 74.818-42.177 101.823c-27.005 27.006-63.632 42.177-101.823 42.177s-74.818-15.171-101.823-42.177c-27.006-27.005-42.177-63.632-42.177-101.823s15.171-74.818 42.177-101.823c27.005-27.006 63.632-42.177 101.823-42.177zm16 80c0-8.8-7.2-16-16-16s-16 7.2-16 16v48h-48c-8.8 0-16 7.2-16 16s7.2 16 16 16h48v48c0 8.8 7.2 16 16 16s16-7.2 16-16v-48h48c8.8 0 16-7.2 16-16s-7.2-16-16-16h-48z" fill="#fff"/></g></svg>