<svg fill="none" height="16" viewBox="0 0 14 16" width="14" xmlns="http://www.w3.org/2000/svg" xmlns:xlink="http://www.w3.org/1999/xlink"><clipPath id="a"><path d="m0 0h14v16h-14z"/></clipPath><g clip-path="url(#a)"><path d="m4 0c.41563 0 .75.334375.75.75v1.25h4.5v-1.25c0-.415625.33437-.75.75-.75.4156 0 .75.334375.75.75v1.25h1.25c1.1031 0 2 .89688 2 2v.5 1.5 8c0 1.1031-.8969 2-2 2h-10c-1.103125 0-2-.8969-2-2v-8-1.5-.5c0-1.10312.896875-2 2-2h1.25v-1.25c0-.415625.33437-.75.75-.75zm8.5 6h-11v8c0 .275.225.5.5.5h10c.275 0 .5-.225.5-.5zm-9 3.41562c0-1.05625.85625-1.91562 1.91563-1.91562.50625 0 .99375.20312 1.35312.55937l.23125.23125.23125-.23125c.35937-.35937.84688-.55937 1.35313-.55937 1.05625 0 1.91562.85625 1.91562 1.91562 0 .50625-.2031.99378-.55937 1.35318l-2.58438 2.5843c-.19375.1938-.5125.1938-.70625 0l-2.58437-2.5843c-.35938-.3594-.55938-.84693-.55938-1.35318z" fill="#fff"/></g></svg>