<svg width="14" height="16" viewBox="0 0 14 16" fill="none" xmlns="http://www.w3.org/2000/svg">
<g clip-path="url(#clip0_550_4)">
<path d="M4 0C4.41563 0 4.75 0.334375 4.75 0.75V2H9.25V0.75C9.25 0.334375 9.58437 0 10 0C10.4156 0 10.75 0.334375 10.75 0.75V2H12C13.1031 2 14 2.89688 14 4V4.5V6V14C14 15.1031 13.1031 16 12 16H2C0.896875 16 0 15.1031 0 14V6V4.5V4C0 2.89688 0.896875 2 2 2H3.25V0.75C3.25 0.334375 3.58437 0 4 0ZM12.5 6H1.5V14C1.5 14.275 1.725 14.5 2 14.5H12C12.275 14.5 12.5 14.275 12.5 14V6ZM3.5 9.41562C3.5 8.35937 4.35625 7.5 5.41563 7.5C5.92188 7.5 6.40938 7.70312 6.76875 8.05937L7 8.29062L7.23125 8.05937C7.59062 7.7 8.07813 7.5 8.58438 7.5C9.64063 7.5 10.5 8.35625 10.5 9.41562C10.5 9.92187 10.2969 10.4094 9.94063 10.7688L7.35625 13.3531C7.1625 13.5469 6.84375 13.5469 6.65 13.3531L4.06563 10.7688C3.70625 10.4094 3.50625 9.92187 3.50625 9.41562H3.5Z" fill="white"/>
</g>
<defs>
<clipPath id="clip0_550_4">
<rect width="14" height="16" fill="white"/>
</clipPath>
</defs>
</svg>
