<svg height="16" viewBox="0 0 448 512" width="14" xmlns="http://www.w3.org/2000/svg"><path d="m128 0c13.3 0 24 10.7 24 24v40h144v-40c0-13.3 10.7-24 24-24s24 10.7 24 24v40h40c35.3 0 64 28.7 64 64v16 48 256c0 35.3-28.7 64-64 64h-320c-35.3 0-64-28.7-64-64v-256-48-16c0-35.3 28.7-64 64-64h40v-40c0-13.3 10.7-24 24-24zm272 192h-352v256c0 8.8 7.2 16 16 16h320c8.8 0 16-7.2 16-16zm-288 109.3c0-33.8 27.4-61.3 61.3-61.3 16.2 0 31.8 6.5 43.3 17.9l7.4 7.4 7.4-7.4c11.5-11.5 27.1-17.9 43.3-17.9 33.8 0 61.3 27.4 61.3 61.3 0 16.2-6.5 31.8-17.9 43.3l-82.7 82.7c-6.2 6.2-16.4 6.2-22.6 0l-82.7-82.7c-11.5-11.5-17.9-27.1-17.9-43.3z" fill="#1e3050"/></svg>