<svg width="576" height="512" viewBox="0 0 576 512" fill="none" xmlns="http://www.w3.org/2000/svg">
<g clip-path="url(#clip0_430_30)">
<path d="M128 0C141.3 0 152 10.7 152 24V64H296V24C296 10.7 306.7 0 320 0C333.3 0 344 10.7 344 24V64H384C419.3 64 448 92.7 448 128V144V192H432H400H352H48V448C48 456.8 55.2 464 64 464H284.5C296.8 482.8 312.5 499.1 330.8 512H64C28.7 512 0 483.3 0 448V192V144V128C0 92.7 28.7 64 64 64H104V24C104 10.7 114.7 0 128 0ZM432 224C470.191 224 506.818 239.171 533.823 266.177C560.829 293.182 576 329.809 576 368C576 406.191 560.829 442.818 533.823 469.823C506.818 496.829 470.191 512 432 512C393.809 512 357.182 496.829 330.177 469.823C303.171 442.818 288 406.191 288 368C288 329.809 303.171 293.182 330.177 266.177C357.182 239.171 393.809 224 432 224ZM448 304C448 295.2 440.8 288 432 288C423.2 288 416 295.2 416 304V352H368C359.2 352 352 359.2 352 368C352 376.8 359.2 384 368 384H416V432C416 440.8 423.2 448 432 448C440.8 448 448 440.8 448 432V384H496C504.8 384 512 376.8 512 368C512 359.2 504.8 352 496 352H448V304Z" fill="white"/>
</g>
<defs>
<clipPath id="clip0_430_30">
<rect width="576" height="512" fill="white"/>
</clipPath>
</defs>
</svg>
