<svg width="576" height="512" viewBox="0 0 576 512" fill="none" xmlns="http://www.w3.org/2000/svg">
<path d="M361 0C371.9 0 382.3 4.3 390 12L426 48H470.1L506.1 12C513.8 4.3 524.2 0 535.1 0C557.7 0 576.1 18.3 576.1 41V160C576.1 230.7 518.8 288 448.1 288C377.4 288 320.1 230.7 320.1 160V41C320.1 18.4 338.4 0 361.1 0H361ZM368 160C368 204.2 403.8 240 448 240C492.2 240 528 204.2 528 160V57.9L501.7 84.3C494.2 91.8 484 96 473.4 96H422.6C412 96 401.8 91.8 394.3 84.3L368 57.9V160ZM416 128C420.243 128 424.313 129.686 427.314 132.686C430.314 135.687 432 139.757 432 144C432 148.243 430.314 152.313 427.314 155.314C424.313 158.314 420.243 160 416 160C411.756 160 407.687 158.314 404.686 155.314C401.686 152.313 400 148.243 400 144C400 139.757 401.686 135.687 404.686 132.686C407.687 129.686 411.756 128 416 128ZM464 144C464 139.757 465.686 135.687 468.686 132.686C471.687 129.686 475.756 128 480 128C484.243 128 488.313 129.686 491.314 132.686C494.314 135.687 496 139.757 496 144C496 148.243 494.314 152.313 491.314 155.314C488.313 158.314 484.243 160 480 160C475.756 160 471.687 158.314 468.686 155.314C465.686 152.313 464 148.243 464 144ZM285 182L289.4 181.6C291.6 198.2 296.4 214 303.3 228.5L289.3 229.8C188.9 238.9 112 323.1 112 423.9V424C112 446.1 129.9 464 152 464H256V400C256 382.3 241.7 368 224 368H216C202.7 368 192 357.3 192 344C192 330.7 202.7 320 216 320H224C263.4 320 296.2 348.5 302.8 386L395.8 331.3C403.2 326.9 412.4 326.9 419.9 331.2C427.4 335.5 432 343.4 432 352V448C432 456.8 439.2 464 448 464C456.8 464 464 456.8 464 448V319.2C480.9 317.5 497.1 313.2 512 306.7V448C512 483.3 483.3 512 448 512C412.7 512 384 483.3 384 448V394L304 441V464H328C341.3 464 352 474.7 352 488C352 501.3 341.3 512 328 512H152C103.4 512 63.9999 472.6 63.9999 424V423.9V184.5C63.9999 164.3 48.9999 147.3 28.9999 144.8L21.0999 143.8C7.8999 142.2 -1.5001 130.2 0.199899 117C1.8999 103.8 13.7999 94.5 26.9999 96.2L34.8999 97.2C78.8999 102.7 112 140.1 112 184.5V279C152 225.3 213.7 188.5 285 182Z" fill="white"/>
</svg>
