<svg viewBox="0 0 576 512" xmlns="http://www.w3.org/2000/svg"><path d="m361 0c10.9 0 21.3 4.3 29 12l36 36h44.1l36-36c7.7-7.7 18.1-12 29-12 22.6 0 41 18.3 41 41v119c0 70.7-57.3 128-128 128s-128-57.3-128-128v-119c0-22.6 18.3-41 41-41zm7 160c0 44.2 35.8 80 80 80s80-35.8 80-80v-102.1l-26.3 26.4c-7.5 7.5-17.7 11.7-28.3 11.7h-50.8c-10.6 0-20.8-4.2-28.3-11.7l-26.3-26.4zm48-32a16 16 0 1 1 0 32 16 16 0 1 1 0-32zm48 16a16 16 0 1 1 32 0 16 16 0 1 1 -32 0zm-179 38 4.4-.4c2.2 16.6 7 32.4 13.9 46.9l-14 1.3c-100.4 9.1-177.3 93.3-177.3 194.1v.1c0 22.1 17.9 40 40 40h104v-64c0-17.7-14.3-32-32-32h-8c-13.3 0-24-10.7-24-24s10.7-24 24-24h8c39.4 0 72.2 28.5 78.8 66l93-54.7c7.4-4.4 16.6-4.4 24.1-.1s12.1 12.2 12.1 20.8v96c0 8.8 7.2 16 16 16s16-7.2 16-16v-128.8c16.9-1.7 33.1-6 48-12.5v141.3c0 35.3-28.7 64-64 64s-64-28.7-64-64v-54l-80 47v23h24c13.3 0 24 10.7 24 24s-10.7 24-24 24h-176c-48.6 0-88-39.4-88-88v-.1-239.4c0-20.2-15-37.2-35-39.7l-7.9-1c-13.2-1.6-22.6-13.6-20.9-26.8s13.6-22.5 26.8-20.8l7.9 1c44 5.5 77.1 42.9 77.1 87.3v94.5c40-53.7 101.7-90.5 173-97z"/></svg>