<svg width="512" height="512" viewBox="0 0 512 512" fill="none" xmlns="http://www.w3.org/2000/svg">
<g clip-path="url(#clip0_431_36)">
<path d="M256 48C311.165 48 364.071 69.9142 403.078 108.922C442.086 147.929 464 200.835 464 256C464 311.165 442.086 364.071 403.078 403.078C364.071 442.086 311.165 464 256 464C200.835 464 147.929 442.086 108.922 403.078C69.9142 364.071 48 311.165 48 256C48 200.835 69.9142 147.929 108.922 108.922C147.929 69.9142 200.835 48 256 48ZM256 512C323.895 512 389.01 485.029 437.019 437.019C485.029 389.01 512 323.895 512 256C512 188.105 485.029 122.99 437.019 74.9807C389.01 26.9714 323.895 0 256 0C188.105 0 122.99 26.9714 74.9807 74.9807C26.9714 122.99 0 188.105 0 256C0 323.895 26.9714 389.01 74.9807 437.019C122.99 485.029 188.105 512 256 512ZM256 128C242.7 128 232 138.7 232 152V264C232 277.3 242.7 288 256 288C269.3 288 280 277.3 280 264V152C280 138.7 269.3 128 256 128ZM288 352C288 343.513 284.629 335.374 278.627 329.373C272.626 323.371 264.487 320 256 320C247.513 320 239.374 323.371 233.373 329.373C227.371 335.374 224 343.513 224 352C224 360.487 227.371 368.626 233.373 374.627C239.374 380.629 247.513 384 256 384C264.487 384 272.626 380.629 278.627 374.627C284.629 368.626 288 360.487 288 352Z" fill="white"/>
</g>
<defs>
<clipPath id="clip0_431_36">
<rect width="512" height="512" fill="white"/>
</clipPath>
</defs>
</svg>
