<svg width="512" height="512" viewBox="0 0 512 512" fill="none" xmlns="http://www.w3.org/2000/svg">
<g clip-path="url(#clip0_431_38)">
<path d="M256 48C311.165 48 364.071 69.9142 403.078 108.922C442.086 147.929 464 200.835 464 256C464 311.165 442.086 364.071 403.078 403.078C364.071 442.086 311.165 464 256 464C200.835 464 147.929 442.086 108.922 403.078C69.9142 364.071 48 311.165 48 256C48 200.835 69.9142 147.929 108.922 108.922C147.929 69.9142 200.835 48 256 48ZM256 512C323.895 512 389.01 485.029 437.019 437.019C485.029 389.01 512 323.895 512 256C512 188.105 485.029 122.99 437.019 74.9807C389.01 26.9714 323.895 0 256 0C188.105 0 122.99 26.9714 74.9807 74.9807C26.9714 122.99 0 188.105 0 256C0 323.895 26.9714 389.01 74.9807 437.019C122.99 485.029 188.105 512 256 512ZM216 336C202.7 336 192 346.7 192 360C192 373.3 202.7 384 216 384H296C309.3 384 320 373.3 320 360C320 346.7 309.3 336 296 336H288V248C288 234.7 277.3 224 264 224H216C202.7 224 192 234.7 192 248C192 261.3 202.7 272 216 272H240V336H216ZM256 192C264.487 192 272.626 188.629 278.627 182.627C284.629 176.626 288 168.487 288 160C288 151.513 284.629 143.374 278.627 137.373C272.626 131.371 264.487 128 256 128C247.513 128 239.374 131.371 233.373 137.373C227.371 143.374 224 151.513 224 160C224 168.487 227.371 176.626 233.373 182.627C239.374 188.629 247.513 192 256 192Z" fill="white"/>
</g>
<defs>
<clipPath id="clip0_431_38">
<rect width="512" height="512" fill="white"/>
</clipPath>
</defs>
</svg>
