<svg fill="none" height="512" viewBox="0 0 512 512" width="512" xmlns="http://www.w3.org/2000/svg" xmlns:xlink="http://www.w3.org/1999/xlink"><clipPath id="a"><path d="m0 0h512v512h-512z"/></clipPath><g clip-path="url(#a)"><path d="m256 48c55.165 0 108.071 21.9142 147.078 60.922 39.008 39.007 60.922 91.913 60.922 147.078s-21.914 108.071-60.922 147.078c-39.007 39.008-91.913 60.922-147.078 60.922s-108.071-21.914-147.078-60.922c-39.0078-39.007-60.922-91.913-60.922-147.078s21.9142-108.071 60.922-147.078c39.007-39.0078 91.913-60.922 147.078-60.922zm0 464c67.895 0 133.01-26.971 181.019-74.981 48.01-48.009 74.981-113.124 74.981-181.019s-26.971-133.01-74.981-181.0193c-48.009-48.0093-113.124-74.9807-181.019-74.9807s-133.01 26.9714-181.0193 74.9807-74.9807 113.1243-74.9807 181.0193 26.9714 133.01 74.9807 181.019c48.0093 48.01 113.1243 74.981 181.0193 74.981zm0-384c-13.3 0-24 10.7-24 24v112c0 13.3 10.7 24 24 24s24-10.7 24-24v-112c0-13.3-10.7-24-24-24zm32 224c0-8.487-3.371-16.626-9.373-22.627-6.001-6.002-14.14-9.373-22.627-9.373s-16.626 3.371-22.627 9.373c-6.002 6.001-9.373 14.14-9.373 22.627s3.371 16.626 9.373 22.627c6.001 6.002 14.14 9.373 22.627 9.373s16.626-3.371 22.627-9.373c6.002-6.001 9.373-14.14 9.373-22.627z" fill="#fff"/></g></svg>