<svg viewBox="0 0 384 512" xmlns="http://www.w3.org/2000/svg"><path d="m320 64h-40-9.6c-7.4-36.5-39.7-64-78.4-64s-71 27.5-78.4 64h-9.6-40c-35.3 0-64 28.7-64 64v320c0 35.3 28.7 64 64 64h256c35.3 0 64-28.7 64-64v-320c0-35.3-28.7-64-64-64zm-240 48v24c0 13.3 10.7 24 24 24h88 88c13.3 0 24-10.7 24-24v-24h16c8.8 0 16 7.2 16 16v320c0 8.8-7.2 16-16 16h-256c-8.8 0-16-7.2-16-16v-320c0-8.8 7.2-16 16-16zm88-32a24 24 0 1 1 48 0 24 24 0 1 1 -48 0zm-8 160v48h-48c-8.8 0-16 7.2-16 16v32c0 8.8 7.2 16 16 16h48v48c0 8.8 7.2 16 16 16h32c8.8 0 16-7.2 16-16v-48h48c8.8 0 16-7.2 16-16v-32c0-8.8-7.2-16-16-16h-48v-48c0-8.8-7.2-16-16-16h-32c-8.8 0-16 7.2-16 16z"/></svg>