<svg fill="none" height="512" viewBox="0 0 384 512" width="384" xmlns="http://www.w3.org/2000/svg" xmlns:xlink="http://www.w3.org/1999/xlink"><clipPath id="a"><path d="m0 0h384v512h-384z"/></clipPath><g clip-path="url(#a)"><path d="m320 64h-40-9.6c-7.4-36.5-39.7-64-78.4-64s-71 27.5-78.4 64h-9.6-40c-35.3 0-64 28.7-64 64v320c0 35.3 28.7 64 64 64h256c35.3 0 64-28.7 64-64v-320c0-35.3-28.7-64-64-64zm-240 48v24c0 13.3 10.7 24 24 24h88 88c13.3 0 24-10.7 24-24v-24h16c8.8 0 16 7.2 16 16v320c0 8.8-7.2 16-16 16h-256c-8.8 0-16-7.2-16-16v-320c0-8.8 7.2-16 16-16zm88-32c0-6.3652 2.529-12.4697 7.029-16.9706 4.501-4.5008 10.606-7.0294 16.971-7.0294s12.47 2.5286 16.971 7.0294c4.5 4.5009 7.029 10.6054 7.029 16.9706s-2.529 12.4697-7.029 16.9706c-4.501 4.5004-10.606 7.0294-16.971 7.0294s-12.47-2.529-16.971-7.0294c-4.5-4.5009-7.029-10.6054-7.029-16.9706zm-8 160v48h-48c-8.8 0-16 7.2-16 16v32c0 8.8 7.2 16 16 16h48v48c0 8.8 7.2 16 16 16h32c8.8 0 16-7.2 16-16v-48h48c8.8 0 16-7.2 16-16v-32c0-8.8-7.2-16-16-16h-48v-48c0-8.8-7.2-16-16-16h-32c-8.8 0-16 7.2-16 16z" fill="#fff"/></g></svg>