<svg width="384" height="512" viewBox="0 0 384 512" fill="none" xmlns="http://www.w3.org/2000/svg">
<g clip-path="url(#clip0_425_18)">
<path d="M320 64H280H270.4C263 27.5 230.7 0 192 0C153.3 0 121 27.5 113.6 64H104H64C28.7 64 0 92.7 0 128V448C0 483.3 28.7 512 64 512H320C355.3 512 384 483.3 384 448V128C384 92.7 355.3 64 320 64ZM80 112V136C80 149.3 90.7 160 104 160H192H280C293.3 160 304 149.3 304 136V112H320C328.8 112 336 119.2 336 128V448C336 456.8 328.8 464 320 464H64C55.2 464 48 456.8 48 448V128C48 119.2 55.2 112 64 112H80ZM168 80C168 73.6348 170.529 67.5303 175.029 63.0294C179.53 58.5286 185.635 56 192 56C198.365 56 204.47 58.5286 208.971 63.0294C213.471 67.5303 216 73.6348 216 80C216 86.3652 213.471 92.4697 208.971 96.9706C204.47 101.471 198.365 104 192 104C185.635 104 179.53 101.471 175.029 96.9706C170.529 92.4697 168 86.3652 168 80ZM160 240V288H112C103.2 288 96 295.2 96 304V336C96 344.8 103.2 352 112 352H160V400C160 408.8 167.2 416 176 416H208C216.8 416 224 408.8 224 400V352H272C280.8 352 288 344.8 288 336V304C288 295.2 280.8 288 272 288H224V240C224 231.2 216.8 224 208 224H176C167.2 224 160 231.2 160 240Z" fill="white"/>
</g>
<defs>
<clipPath id="clip0_425_18">
<rect width="384" height="512" fill="white"/>
</clipPath>
</defs>
</svg>
