<svg height="16" viewBox="0 0 384 512" width="12" xmlns="http://www.w3.org/2000/svg"><path d="m140.1 464h103.8l91.9-318.2-85.6-97.8h-116.4l-85.6 97.8zm-128.6-349.1 91-104c6-6.9 14.8-10.9 24-10.9h131c9.2 0 18 4 24.1 10.9l91 104c7.4 8.5 11.5 19.3 11.5 30.6 0 4.4-.6 8.7-1.8 12.9l-95.6 330.5c-4 13.7-16.5 23.1-30.7 23.1h-127.9c-14.3 0-26.8-9.4-30.7-23.1l-95.6-330.6c-1.2-4.2-1.8-8.5-1.8-12.9 0-11.2 4.1-22.1 11.5-30.6zm204.5 5.1v40h48c13.3 0 24 10.7 24 24s-10.7 24-24 24h-48v120c0 13.3-10.7 24-24 24s-24-10.7-24-24v-120h-48c-13.3 0-24-10.7-24-24s10.7-24 24-24h48v-40c0-13.3 10.7-24 24-24s24 10.7 24 24z"/></svg>