<svg fill="none" height="16" viewBox="0 0 12 16" width="12" xmlns="http://www.w3.org/2000/svg" xmlns:xlink="http://www.w3.org/1999/xlink"><clipPath id="a"><path d="m0 0h12v16h-12z"/></clipPath><g clip-path="url(#a)"><path d="m4.37813 14.5h3.24374l2.87183-9.94375-2.67495-3.05625h-3.6375l-2.675 3.05625zm-4.018755-10.90937 2.843745-3.250005c.1875-.215625.46251-.340625.75-.340625h4.09376c.28749 0 .5625.125.75312.340625l2.8438 3.250005c.2312.26562.3593.60312.3593.95625 0 .1375-.0187.27187-.0562.40312l-2.98752 10.3281c-.125.4281-.51563.7219-.95938.7219h-3.99687c-.44688 0-.8375-.2938-.95938-.7219l-2.9875-10.33122c-.0375-.13125-.05625-.26563-.05625-.40313 0-.35.128125-.69062.359375-.95625zm6.390625.15937v1.25h1.5c.41563 0 .75.33437.75.75s-.33437.75-.75.75h-1.5v3.75c0 .4156-.33437.75-.75.75s-.75-.3344-.75-.75v-3.75h-1.5c-.41563 0-.75-.33437-.75-.75s.33437-.75.75-.75h1.5v-1.25c0-.41563.33437-.75.75-.75s.75.33437.75.75z" fill="#fff"/></g></svg>