<svg width="576" height="512" viewBox="0 0 576 512" fill="none" xmlns="http://www.w3.org/2000/svg">
<path d="M512 80C520.8 80 528 87.2 528 96V128H48V96C48 87.2 55.2 80 64 80H512ZM528 224V416C528 424.8 520.8 432 512 432H64C55.2 432 48 424.8 48 416V224H528ZM64 32C28.7 32 0 60.7 0 96V416C0 451.3 28.7 480 64 480H512C547.3 480 576 451.3 576 416V96C576 60.7 547.3 32 512 32H64ZM120 336C106.7 336 96 346.7 96 360C96 373.3 106.7 384 120 384H168C181.3 384 192 373.3 192 360C192 346.7 181.3 336 168 336H120ZM248 336C234.7 336 224 346.7 224 360C224 373.3 234.7 384 248 384H360C373.3 384 384 373.3 384 360C384 346.7 373.3 336 360 336H248Z" fill="white"/>
</svg>
