<svg width="576" height="512" viewBox="0 0 576 512" fill="none" xmlns="http://www.w3.org/2000/svg">
<g clip-path="url(#clip0_435_42)">
<path d="M318 342.2C329.4 351.3 336 365.1 336 379.6V448C336 456.8 343.2 464 352 464H368C376.8 464 384 456.8 384 448V274.3L300.5 223C297.3 223.7 294 224 290.6 224H144H112.1L112 224.8V448C112 456.8 119.2 464 128 464H144C152.8 464 160 456.8 160 448V379.6C160 365 166.6 351.3 178 342.2C189.4 333.1 204.2 329.6 218.4 332.8C227.9 334.9 237.8 336 248 336C258.2 336 268.1 334.9 277.6 332.8C291.8 329.7 306.7 333.1 318 342.2ZM336.9 189L390.3 221.8C397.5 204.1 414.9 192 434.7 192H480C506.5 192 528 170.5 528 144V112H496C483.3 112 471.1 106.9 462.1 97.9L444.1 80H368C363.8 80 359.6 79.4 355.6 78.4L338 183.9C337.7 185.6 337.3 187.3 336.9 189ZM64.1999 220.2C63.0999 219.9 61.9999 219.5 60.8999 219.1C33.4999 209.5 11.8999 186.7 4.49991 157.3L0.699914 141.8C-2.50009 128.9 5.29992 115.9 18.1999 112.7C31.0999 109.5 44.0999 117.3 47.2999 130.2L51.1999 145.7C55.5999 163.5 71.5999 176 89.9999 176H144H290.7L313.5 39.3L313.6 38.9L314.5 33.3L317.6 14.9C319 6.3 326.4 0 335.1 0C340.7 0 346 2.6 349.4 7.1L360.6 22L364 26.6L364.2 26.9L368 32H444.1C456.8 32 469 37.1 478 46.1L496 64H528C554.5 64 576 85.5 576 112V144C576 197 533 240 480 240H434.7L432 256V448C432 483.3 403.3 512 368 512H352C316.7 512 288 483.3 288 448V428.6V379.6C277.6 381.9 266.9 383.3 256 383.8C253.3 383.9 250.7 384 248 384C245.3 384 242.7 383.9 240 383.8C229.1 383.3 218.4 381.9 208 379.6V428.5V448C208 483.3 179.3 512 144 512H128C92.6999 512 63.9999 483.3 63.9999 448V224C63.9999 222.7 64.0999 221.4 64.1999 220.2ZM416 112C416 107.757 417.686 103.687 420.686 100.686C423.687 97.6857 427.756 96 432 96C436.243 96 440.313 97.6857 443.314 100.686C446.314 103.687 448 107.757 448 112C448 116.243 446.314 120.313 443.314 123.314C440.313 126.314 436.243 128 432 128C427.756 128 423.687 126.314 420.686 123.314C417.686 120.313 416 116.243 416 112Z" fill="white"/>
</g>
<defs>
<clipPath id="clip0_435_42">
<rect width="576" height="512" fill="white"/>
</clipPath>
</defs>
</svg>
