<svg viewBox="0 0 576 512" xmlns="http://www.w3.org/2000/svg"><path d="m318 342.2c11.4 9.1 18 22.9 18 37.4v68.4c0 8.8 7.2 16 16 16h16c8.8 0 16-7.2 16-16v-173.7l-83.5-51.3c-3.2.7-6.5 1-9.9 1h-146.6-31.9l-.1.8v223.2c0 8.8 7.2 16 16 16h16c8.8 0 16-7.2 16-16v-68.4c0-14.6 6.6-28.3 18-37.4s26.2-12.6 40.4-9.4c9.5 2.1 19.4 3.2 29.6 3.2s20.1-1.1 29.6-3.2c14.2-3.1 29.1.3 40.4 9.4zm18.9-153.2 53.4 32.8c7.2-17.7 24.6-29.8 44.4-29.8h45.3c26.5 0 48-21.5 48-48v-32h-32c-12.7 0-24.9-5.1-33.9-14.1l-18-17.9h-76.1c-4.2 0-8.4-.6-12.4-1.6l-17.6 105.5c-.3 1.7-.7 3.4-1.1 5.1zm-272.7 31.2c-1.1-.3-2.2-.7-3.3-1.1-27.4-9.6-49-32.4-56.4-61.8l-3.8-15.5c-3.2-12.9 4.6-25.9 17.5-29.1s25.9 4.6 29.1 17.5l3.9 15.5c4.4 17.8 20.4 30.3 38.8 30.3h54 146.7l22.8-136.7.1-.4.9-5.6 3.1-18.4c1.4-8.6 8.8-14.9 17.5-14.9 5.6 0 10.9 2.6 14.3 7.1l11.2 14.9 3.4 4.6.2.3 3.8 5.1h76.1c12.7 0 24.9 5.1 33.9 14.1l18 17.9h32c26.5 0 48 21.5 48 48v32c0 53-43 96-96 96h-45.3l-2.7 16v192c0 35.3-28.7 64-64 64h-16c-35.3 0-64-28.7-64-64v-19.4-49c-10.4 2.3-21.1 3.7-32 4.2-2.7.1-5.3.2-8 .2s-5.3-.1-8-.2c-10.9-.5-21.6-1.9-32-4.2v48.9 19.5c0 35.3-28.7 64-64 64h-16c-35.3 0-64-28.7-64-64v-224c0-1.3.1-2.6.2-3.8zm351.8-108.2a16 16 0 1 1 32 0 16 16 0 1 1 -32 0z"/></svg>