<svg fill="none" height="512" viewBox="0 0 352 512" width="352" xmlns="http://www.w3.org/2000/svg"><path d="m48 176c0-33.948 13.4857-66.505 37.4903-90.5097 24.0047-24.0046 56.5617-37.4903 90.5097-37.4903s66.505 13.4857 90.51 37.4903c24.004 24.0047 37.49 56.5617 37.49 90.5097s-13.486 66.505-37.49 90.51c-24.005 24.004-56.562 37.49-90.51 37.49s-66.505-13.486-90.5097-37.49c-24.0046-24.005-37.4903-56.562-37.4903-90.51zm152 174.4c85.8-11.7 152-85.3 152-174.4 0-97.2-78.8-176-176-176s-176 78.8-176 176c0 89.1 66.2 162.7 152 174.4v49.6h-48c-13.3 0-24 10.7-24 24s10.7 24 24 24h48v40c0 13.3 10.7 24 24 24s24-10.7 24-24v-40h48c13.3 0 24-10.7 24-24s-10.7-24-24-24h-48z" fill="#fff"/></svg>