<svg width="352" height="512" viewBox="0 0 352 512" fill="none" xmlns="http://www.w3.org/2000/svg">
<path d="M48 176C48 142.052 61.4857 109.495 85.4903 85.4903C109.495 61.4857 142.052 48 176 48C209.948 48 242.505 61.4857 266.51 85.4903C290.514 109.495 304 142.052 304 176C304 209.948 290.514 242.505 266.51 266.51C242.505 290.514 209.948 304 176 304C142.052 304 109.495 290.514 85.4903 266.51C61.4857 242.505 48 209.948 48 176ZM200 350.4C285.8 338.7 352 265.1 352 176C352 78.8 273.2 0 176 0C78.8 0 0 78.8 0 176C0 265.1 66.2 338.7 152 350.4V400H104C90.7 400 80 410.7 80 424C80 437.3 90.7 448 104 448H152V488C152 501.3 162.7 512 176 512C189.3 512 200 501.3 200 488V448H248C261.3 448 272 437.3 272 424C272 410.7 261.3 400 248 400H200V350.4Z" fill="white"/>
</svg>
