<svg width="16" height="16" viewBox="0 0 16 16" fill="none" xmlns="http://www.w3.org/2000/svg">
<path d="M2 1C0.896875 1 0 1.89688 0 3V13C0 14.1031 0.896875 15 2 15H14C15.1031 15 16 14.1031 16 13V5C16 3.89688 15.1031 3 14 3H9.05937L7.71875 1.65937C7.29688 1.2375 6.725 1 6.12813 1H2ZM1.5 3C1.5 2.725 1.725 2.5 2 2.5H6.12813C6.32813 2.5 6.51875 2.57812 6.65938 2.71875L8.075 4.13438C8.30937 4.36875 8.62813 4.5 8.95938 4.5H14C14.275 4.5 14.5 4.725 14.5 5V13C14.5 13.275 14.275 13.5 14 13.5H2C1.725 13.5 1.5 13.275 1.5 13V3ZM4.5 7.91563C4.5 8.42188 4.70312 8.90938 5.05937 9.26875L7.64375 11.8531C7.8375 12.0469 8.15625 12.0469 8.35 11.8531L10.9344 9.26875C11.2937 8.90938 11.4937 8.42188 11.4937 7.91563C11.4937 6.85938 10.6375 6 9.57812 6C9.07187 6 8.58438 6.20312 8.225 6.55937L7.99375 6.79063L7.7625 6.55937C7.40312 6.2 6.91563 6 6.40938 6C5.35313 6 4.49375 6.85625 4.49375 7.91563H4.5Z" fill="white"/>
</svg>
