<svg fill="none" height="16" viewBox="0 0 16 16" width="16" xmlns="http://www.w3.org/2000/svg"><path d="m2 1c-1.103125 0-2 .89688-2 2v10c0 1.1031.896875 2 2 2h12c1.1031 0 2-.8969 2-2v-8c0-1.10312-.8969-2-2-2h-4.94063l-1.34062-1.34063c-.42187-.42187-.99375-.65937-1.59062-.65937zm-.5 2c0-.275.225-.5.5-.5h4.12813c.2 0 .39062.07812.53125.21875l1.41562 1.41563c.23437.23437.55313.36562.88438.36562h5.04062c.275 0 .5.225.5.5v8c0 .275-.225.5-.5.5h-12c-.275 0-.5-.225-.5-.5zm3 4.91563c0 .50625.20312.99375.55937 1.35312l2.58438 2.58435c.19375.1938.5125.1938.70625 0l2.5844-2.58435c.3593-.35937.5593-.84687.5593-1.35312 0-1.05625-.8562-1.91563-1.91558-1.91563-.50625 0-.99374.20312-1.35312.55937l-.23125.23126-.23125-.23126c-.35938-.35937-.84687-.55937-1.35312-.55937-1.05625 0-1.91563.85625-1.91563 1.91563z" fill="#fff"/></svg>