<svg height="16" viewBox="0 0 512 512" width="16" xmlns="http://www.w3.org/2000/svg"><path d="m64 32c-35.3 0-64 28.7-64 64v320c0 35.3 28.7 64 64 64h384c35.3 0 64-28.7 64-64v-256c0-35.3-28.7-64-64-64h-158.1l-42.9-42.9c-13.5-13.5-31.8-21.1-50.9-21.1zm-16 64c0-8.8 7.2-16 16-16h132.1c6.4 0 12.5 2.5 17 7l45.3 45.3c7.5 7.5 17.7 11.7 28.3 11.7h161.3c8.8 0 16 7.2 16 16v256c0 8.8-7.2 16-16 16h-384c-8.8 0-16-7.2-16-16zm96 157.3c0 16.2 6.5 31.8 17.9 43.3l82.7 82.7c6.2 6.2 16.4 6.2 22.6 0l82.7-82.7c11.5-11.5 17.9-27.1 17.9-43.3 0-33.8-27.4-61.3-61.3-61.3-16.2 0-31.8 6.5-43.3 17.9l-7.4 7.4-7.4-7.4c-11.5-11.5-27.1-17.9-43.3-17.9-33.8 0-61.3 27.4-61.3 61.3z" fill="#1e3050"/></svg>