<svg viewBox="0 0 512 512" xmlns="http://www.w3.org/2000/svg"><path d="m256 160a96 96 0 1 0 0 192 96 96 0 1 0 0-192zm48 96a48 48 0 1 1 -96 0 48 48 0 1 1 96 0zm-69.1-256c-22.2 0-41.5 15.2-46.7 36.7l-8.2 34.3-1.1.4-30-18.4c-18.9-11.6-43.3-8.7-59 7l-29.8 29.9c-15.7 15.7-18.6 40.1-7 59l18.4 30-.5 1.1-34.2 8.3c-21.6 5.1-36.8 24.4-36.8 46.6v42.2c0 22.2 15.2 41.5 36.7 46.7l34.3 8.2.4 1.1-18.4 30c-11.6 18.9-8.7 43.3 7 59l29.8 29.8c15.7 15.7 40.1 18.6 59 7l30-18.4 1.1.4 8.3 34.2c5.2 21.6 24.5 36.7 46.7 36.7h42.2c22.2 0 41.5-15.2 46.7-36.7l8.2-34.1 1.1-.4 30 18.4c18.9 11.6 43.3 8.7 59-7l29.8-29.8c15.7-15.7 18.6-40.1 7-59l-18.4-30 .4-1.1 34.2-8.3c21.6-5.2 36.7-24.5 36.7-46.7v-42.2c0-22.2-15.2-41.5-36.7-46.7l-34.1-8.2-.4-1.1 18.4-30c11.6-18.9 8.7-43.3-7-59l-29.9-29.8c-15.7-15.7-40.1-18.6-59-7l-30 18.4-1.1-.5-8.3-34.2c-5.1-21.6-24.4-36.8-46.6-36.8zm0 48h42.2l11.3 46.6c1.9 8 7.9 14.5 15.7 17.1 6.8 2.3 13.5 5 19.9 8.2 7.4 3.7 16.2 3.3 23.3-1l40.9-25 29.8 29.9-25 40.9c-4.3 7.1-4.7 15.9-1 23.3 3.2 6.4 6 13 8.2 19.9 2.6 7.9 9.1 13.8 17.1 15.7l46.7 11.3v42.2l-46.6 11.3c-8 1.9-14.5 7.9-17.1 15.7-2.3 6.8-5 13.5-8.2 19.9-3.7 7.4-3.3 16.2 1 23.3l25 40.9-29.9 29.8-40.9-25c-7.1-4.3-15.9-4.7-23.3-1-6.4 3.2-13 6-19.9 8.2-7.9 2.6-13.8 9.1-15.7 17.1l-11.3 46.7h-42.2l-11.3-46.6c-1.9-8-7.9-14.5-15.7-17.1-6.8-2.3-13.5-5-19.9-8.2-7.4-3.7-16.2-3.3-23.3 1l-40.9 25-29.8-29.9 25-40.9c4.3-7.1 4.7-15.9 1-23.3-3.2-6.4-6-13-8.2-19.9-2.6-7.9-9.1-13.8-17.1-15.7l-46.7-11.3v-42.2l46.6-11.3c8-1.9 14.5-7.9 17.1-15.7 2.3-6.8 5-13.5 8.2-19.9 3.7-7.4 3.3-16.2-1-23.3l-24.9-40.9 29.8-29.8 40.9 25c7.1 4.3 15.9 4.7 23.3 1 6.4-3.2 13-6 19.9-8.2 7.9-2.6 13.8-9.1 15.7-17.1z"/></svg>