<svg width="512" height="512" viewBox="0 0 512 512" fill="none" xmlns="http://www.w3.org/2000/svg">
<g clip-path="url(#clip0_425_26)">
<path d="M256 160C230.539 160 206.121 170.114 188.118 188.118C170.114 206.121 160 230.539 160 256C160 281.461 170.114 305.879 188.118 323.882C206.121 341.886 230.539 352 256 352C281.461 352 305.879 341.886 323.882 323.882C341.886 305.879 352 281.461 352 256C352 230.539 341.886 206.121 323.882 188.118C305.879 170.114 281.461 160 256 160ZM304 256C304 268.73 298.943 280.939 289.941 289.941C280.939 298.943 268.73 304 256 304C243.27 304 231.061 298.943 222.059 289.941C213.057 280.939 208 268.73 208 256C208 243.27 213.057 231.061 222.059 222.059C231.061 213.057 243.27 208 256 208C268.73 208 280.939 213.057 289.941 222.059C298.943 231.061 304 243.27 304 256ZM234.9 0C212.7 0 193.4 15.2 188.2 36.7L180 71L178.9 71.4L148.9 53C130 41.4 105.6 44.3 89.9 60L60.1 89.9C44.4 105.6 41.5 130 53.1 148.9L71.5 178.9L71 180L36.8 188.3C15.2 193.4 0 212.7 0 234.9V277.1C0 299.3 15.2 318.6 36.7 323.8L71 332L71.4 333.1L53 363.1C41.4 382 44.3 406.4 60 422.1L89.8 451.9C105.5 467.6 129.9 470.5 148.8 458.9L178.8 440.5L179.9 440.9L188.2 475.1C193.4 496.7 212.7 511.8 234.9 511.8H277.1C299.3 511.8 318.6 496.6 323.8 475.1L332 441L333.1 440.6L363.1 459C382 470.6 406.4 467.7 422.1 452L451.9 422.2C467.6 406.5 470.5 382.1 458.9 363.2L440.5 333.2L440.9 332.1L475.1 323.8C496.7 318.6 511.8 299.3 511.8 277.1V234.9C511.8 212.7 496.6 193.4 475.1 188.2L441 180L440.6 178.9L459 148.9C470.6 130 467.7 105.6 452 89.9L422.1 60.1C406.4 44.4 382 41.5 363.1 53.1L333.1 71.5L332 71L323.7 36.8C318.6 15.2 299.3 0 277.1 0H234.9ZM234.9 48H277.1L288.4 94.6C290.3 102.6 296.3 109.1 304.1 111.7C310.9 114 317.6 116.7 324 119.9C331.4 123.6 340.2 123.2 347.3 118.9L388.2 93.9L418 123.8L393 164.7C388.7 171.8 388.3 180.6 392 188C395.2 194.4 398 201 400.2 207.9C402.8 215.8 409.3 221.7 417.3 223.6L464 234.9V277.1L417.4 288.4C409.4 290.3 402.9 296.3 400.3 304.1C398 310.9 395.3 317.6 392.1 324C388.4 331.4 388.8 340.2 393.1 347.3L418.1 388.2L388.2 418L347.3 393C340.2 388.7 331.4 388.3 324 392C317.6 395.2 311 398 304.1 400.2C296.2 402.8 290.3 409.3 288.4 417.3L277.1 464H234.9L223.6 417.4C221.7 409.4 215.7 402.9 207.9 400.3C201.1 398 194.4 395.3 188 392.1C180.6 388.4 171.8 388.8 164.7 393.1L123.8 418.1L94 388.2L119 347.3C123.3 340.2 123.7 331.4 120 324C116.8 317.6 114 311 111.8 304.1C109.2 296.2 102.7 290.3 94.7 288.4L48 277.1V234.9L94.6 223.6C102.6 221.7 109.1 215.7 111.7 207.9C114 201.1 116.7 194.4 119.9 188C123.6 180.6 123.2 171.8 118.9 164.7L94 123.8L123.8 94L164.7 119C171.8 123.3 180.6 123.7 188 120C194.4 116.8 201 114 207.9 111.8C215.8 109.2 221.7 102.7 223.6 94.7L234.9 48Z" fill="white"/>
</g>
<defs>
<clipPath id="clip0_425_26">
<rect width="512" height="512" fill="white"/>
</clipPath>
</defs>
</svg>
