<svg height="16" viewBox="0 0 512 512" width="16" xmlns="http://www.w3.org/2000/svg"><path d="m48 256c0-114.9 93.1-208 208-208s208 93.1 208 208v144.1c0 22.1-17.9 40-40 40l-110.4-.1c-8.3-14.4-23.8-24-41.6-24h-32c-26.5 0-48 21.5-48 48s21.5 48 48 48h32c17.8 0 33.3-9.7 41.6-24l110.4.1c48.6 0 88.1-39.4 88.1-88v-144.1c-.1-141.4-114.7-256-256.1-256s-256 114.6-256 256v40c0 13.3 10.7 24 24 24s24-10.7 24-24zm112-32v112c-17.7 0-32-14.3-32-32v-48c0-17.7 14.3-32 32-32zm-80 32v48c0 44.2 35.8 80 80 80h16c17.7 0 32-14.3 32-32v-144c0-17.7-14.3-32-32-32h-16c-44.2 0-80 35.8-80 80zm272-32c17.7 0 32 14.3 32 32v48c0 17.7-14.3 32-32 32zm80 32c0-44.2-35.8-80-80-80h-16c-17.7 0-32 14.3-32 32v144c0 17.7 14.3 32 32 32h16c44.2 0 80-35.8 80-80z"/></svg>