<svg fill="none" height="16" viewBox="0 0 16 16" width="16" xmlns="http://www.w3.org/2000/svg"><path d="m1.5 8c0-3.59063 2.90937-6.5 6.5-6.5 3.5906 0 6.5 2.90937 6.5 6.5v4.5031c0 .6907-.5594 1.25-1.25 1.25l-3.45-.0031c-.25937-.45-.74375-.75-1.3-.75h-1c-.82812 0-1.5.6719-1.5 1.5s.67188 1.5 1.5 1.5h1c.55625 0 1.04063-.3031 1.3-.75l3.45.0031c1.5187 0 2.7531-1.2312 2.7531-2.75v-4.5031c-.0031-4.41875-3.5844-8-8.0031-8-4.41875 0-8 3.58125-8 8v1.25c0 .41563.334375.75.75.75.41563 0 .75-.33437.75-.75zm3.5-1v3.5c-.55313 0-1-.4469-1-1v-1.5c0-.55313.44687-1 1-1zm-2.5 1v1.5c0 1.3813 1.11875 2.5 2.5 2.5h.5c.55313 0 1-.4469 1-1v-4.5c0-.55313-.44687-1-1-1h-.5c-1.38125 0-2.5 1.11875-2.5 2.5zm8.5-1c.5531 0 1 .44687 1 1v1.5c0 .5531-.4469 1-1 1zm2.5 1c0-1.38125-1.1187-2.5-2.5-2.5h-.5c-.55313 0-1 .44687-1 1v4.5c0 .5531.44687 1 1 1h.5c1.3813 0 2.5-1.1187 2.5-2.5z" fill="#fff"/></svg>