<svg width="640" height="512" viewBox="0 0 640 512" fill="none" xmlns="http://www.w3.org/2000/svg">
<g clip-path="url(#clip0_425_24)">
<path d="M232 0C192.2 0 160 32.2 160 72V80H72C32.2 80 0 112.2 0 152V440C0 479.8 32.2 512 72 512H72.2H72.4H72.6H72.8H73H73.2H73.4H73.6H73.8H74H74.2H74.4H74.6H74.8H75H75.2H75.4H75.6H75.8H76H76.2H76.4H76.6H76.8H77H77.2H77.4H77.6H77.8H78H78.2H78.4H78.6H78.8H79H79.2H79.4H79.6H79.8H80H80.2H80.4H80.6H80.8H81H81.2H81.4H81.6H81.8H82H82.2H82.4H82.6H82.8H83H83.2H83.4H83.6H83.8H84H84.2H84.4H84.6H84.8H85H85.2H85.4H85.6H85.8H86H86.2H86.4H86.6H86.8H87H87.2H87.4H87.6H87.8H88H88.2H88.4H88.6H88.8H89H89.2H89.4H89.6H89.8H90H90.2H90.4H90.6H90.8H91H91.2H91.4H91.6H91.8H92H92.2H92.4H92.6H92.8H93H93.2H93.4H93.6H93.8H94H94.2H94.4H94.6H94.8H95H95.2H95.4H95.6H95.8H96H96.2H96.4H96.6H96.8H97H97.2H97.4H97.6H97.8H98H98.2H98.4H98.6H98.8H99H99.2H99.4H99.6H99.8H100H100.2H100.4H100.6H100.8H101H101.2H101.4H101.6H101.8H102H102.2H102.4H102.6H102.8H103H103.2H103.4H103.6H103.8H104H104.2H104.4H104.6H104.8H105H105.2H105.4H105.6H105.8H106H106.2H106.4H106.6H106.8H107H107.2H107.4H107.6H107.8H108H108.2H108.4H108.6H108.8H109H109.2H109.4H109.6H109.8H110H110.2H110.4H110.6H110.8H111H111.2H111.4H111.6H111.8H112H112.2H112.4H112.6H112.8H113H113.2H113.4H113.6H113.8H114H114.2H114.4H114.6H114.8H115H115.2H115.4H115.6H115.8H116H116.2H116.4H116.6H116.8H117H117.2H117.4H117.6H117.8H118H118.2H118.4H118.6H118.8H119H119.2H119.4H119.6H119.8H120H120.2H120.4H120.6H120.8H121H121.2H121.4H121.6H121.8H122H122.2H122.4H122.6H122.8H123H123.2H123.4H123.6H123.8H124H124.2H124.4H124.6H124.8H125H125.2H125.4H125.6H125.8H126H126.2H126.4H126.6H126.8H127H127.2H127.4H127.6H127.8H128H128.2H128.4H128.6H128.8H129H129.2H129.4H129.6H129.8H130H130.2H130.4H130.6H130.8H131H131.2H131.4H131.6H131.8H132H132.2H132.4H132.6H132.8H133H133.2H133.4H133.6H133.8H134H134.2H134.4H134.6H134.8H135H135.2H135.4H135.6H135.8H136H136.2H136.4H136.6H136.8H137H137.2H137.4H137.6H137.8H138H138.2H138.4H138.6H138.8H139H139.2H139.4H139.6H139.8H140H140.2H140.4H140.6H140.8H141H141.2H141.4H141.6H141.8H142H142.2H142.4H142.6H142.8H143H143.2H143.4H143.6H143.8H144H144.2H144.4H144.6H144.8H145H145.2H145.4H145.6H145.8H146H146.2H146.4H146.6H146.8H147H147.2H147.4H147.6H147.8H148H148.2H148.4H148.6H148.8H149H149.2H149.4H149.6H149.8H150H150.2H150.4H150.6H150.8H151H151.2H151.4H151.6H151.8H152H152.2H152.4H152.6H152.8H153H153.2H153.4H153.6H153.8H154H154.2H154.4H154.6H154.8H155H155.2H155.4H155.6H155.8H156H156.2H156.4H156.6H156.8H157H157.2H157.4H157.6H157.8H158H158.2H158.4H158.6H158.8H159H159.2H159.4H159.6H159.8H160H160.2H160.4H160.6H160.8H161H161.2H161.4H161.6H161.8H162H162.2H162.4H162.6H162.8H163H163.2H163.4H163.6H163.8H164H164.2H164.4H164.6H164.8H165H165.2H165.4H165.6H165.8H166H166.2H166.4H166.6H166.8H167H167.2H167.4H167.6H167.8H168H168.2H168.4H168.6H168.8H169H169.2H169.4H169.6H169.8H170H170.2H170.4H170.6H170.8H171H171.2H171.4H171.6H171.8H172H172.2H172.4H172.6H172.8H173H173.2H456H464H568C607.8 512 640 479.8 640 440V152C640 112.2 607.8 80 568 80H480V72C480 32.2 447.8 0 408 0H232ZM480 128H568C581.3 128 592 138.7 592 152V192H536C522.7 192 512 202.7 512 216C512 229.3 522.7 240 536 240H592V288H536C522.7 288 512 298.7 512 312C512 325.3 522.7 336 536 336H592V440C592 453.3 581.3 464 568 464H480V336V128ZM72 128H160V464H159.9H159.7H159.5H159.3H159H158.8H158.6H158.4H158H157.8H157.6H157.4H157.2H157H156.8H156.6H156.4H156.2H156H155.8H155.6H155.4H155.2H155H154.8H154H153.8H153.6H153.4H153H152.8H152.6H152.4H152.2H152H151.8H151.6H151.4H151.2H151H150.8H150.6H150H149.8H149.6H149.4H149H148.8H148.6H148.4H148.2H148H147.8H147.6H147.4H147.2H147H146.8H146.6H146H145.8H145.6H145.4H145H144.8H144.6H144.4H144.2H144H143.8H143.6H143.4H143.2H143H142.8H142.6H142H141.8H141.6H141.4H141.2H141H140.8H140.6H140.4H140.2H140H139.8H139.6H139H138.8H138.6H138.4H138.2H138H137.8H137.6H137.4H137.2H137H136.8H136.6H136H135.8H135.6H135.4H135.2H135H134.8H134.6H134.4H134.2H134H133.8H133.6H133H132.8H132.6H132.4H132.2H132H131.8H131.6H131.4H131H130.8H130.6H130.4H130.2H130H129.8H129.6H129.4H129.2H129H128.8H128.6H128H127.8H127.6H127.4H127.2H127H126.8H126.6H126.4H126H125.8H125.6H125.4H125.2H125H124.8H124.6H124.4H124H123.8H123.6H123.4H123.2H123H122.8H122.6H122.4H122H121.8H121.6H121.4H121.2H121H120.8H120.6H120.4H120H119.8H119.6H119.4H119.2H119H118.8H118.6H118.4H118H117.8H117.6H117.4H117.2H117H116.8H116.6H116.4H116H115.8H115.6H115.4H115.2H115H114.8H114.6H114.4H114H113.8H113.6H113.4H113.2H113H112.8H112.6H112.4H112.2H112H111.8H111.6H111.4H111H110.8H110.6H110.4H110.2H110H109.8H109.6H109.4H109.2H109H108.8H108.6H108.4H108H107.8H107.6H107.4H107.2H107H106.8H106.6H106.4H106.2H106H105.8H105.6H105.4H105H104.8H104.6H104.4H104.2H104H103.8H103.6H103.4H103.2H103H102.8H102.6H102.4H102.2H102H101.8H101.6H101.4H101.2H101H100.8H100.6H100.4H100H99.8H99.6H99.4H99.2H99H98.8H98.6H98.4H98.2H98H97.8H97.6H97.4H97.2H97H96.8H96.6H96.4H96.2H96H95.8H95.6H95.4H95.2H95H94.8H94.6H94.4H94.2H94H93.8H93.6H93.4H93.2H93H92.8H92.6H92.4H92.2H92H91.8H91.6H91.4H91.2H91H90.8H90.6H90.4H90.2H90H89.8H89.6H89.4H89.2H89H88.8H88.6H88.4H88.2H88H87.8H87.6H87.4H87.2H87H86.8H86.6H86.4H86.2H86H85.8H85.6H85.4H85.2H85H84.8H84.6H84.4H84.2H84H83.8H83.6H83.4H83.2H83H82.8H82.6H82.4H82.2H82H81.8H81.6H81.4H81.2H81H80.8H80.6H80.4H80.2H80H79.8H79.6H79.4H79.2H79H78.8H78.6H78.4H78.2H78H77.8H77.6H77.4H77.2H77H76.8H76.6H76.4H76.2H76H75.8H75.6H75.4H75.2H75H74.8H74.6H74.4H74.2H74H73.8H73.6H73.4H73.2H73H72.8H72.6H72.4H72.2H72C58.8 464 48 453.3 48 440V336H104C117.3 336 128 325.3 128 312C128 298.7 117.3 288 104 288H48V240H104C117.3 240 128 229.3 128 216C128 202.7 117.3 192 104 192H48V152C48 138.7 58.7 128 72 128ZM208 72C208 58.7 218.7 48 232 48H408C421.3 48 432 58.7 432 72V336V464H368V400C368 373.5 346.5 352 320 352C293.5 352 272 373.5 272 400V464H208V72ZM296 96V120H272C263.2 120 256 127.2 256 136V152C256 160.8 263.2 168 272 168H296V192C296 200.8 303.2 208 312 208H328C336.8 208 344 200.8 344 192V168H368C376.8 168 384 160.8 384 152V136C384 127.2 376.8 120 368 120H344V96C344 87.2 336.8 80 328 80H312C303.2 80 296 87.2 296 96Z" fill="white"/>
</g>
<defs>
<clipPath id="clip0_425_24">
<rect width="640" height="512" fill="white"/>
</clipPath>
</defs>
</svg>
