<svg viewBox="0 0 640 512" xmlns="http://www.w3.org/2000/svg"><path d="m232 0c-39.8 0-72 32.2-72 72v8h-88c-39.8 0-72 32.2-72 72v288c0 39.8 32.2 72 72 72h.2.2.2.2.2.2.2.2.2.2.2.2.2.2.2.2.2.2.2.2.2.2.2.2.2.2.2.2.2.2.2.2.2.2.2.2.2.2.2.2.2.2.2.2.2.2.2.2.2.2.2.2.2.2.2.2.2.2.2.2.2.2.2.2.2.2.2.2.2.2.2.2.2.2.2.2.2.2.2.2.2.2.2.2.2.2.2.2.2.2.2.2.2.2.2.2.2.2.2.2.2.2.2.2.2.2.2.2.2.2.2.2.2.2.2.2.2.2.2.2.2.2.2.2.2.2.2.2.2.2.2.2.2.2.2.2.2.2.2.2.2.2.2.2.2.2.2.2.2.2.2.2.2.2.2.2.2.2.2.2.2.2.2.2.2.2.2.2.2.2.2.2.2.2.2.2.2.2.2.2.2.2.2.2.2.2.2.2.2.2.2.2.2.2.2.2.2.2.2.2.2.2.2.2.2.2.2.2.2.2.2.2.2.2.2.2.2.2.2.2.2.2.2.2.2.2.2.2.2.2.2.2.2.2.2.2.2.2.2.2.2.2.2.2.2.2.2.2.2.2.2.2.2.2.2.2.2.2.2.2.2.2.2.2.2.2.2.2.2.2.2.2.2.2.2.2.2.2.2.2.2.2.2.2.2.2.2.2.2.2.2.2.2.2.2.2.2.2.2.2.2.2.2.2.2.2.2.2.2.2.2.2.2.2.2.2.2.2.2.2.2.2.2.2.2.2.2.2.2.2.2.2.2.2.2.2.2.2.2.2.2.2.2.2.2.2.2.2.2.2.2.2.2.2.2.2.2.2.2.2.2.2.2.2.2.2.2.2.2.2.2.2.2.2.2.2.2.2.2.2.2.2.2.2.2.2.2.2.2.2.2.2.2.2.2.2.2.2.2.2.2.2.2.2.2.2.2.2.2.2.2.2.2.2.2.2.2.2.2.2.2.2.2.2.2.2.2.2.2.2.2.2.2.2.2.2.2.2.2.2.2.2.2.2.2.2.2.2.2.2.2.2.2.2.2.2.2.2.2.2.2.2.2.2.2.2.2.2.2.2.2.2.2.2.2.2.2.2.2.2.2.2.2.2.2.2.2.2.2.2.2.2.2.2.2.2.2.2.2.2.2.2.2.2.2.2 282.8 8 104c39.8 0 72-32.2 72-72v-288c0-39.8-32.2-72-72-72h-88v-8c0-39.8-32.2-72-72-72zm248 128h88c13.3 0 24 10.7 24 24v40h-56c-13.3 0-24 10.7-24 24s10.7 24 24 24h56v48h-56c-13.3 0-24 10.7-24 24s10.7 24 24 24h56v104c0 13.3-10.7 24-24 24h-88v-128zm-408 0h88v336h-.1-.2-.2-.2-.3-.2-.2-.2-.4-.2-.2-.2-.2-.2-.2-.2-.2-.2-.2-.2-.2-.2-.2-.2-.2-.8-.2-.2-.2-.4-.2-.2-.2-.2-.2-.2-.2-.2-.2-.2-.2-.2-.6-.2-.2-.2-.4-.2-.2-.2-.2-.2-.2-.2-.2-.2-.2-.2-.2-.6-.2-.2-.2-.4-.2-.2-.2-.2-.2-.2-.2-.2-.2-.2-.2-.2-.6-.2-.2-.2-.2-.2-.2-.2-.2-.2-.2-.2-.2-.6-.2-.2-.2-.2-.2-.2-.2-.2-.2-.2-.2-.2-.6-.2-.2-.2-.2-.2-.2-.2-.2-.2-.2-.2-.2-.6-.2-.2-.2-.2-.2-.2-.2-.2-.4-.2-.2-.2-.2-.2-.2-.2-.2-.2-.2-.2-.2-.6-.2-.2-.2-.2-.2-.2-.2-.2-.4-.2-.2-.2-.2-.2-.2-.2-.2-.4-.2-.2-.2-.2-.2-.2-.2-.2-.4-.2-.2-.2-.2-.2-.2-.2-.2-.4-.2-.2-.2-.2-.2-.2-.2-.2-.4-.2-.2-.2-.2-.2-.2-.2-.2-.4-.2-.2-.2-.2-.2-.2-.2-.2-.4-.2-.2-.2-.2-.2-.2-.2-.2-.2-.2-.2-.2-.2-.4-.2-.2-.2-.2-.2-.2-.2-.2-.2-.2-.2-.2-.2-.4-.2-.2-.2-.2-.2-.2-.2-.2-.2-.2-.2-.2-.2-.4-.2-.2-.2-.2-.2-.2-.2-.2-.2-.2-.2-.2-.2-.2-.2-.2-.2-.2-.2-.2-.2-.2-.2-.4-.2-.2-.2-.2-.2-.2-.2-.2-.2-.2-.2-.2-.2-.2-.2-.2-.2-.2-.2-.2-.2-.2-.2-.2-.2-.2-.2-.2-.2-.2-.2-.2-.2-.2-.2-.2-.2-.2-.2-.2-.2-.2-.2-.2-.2-.2-.2-.2-.2-.2-.2-.2-.2-.2-.2-.2-.2-.2-.2-.2-.2-.2-.2-.2-.2-.2-.2-.2-.2-.2-.2-.2-.2-.2-.2-.2-.2-.2-.2-.2-.2-.2-.2-.2-.2-.2-.2-.2-.2-.2-.2-.2-.2-.2-.2-.2-.2-.2-.2-.2-.2-.2-.2-.2-.2-.2-.2-.2-.2-.2-.2-.2-.2-.2-.2-.2-.2-.2-.2-.2-.2-.2-.2-.2-.2-.2-.2-.2-.2-.2-.2-.2-.2-.2-.2-.2-.2-.2-.2-.2c-13.2 0-24-10.7-24-24v-104h56c13.3 0 24-10.7 24-24s-10.7-24-24-24h-56v-48h56c13.3 0 24-10.7 24-24s-10.7-24-24-24h-56v-40c0-13.3 10.7-24 24-24zm136-56c0-13.3 10.7-24 24-24h176c13.3 0 24 10.7 24 24v264 128h-64v-64c0-26.5-21.5-48-48-48s-48 21.5-48 48v64h-64zm88 24v24h-24c-8.8 0-16 7.2-16 16v16c0 8.8 7.2 16 16 16h24v24c0 8.8 7.2 16 16 16h16c8.8 0 16-7.2 16-16v-24h24c8.8 0 16-7.2 16-16v-16c0-8.8-7.2-16-16-16h-24v-24c0-8.8-7.2-16-16-16h-16c-8.8 0-16 7.2-16 16z"/></svg>