<svg fill="none" height="512" viewBox="0 0 576 512" width="576" xmlns="http://www.w3.org/2000/svg" xmlns:xlink="http://www.w3.org/1999/xlink"><clipPath id="a"><path d="m0 0h576v512h-576z"/></clipPath><g clip-path="url(#a)"><path d="m272.5 5.7c9-7.6 22.1-7.6 31.1 0l264 224c10.1 8.6 11.4 23.7 2.8 33.8s-23.7 11.3-33.8 2.8l-24.6-20.8v186.5c0 44.2-35.8 80-80 80h-288c-44.2 0-80-35.8-80-80v-186.5l-24.5 20.8c-10.1 8.6-25.3 7.3-33.80005-2.8-8.5-10.1-7.3-25.3 2.80001-33.8zm15.5 49.8-176 149.3v227.2c0 17.7 14.3 32 32 32h288c17.7 0 32-14.3 32-32v-227.2zm-32 152.5c0-8.8 7.2-16 16-16h32c8.8 0 16 7.2 16 16v48h48c8.8 0 16 7.2 16 16v32c0 8.8-7.2 16-16 16h-48v48c0 8.8-7.2 16-16 16h-32c-8.8 0-16-7.2-16-16v-48h-48c-8.8 0-16-7.2-16-16v-32c0-8.8 7.2-16 16-16h48z" fill="#fff"/></g></svg>