<svg width="576" height="512" viewBox="0 0 576 512" fill="none" xmlns="http://www.w3.org/2000/svg">
<g clip-path="url(#clip0_424_16)">
<path d="M272.5 5.7C281.5 -1.9 294.6 -1.9 303.6 5.7L567.6 229.7C577.7 238.3 579 253.4 570.4 263.5C561.8 273.6 546.7 274.8 536.6 266.3L512 245.5V432C512 476.2 476.2 512 432 512H144C99.8 512 64 476.2 64 432V245.5L39.5 266.3C29.4 274.9 14.2 273.6 5.69995 263.5C-2.80005 253.4 -1.60005 238.2 8.49996 229.7L272.5 5.7ZM288 55.5L112 204.8V432C112 449.7 126.3 464 144 464H432C449.7 464 464 449.7 464 432V204.8L288 55.5ZM256 208C256 199.2 263.2 192 272 192H304C312.8 192 320 199.2 320 208V256H368C376.8 256 384 263.2 384 272V304C384 312.8 376.8 320 368 320H320V368C320 376.8 312.8 384 304 384H272C263.2 384 256 376.8 256 368V320H208C199.2 320 192 312.8 192 304V272C192 263.2 199.2 256 208 256H256V208Z" fill="white"/>
</g>
<defs>
<clipPath id="clip0_424_16">
<rect width="576" height="512" fill="white"/>
</clipPath>
</defs>
</svg>
