<svg width="512" height="512" viewBox="0 0 512 512" fill="none" xmlns="http://www.w3.org/2000/svg">
<path d="M40 48C26.7 48 16 58.7 16 72V120C16 133.3 26.7 144 40 144H88C101.3 144 112 133.3 112 120V72C112 58.7 101.3 48 88 48H40ZM184 72C170.7 72 160 82.7 160 96C160 109.3 170.7 120 184 120H488C501.3 120 512 109.3 512 96C512 82.7 501.3 72 488 72H184ZM184 232C170.7 232 160 242.7 160 256C160 269.3 170.7 280 184 280H488C501.3 280 512 269.3 512 256C512 242.7 501.3 232 488 232H184ZM184 392C170.7 392 160 402.7 160 416C160 429.3 170.7 440 184 440H488C501.3 440 512 429.3 512 416C512 402.7 501.3 392 488 392H184ZM16 232V280C16 293.3 26.7 304 40 304H88C101.3 304 112 293.3 112 280V232C112 218.7 101.3 208 88 208H40C26.7 208 16 218.7 16 232ZM40 368C26.7 368 16 378.7 16 392V440C16 453.3 26.7 464 40 464H88C101.3 464 112 453.3 112 440V392C112 378.7 101.3 368 88 368H40Z" fill="white"/>
</svg>
