<svg fill="none" height="512" viewBox="0 0 512 512" width="512" xmlns="http://www.w3.org/2000/svg"><path d="m40 48c-13.3 0-24 10.7-24 24v48c0 13.3 10.7 24 24 24h48c13.3 0 24-10.7 24-24v-48c0-13.3-10.7-24-24-24zm144 24c-13.3 0-24 10.7-24 24s10.7 24 24 24h304c13.3 0 24-10.7 24-24s-10.7-24-24-24zm0 160c-13.3 0-24 10.7-24 24s10.7 24 24 24h304c13.3 0 24-10.7 24-24s-10.7-24-24-24zm0 160c-13.3 0-24 10.7-24 24s10.7 24 24 24h304c13.3 0 24-10.7 24-24s-10.7-24-24-24zm-168-160v48c0 13.3 10.7 24 24 24h48c13.3 0 24-10.7 24-24v-48c0-13.3-10.7-24-24-24h-48c-13.3 0-24 10.7-24 24zm24 136c-13.3 0-24 10.7-24 24v48c0 13.3 10.7 24 24 24h48c13.3 0 24-10.7 24-24v-48c0-13.3-10.7-24-24-24z" fill="#fff"/></svg>