<svg width="448" height="512" viewBox="0 0 448 512" fill="none" xmlns="http://www.w3.org/2000/svg">
<g clip-path="url(#clip0_418_10)">
<path d="M144 128V192H304V128C304 83.8 268.2 48 224 48C179.8 48 144 83.8 144 128ZM96 192V128C96 57.3 153.3 0 224 0C294.7 0 352 57.3 352 128V192H384C419.3 192 448 220.7 448 256V448C448 483.3 419.3 512 384 512H64C28.7 512 0 483.3 0 448V256C0 220.7 28.7 192 64 192H96ZM48 256V448C48 456.8 55.2 464 64 464H384C392.8 464 400 456.8 400 448V256C400 247.2 392.8 240 384 240H64C55.2 240 48 247.2 48 256Z" fill="white"/>
</g>
<defs>
<clipPath id="clip0_418_10">
<rect width="448" height="512" fill="white"/>
</clipPath>
</defs>
</svg>
