<svg width="560" height="512" viewBox="0 0 560 512" fill="none" xmlns="http://www.w3.org/2000/svg">
<path d="M432 48C387.8 48 352 83.8 352 128V192H384C419.3 192 448 220.7 448 256V448C448 483.3 419.3 512 384 512H64C28.7 512 0 483.3 0 448V256C0 220.7 28.7 192 64 192H304V128C304 57.3 361.3 0 432 0C502.7 0 560 57.3 560 128V200C560 213.3 549.3 224 536 224C522.7 224 512 213.3 512 200V128C512 83.8 476.2 48 432 48ZM384 240H64C55.2 240 48 247.2 48 256V448C48 456.8 55.2 464 64 464H384C392.8 464 400 456.8 400 448V256C400 247.2 392.8 240 384 240ZM256 376H192C178.7 376 168 365.3 168 352C168 338.7 178.7 328 192 328H256C269.3 328 280 338.7 280 352C280 365.3 269.3 376 256 376Z" fill="white"/>
</svg>
