<svg fill="none" height="512" viewBox="0 0 560 512" width="560" xmlns="http://www.w3.org/2000/svg"><path d="m432 48c-44.2 0-80 35.8-80 80v64h32c35.3 0 64 28.7 64 64v192c0 35.3-28.7 64-64 64h-320c-35.3 0-64-28.7-64-64v-192c0-35.3 28.7-64 64-64h240v-64c0-70.7 57.3-128 128-128s128 57.3 128 128v72c0 13.3-10.7 24-24 24s-24-10.7-24-24v-72c0-44.2-35.8-80-80-80zm-48 192h-320c-8.8 0-16 7.2-16 16v192c0 8.8 7.2 16 16 16h320c8.8 0 16-7.2 16-16v-192c0-8.8-7.2-16-16-16zm-128 136h-64c-13.3 0-24-10.7-24-24s10.7-24 24-24h64c13.3 0 24 10.7 24 24s-10.7 24-24 24z" fill="#fff"/></svg>