<svg width="448" height="448" viewBox="0 0 448 448" fill="none" xmlns="http://www.w3.org/2000/svg">
<path d="M312 0C298.7 0 288 10.7 288 24C288 37.3 298.7 48 312 48H366.1L282.4 131.7C252.8 109.3 215.9 96 176 96C78.8 96 0 174.8 0 272C0 369.2 78.8 448 176 448C273.2 448 352 369.2 352 272C352 232.1 338.7 195.2 316.3 165.7L400 81.9V136C400 149.3 410.7 160 424 160C437.3 160 448 149.3 448 136V24C448 10.7 437.3 0 424 0H312ZM48 272C48 238.052 61.4857 205.495 85.4903 181.49C109.495 157.486 142.052 144 176 144C209.948 144 242.505 157.486 266.51 181.49C290.514 205.495 304 238.052 304 272C304 305.948 290.514 338.505 266.51 362.51C242.505 386.514 209.948 400 176 400C142.052 400 109.495 386.514 85.4903 362.51C61.4857 338.505 48 305.948 48 272Z" fill="white"/>
</svg>
