<svg fill="none" height="448" viewBox="0 0 448 448" width="448" xmlns="http://www.w3.org/2000/svg"><path d="m312 0c-13.3 0-24 10.7-24 24s10.7 24 24 24h54.1l-83.7 83.7c-29.6-22.4-66.5-35.7-106.4-35.7-97.2 0-176 78.8-176 176s78.8 176 176 176 176-78.8 176-176c0-39.9-13.3-76.8-35.7-106.3l83.7-83.8v54.1c0 13.3 10.7 24 24 24s24-10.7 24-24v-112c0-13.3-10.7-24-24-24zm-264 272c0-33.948 13.4857-66.505 37.4903-90.51 24.0047-24.004 56.5617-37.49 90.5097-37.49s66.505 13.486 90.51 37.49c24.004 24.005 37.49 56.562 37.49 90.51s-13.486 66.505-37.49 90.51c-24.005 24.004-56.562 37.49-90.51 37.49s-66.505-13.486-90.5097-37.49c-24.0046-24.005-37.4903-56.562-37.4903-90.51z" fill="#fff"/></svg>