<svg fill="none" height="16" viewBox="0 0 18 16" width="18" xmlns="http://www.w3.org/2000/svg" xmlns:xlink="http://www.w3.org/1999/xlink"><clipPath id="a"><path d="m0 0h18v16h-18z"/></clipPath><g clip-path="url(#a)"><path d="m12.75 3.75c0 .26875-.0562.57188-.1562.89375-.1782.575-.4875 1.2125-.8563 1.85l-.0031.00625c-.0969.16875-.1969.33437-.3.5-.1375.21875-.2782.4375-.4219.65l-.0125.01875c-.5656.84062-1.14688 1.59687-1.5375 2.08125-.24063.3-.6875.3-.925 0-.3875-.48438-.97187-1.24063-1.5375-2.08125-.575-.85313-1.13437-1.79688-1.45937-2.6375-.025-.06562-.05001-.13125-.07188-.19688-.1375-.39375-.21875-.7625-.21875-1.08125 0-.14687.00938-.29062.025-.43124.2125-1.87188 1.8-3.32188 3.725-3.32188 2.0719 0 3.75 1.67812 3.75 3.75zm-1.75 5.64375c.4219-.56875.9-1.24688 1.3344-1.95.0562-.09063.1125-.18125.1656-.275v7.00935l4-1.4531v-7.90312l-3.3969 1.23437c.0688-.14687.1375-.29062.1969-.4375.1844-.4375.3437-.9125.4125-1.38125l3.2812-1.19375c.2313-.08437.4875-.05.6875.09063.2.14062.3188.36874.3188.61562v9.5c0 .3156-.1969.5969-.4937.7063l-5.5 2c-.1657.0593-.3469.0593-.5126 0l-5.2437-1.9094-5.24375 1.9062c-.23125.0844-.4875.05-.6875-.0906-.2-.1406-.31875-.3687-.31875-.6125v-9.5c0-.31563.196875-.59688.49375-.70625l3.75625-1.36563v.07188c0 .47188.11562.95938.27812 1.425l-3.02812 1.1v7.9031l4-1.4531v-5.55312c.05625.09374.10938.18437.16563.275.43437.70312.90937 1.38125 1.33437 1.95v3.32812l4 1.4531zm-2-4.64375c.33152 0 .64946-.1317.88388-.36612s.36612-.55236.36612-.88388-.1317-.64946-.36612-.88388-.55236-.36612-.88388-.36612-.64946.1317-.88388.36612-.36612.55236-.36612.88388.1317.64946.36612.88388.55236.36612.88388.36612z" fill="#fff"/></g></svg>