<svg height="16" viewBox="0 0 576 512" width="18" xmlns="http://www.w3.org/2000/svg"><path d="m408 120c0 8.6-1.8 18.3-5 28.6-5.7 18.4-15.6 38.8-27.4 59.2l-.1.2c-3.1 5.4-6.3 10.7-9.6 16-4.4 7-8.9 14-13.5 20.8l-.4.6c-18.1 26.9-36.7 51.1-49.2 66.6-7.7 9.6-22 9.6-29.6 0-12.4-15.5-31.1-39.7-49.2-66.6-18.4-27.3-36.3-57.5-46.7-84.4-.8-2.1-1.6-4.2-2.3-6.3-4.4-12.6-7-24.4-7-34.6 0-4.7.3-9.3.8-13.8 6.8-59.9 57.6-106.3 119.2-106.3 66.3 0 120 53.7 120 120zm-56 180.6c13.5-18.2 28.8-39.9 42.7-62.4 1.8-2.9 3.6-5.8 5.3-8.8v224.3l128-46.5v-252.9l-108.7 39.5c2.2-4.7 4.4-9.3 6.3-14 5.9-14 11-29.2 13.2-44.2l105-38.2c7.4-2.7 15.6-1.6 22 2.9s10.2 11.8 10.2 19.7v304c0 10.1-6.3 19.1-15.8 22.6l-176 64c-5.3 1.9-11.1 1.9-16.4 0l-167.8-61.1-167.8 61c-7.4 2.7-15.6 1.6-22-2.9s-10.2-11.8-10.2-19.6v-304c0-10.1 6.3-19.1 15.8-22.6l120.2-43.7v2.3c0 15.1 3.7 30.7 8.9 45.6l-96.9 35.2v252.9l128-46.5v-177.7c1.8 3 3.5 5.9 5.3 8.8 13.9 22.5 29.1 44.2 42.7 62.4v106.5l128 46.5zm-64-148.6a40 40 0 1 0 0-80 40 40 0 1 0 0 80z" fill="#1e3050"/></svg>