<svg height="16" viewBox="0 0 384 512" width="12" xmlns="http://www.w3.org/2000/svg"><path d="m48 48h288v32h-288zm-16-48c-17.7 0-32 14.3-32 32v64c0 17.7 14.3 32 32 32h320c17.7 0 32-14.3 32-32v-64c0-17.7-14.3-32-32-32zm0 160v288c0 35.3 28.7 64 64 64h192c35.3 0 64-28.7 64-64v-288h-48v288c0 8.8-7.2 16-16 16h-192c-8.8 0-16-7.2-16-16v-288zm133.3 80v37.3h-37.3c-8.8 0-16 7.2-16 16v21.3c0 8.8 7.2 16 16 16h37.3v37.4c0 8.8 7.2 16 16 16h21.3c8.8 0 16-7.2 16-16v-37.3h37.4c8.8 0 16-7.2 16-16v-21.4c0-8.8-7.2-16-16-16h-37.3v-37.3c0-8.8-7.2-16-16-16h-21.4c-8.8 0-16 7.2-16 16z"/></svg>