<svg fill="none" height="16" viewBox="0 0 12 16" width="12" xmlns="http://www.w3.org/2000/svg" xmlns:xlink="http://www.w3.org/1999/xlink"><clipPath id="a"><path d="m0 0h12v16h-12z"/></clipPath><g clip-path="url(#a)"><path d="m1.5 1.5h9v1h-9zm-.5-1.5c-.553125 0-1 .446875-1 1v2c0 .55313.446875 1 1 1h10c.5531 0 1-.44687 1-1v-2c0-.553125-.4469-1-1-1zm0 5v9c0 1.1031.89688 2 2 2h6c1.1031 0 2-.8969 2-2v-9h-1.5v9c0 .275-.225.5-.5.5h-6c-.275 0-.5-.225-.5-.5v-9zm4.16563 2.5v1.16562h-1.16563c-.275 0-.5.225-.5.5v.66563c0 .27505.225.50005.5.50005h1.16563v1.1687c0 .275.225.5.5.5h.66562c.275 0 .5-.225.5-.5v-1.1656h1.16875c.275 0 .5-.225.5-.50002v-.66876c0-.275-.225-.5-.5-.5h-1.16563v-1.16562c0-.275-.225-.5-.5-.5h-.66874c-.275 0-.5.225-.5.5z" fill="#fff"/></g></svg>