<svg fill="none" height="512" viewBox="0 0 512 512" width="512" xmlns="http://www.w3.org/2000/svg" xmlns:xlink="http://www.w3.org/1999/xlink"><clipPath id="a"><path d="m0 0h512v512h-512z"/></clipPath><g clip-path="url(#a)"><path d="m193.9 189.7c-32.3 10.6-70.1-15.6-84.4-58.5-14.3001-42.9.3-86.2 32.6-96.8s70.1 15.6 84.4 58.5-.3 86.2-32.6 96.8zm217.7 8.9c18.9-32.4 54-47.3 78.5-33.3s29.1 51.7 10.2 84.1-54 47.3-78.5 33.3-29.1-51.7-10.2-84.1zm-311.3 0c18.9 32.4 14.3 70.1-10.2001 84.1-24.5 14-59.7-.9-78.5-33.3-18.79995-32.4-14.29995-70.1 10.2-84.1 24.5-14 59.7001.9 78.5001 33.3zm177.2-105.7c14.3-42.9 52.1-69.1 84.4-58.5s46.9 53.9 32.6 96.8-52.1 69.1-84.4 58.5-46.9-53.9-32.6-96.8zm-163.2 316.8c-1.4 3.7-2.3 8.5-2.3 14.2 0 4.5 3.6 8.1 8.1 8.1h3.4c2.2 0 4.3-.4 6.3-1.2l72.7-29.1c34.3-13.7 72.6-13.7 107 0l72.7 29.1c2 .8 4.2 1.2 6.3 1.2h3.4c4.5 0 8.1-3.6 8.1-8.1 0-5.7-.9-10.4-2.3-14.2-45.6-122.3-121.1-137.7-141.7-137.7s-96.1 15.4-141.7 137.7zm-45.0001-16.7c52.4001-140.6 145.5001-169 186.7001-169s134.3 28.4 186.7 169c3.7 9.9 5.3 20.4 5.3 31 0 31-25.1 56.1-56.1 56.1h-3.4c-8.3 0-16.5-1.6-24.2-4.7l-72.7-29.1c-22.9-9.2-48.4-9.2-71.3 0l-72.7 29.1c-7.7 3.1-15.9 4.7-24.2 4.7h-3.4c-31.0001 0-56.1001-25.1-56.1001-56.1 0-10.5 1.6-21.1 5.3-31z" fill="#fff"/></g></svg>