<svg width="512" height="512" viewBox="0 0 512 512" fill="none" xmlns="http://www.w3.org/2000/svg">
<g clip-path="url(#clip0_425_20)">
<path d="M193.9 189.7C161.6 200.3 123.8 174.1 109.5 131.2C95.1999 88.3 109.8 45 142.1 34.4C174.4 23.8 212.2 50 226.5 92.9C240.8 135.8 226.2 179.1 193.9 189.7ZM411.6 198.6C430.5 166.2 465.6 151.3 490.1 165.3C514.6 179.3 519.2 217 500.3 249.4C481.4 281.8 446.3 296.7 421.8 282.7C397.3 268.7 392.7 231 411.6 198.6ZM100.3 198.6C119.2 231 114.6 268.7 90.0999 282.7C65.5999 296.7 30.3999 281.8 11.5999 249.4C-7.20005 217 -2.70005 179.3 21.7999 165.3C46.2999 151.3 81.5 166.2 100.3 198.6ZM277.5 92.9C291.8 50 329.6 23.8 361.9 34.4C394.2 45 408.8 88.3 394.5 131.2C380.2 174.1 342.4 200.3 310.1 189.7C277.8 179.1 263.2 135.8 277.5 92.9ZM114.3 409.7C112.9 413.4 112 418.2 112 423.9C112 428.4 115.6 432 120.1 432H123.5C125.7 432 127.8 431.6 129.8 430.8L202.5 401.7C236.8 388 275.1 388 309.5 401.7L382.2 430.8C384.2 431.6 386.4 432 388.5 432H391.9C396.4 432 400 428.4 400 423.9C400 418.2 399.1 413.5 397.7 409.7C352.1 287.4 276.6 272 256 272C235.4 272 159.9 287.4 114.3 409.7ZM69.2999 393C121.7 252.4 214.8 224 256 224C297.2 224 390.3 252.4 442.7 393C446.4 402.9 448 413.4 448 424C448 455 422.9 480.1 391.9 480.1H388.5C380.2 480.1 372 478.5 364.3 475.4L291.6 446.3C268.7 437.1 243.2 437.1 220.3 446.3L147.6 475.4C139.9 478.5 131.7 480.1 123.4 480.1H120C88.9999 480.1 63.8999 455 63.8999 424C63.8999 413.5 65.4999 402.9 69.1999 393H69.2999Z" fill="white"/>
</g>
<defs>
<clipPath id="clip0_425_20">
<rect width="512" height="512" fill="white"/>
</clipPath>
</defs>
</svg>
