<svg width="16" height="16" viewBox="0 0 16 16" fill="none" xmlns="http://www.w3.org/2000/svg">
<g clip-path="url(#clip0_539_4)">
<path d="M1.13753 11.2781L0.418778 13.7188L0.0312776 15.0375C-0.0468474 15.3031 0.0250276 15.5875 0.218778 15.7813C0.412528 15.975 0.696903 16.0469 0.959403 15.9719L2.28128 15.5813L4.7219 14.8625C5.0469 14.7688 5.35003 14.6125 5.61565 14.4094L5.62503 14.4156L5.64065 14.3906C5.6844 14.3563 5.72503 14.3219 5.76565 14.2875C5.8094 14.25 5.85003 14.2094 5.89065 14.1688L15.3969 4.66563C16.0813 3.98125 16.1657 2.92813 15.6532 2.15C15.5813 2.04063 15.4938 1.93438 15.3969 1.8375L14.1657 0.603127C13.3844 -0.178123 12.1188 -0.178123 11.3375 0.603127L1.83128 10.1094C1.75315 10.1875 1.67815 10.2719 1.6094 10.3594L1.5844 10.375L1.59065 10.3844C1.38753 10.65 1.2344 10.9531 1.13753 11.2781ZM11.9688 5.96875L6.16878 11.7688L4.61878 11.3813L4.23128 9.83125L10.0313 4.03125L11.9688 5.96875ZM3.03128 11.2156L3.2719 12.1844C3.33753 12.4531 3.55003 12.6625 3.81878 12.7313L4.78753 12.9719L4.55628 13.3219C4.47503 13.3656 4.39065 13.4031 4.30315 13.4281L3.5719 13.6438L1.85628 14.1438L2.3594 12.4313L2.57503 11.7C2.60003 11.6125 2.63753 11.525 2.68128 11.4469L3.03128 11.2156ZM9.85315 6.83438C10.0469 6.64063 10.0469 6.32188 9.85315 6.12813C9.6594 5.93438 9.34065 5.93438 9.1469 6.12813L6.1469 9.12813C5.95315 9.32188 5.95315 9.64063 6.1469 9.83438C6.34065 10.0281 6.6594 10.0281 6.85315 9.83438L9.85315 6.83438Z" fill="white"/>
</g>
<defs>
<clipPath id="clip0_539_4">
<rect width="16" height="16" fill="white"/>
</clipPath>
</defs>
</svg>
