<svg fill="none" height="16" viewBox="0 0 16 16" width="16" xmlns="http://www.w3.org/2000/svg" xmlns:xlink="http://www.w3.org/1999/xlink"><clipPath id="a"><path d="m0 0h16v16h-16z"/></clipPath><g clip-path="url(#a)"><path d="m1.13753 11.2781-.718752 2.4407-.3875004 1.3187c-.078125.2656-.00625.55.1875004.7438.19375.1937.478125.2656.740625.1906l1.321877-.3906 2.44062-.7188c.325-.0937.62813-.25.89375-.4531l.00938.0062.01562-.025c.04375-.0343.08438-.0687.125-.1031.04375-.0375.08438-.0781.125-.1187l9.50625-9.50317c.6844-.68438.7688-1.7375.2563-2.51563-.0719-.10937-.1594-.21562-.2563-.3125l-1.2312-1.234373c-.7813-.78125-2.0469-.78125-2.8282 0l-9.50622 9.506273c-.07813.0781-.15313.1625-.22188.25l-.025.0156.00625.0094c-.20312.2656-.35625.5687-.45312.8937zm10.83127-5.30935-5.80002 5.80005-1.55-.3875-.3875-1.55005 5.80002-5.8zm-8.93752 5.24685.24062.9688c.06563.2687.27813.4781.54688.5469l.96875.2406-.23125.35c-.08125.0437-.16563.0812-.25313.1062l-.73125.2157-1.71562.5.50312-1.7125.21563-.7313c.025-.0875.0625-.175.10625-.2531zm6.82187-4.38122c.19375-.19375.19375-.5125 0-.70625s-.5125-.19375-.70625 0l-3 3c-.19375.19375-.19375.5125 0 .70625.19375.19372.5125.19372.70625 0z" fill="#fff"/></g></svg>