<svg width="512" height="512" viewBox="0 0 512 512" fill="none" xmlns="http://www.w3.org/2000/svg">
<g clip-path="url(#clip0_662_2)">
<path d="M375.8 275.2C359.4 268.2 340.4 272.8 329.1 286.6L295.9 327.2C249.9 300.5 211.5 262.1 184.8 216.1L225.3 183C239.1 171.7 243.8 152.7 236.7 136.3L188.7 24.3005C181.2 6.70047 162.3 -3.09953 143.6 0.90047L31.6 24.9005C13.2 28.8005 0 45.1005 0 64.0005C0 300.7 183.5 494.5 416 510.9C420.5 511.2 425.1 511.5 429.7 511.7C429.7 511.7 429.7 511.7 429.8 511.7C435.9 511.9 441.9 512.1 448.1 512.1C467 512.1 483.3 498.9 487.2 480.5L511.2 368.5C515.2 349.8 505.4 330.9 487.8 323.4L375.8 275.4V275.2ZM447.7 480C218.1 479.8 32 293.7 32 64.0005C32 60.2005 34.6 57.0005 38.3 56.2005L150.3 32.2005C154 31.4005 157.8 33.4005 159.3 36.9005L207.3 148.9C208.7 152.2 207.8 156 205 158.2L164.4 191.4C152.3 201.3 149.1 218.6 157 232.2C186.5 283.1 228.9 325.5 279.7 354.9C293.3 362.8 310.6 359.6 320.5 347.5L353.7 306.9C356 304.1 359.8 303.2 363 304.6L475 352.6C478.5 354.1 480.5 357.9 479.7 361.6L455.7 473.6C454.9 477.3 451.6 479.9 447.9 479.9C447.8 479.9 447.7 479.9 447.6 479.9L447.7 480Z" fill="white"/>
</g>
<defs>
<clipPath id="clip0_662_2">
<rect width="512" height="512" fill="white"/>
</clipPath>
</defs>
</svg>
