<svg width="512" height="512" viewBox="0 0 512 512" fill="none" xmlns="http://www.w3.org/2000/svg">
<g clip-path="url(#clip0_416_6)">
<path d="M16.0999 260.2C-6.50009 273.1 -4.40009 307.5 19.6999 317.5L160 376V479.3C160 497.4 174.6 512 192.7 512C202.4 512 211.6 507.7 217.8 500.2L279.8 425.9L403.7 477.5C422.6 485.4 444.5 473 447.6 452.8L511.6 36.8C513.5 24.7 508.2 12.5 498.1 5.59998C488 -1.30002 474.8 -1.90002 464.1 4.19998L16.0999 260.2ZM68.1999 285.7L409.7 90.6L190.1 336L191.3 337L68.1999 285.7ZM403.3 425.4L236.7 355.9L450.8 116.6L403.3 425.4Z" fill="white"/>
</g>
<defs>
<clipPath id="clip0_416_6">
<rect width="512" height="512" fill="white"/>
</clipPath>
</defs>
</svg>
