<svg fill="none" height="512" viewBox="0 0 512 512" width="512" xmlns="http://www.w3.org/2000/svg" xmlns:xlink="http://www.w3.org/1999/xlink"><clipPath id="a"><path d="m0 0h512v512h-512z"/></clipPath><g clip-path="url(#a)"><path d="m16.0999 260.2c-22.59999 12.9-20.49999 47.3 3.6 57.3l140.3001 58.5v103.3c0 18.1 14.6 32.7 32.7 32.7 9.7 0 18.9-4.3 25.1-11.8l62-74.3 123.9 51.6c18.9 7.9 40.8-4.5 43.9-24.7l64-416c1.9-12.1-3.4-24.3-13.5-31.20002-10.1-6.9-23.3-7.5-34-1.4zm52.1 25.5 341.5001-195.1-219.6 245.4 1.2 1zm335.1001 139.7-166.6-69.5 214.1-239.3z" fill="#fff"/></g></svg>