<svg fill="none" height="512" viewBox="0 0 320 512" width="320" xmlns="http://www.w3.org/2000/svg"><path d="m64 160c0-44.2 35.8-80 80-80h32c44.2 0 80 35.8 80 80v4.6c0 24.1-12 46.6-32.1 59.9l-52.3 34.9c-22.2 14.8-35.6 39.8-35.6 66.6v2c0 13.3 10.7 24 24 24s24-10.7 24-24v-2c0-10.7 5.3-20.7 14.2-26.6l52.3-34.9c33.4-22.3 53.4-59.7 53.4-99.8v-4.7c0-70.7-57.3-128-128-128h-31.9c-70.7 0-128 57.3-128 128 0 13.3 10.7 24 24 24s24-10.7 24-24zm96 320c8.487 0 16.626-3.371 22.627-9.373 6.002-6.001 9.373-14.14 9.373-22.627s-3.371-16.626-9.373-22.627c-6.001-6.002-14.14-9.373-22.627-9.373s-16.626 3.371-22.627 9.373c-6.002 6.001-9.373 14.14-9.373 22.627s3.371 16.626 9.373 22.627c6.001 6.002 14.14 9.373 22.627 9.373z" fill="#fff"/></svg>