<svg width="320" height="512" viewBox="0 0 320 512" fill="none" xmlns="http://www.w3.org/2000/svg">
<path d="M64 160C64 115.8 99.8 80 144 80H176C220.2 80 256 115.8 256 160V164.6C256 188.7 244 211.2 223.9 224.5L171.6 259.4C149.4 274.2 136 299.2 136 326V328C136 341.3 146.7 352 160 352C173.3 352 184 341.3 184 328V326C184 315.3 189.3 305.3 198.2 299.4L250.5 264.5C283.9 242.2 303.9 204.8 303.9 164.7V160C303.9 89.3 246.6 32 175.9 32H144C73.3 32 16 89.3 16 160C16 173.3 26.7 184 40 184C53.3 184 64 173.3 64 160ZM160 480C168.487 480 176.626 476.629 182.627 470.627C188.629 464.626 192 456.487 192 448C192 439.513 188.629 431.374 182.627 425.373C176.626 419.371 168.487 416 160 416C151.513 416 143.374 419.371 137.373 425.373C131.371 431.374 128 439.513 128 448C128 456.487 131.371 464.626 137.373 470.627C143.374 476.629 151.513 480 160 480Z" fill="white"/>
</svg>
