<svg fill="none" height="512" viewBox="0 0 512 512" width="512" xmlns="http://www.w3.org/2000/svg"><path d="m472 224c13.3 0 24-10.7 24-24v-144c0-13.3-10.7-24-24-24s-24 10.7-24 24v80.1l-20-23.5c-41-49.2-102.9-80.6-172-80.6-123.7 0-224 100.3-224 224s100.3 224 224 224c50.4 0 97-16.7 134.4-44.8 10.6-8 12.7-23 4.8-33.6s-23-12.7-33.6-4.8c-29.4 22.1-65.9 35.2-105.6 35.2-97.2 0-176-78.8-176-176s78.8-176 176-176c54.3 0 102.9 24.6 135.2 63.4l.1.2 27.6 32.4h-90.9c-13.3 0-24 10.7-24 24s10.7 24 24 24z" fill="#fff"/></svg>