<svg width="512" height="512" viewBox="0 0 512 512" fill="none" xmlns="http://www.w3.org/2000/svg">
<path d="M472 224C485.3 224 496 213.3 496 200V56C496 42.7 485.3 32 472 32C458.7 32 448 42.7 448 56V136.1L428 112.6C387 63.4 325.1 32 256 32C132.3 32 32 132.3 32 256C32 379.7 132.3 480 256 480C306.4 480 353 463.3 390.4 435.2C401 427.2 403.1 412.2 395.2 401.6C387.3 391 372.2 388.9 361.6 396.8C332.2 418.9 295.7 432 256 432C158.8 432 80 353.2 80 256C80 158.8 158.8 80 256 80C310.3 80 358.9 104.6 391.2 143.4L391.3 143.6L418.9 176H328C314.7 176 304 186.7 304 200C304 213.3 314.7 224 328 224H472Z" fill="white"/>
</svg>
