<svg fill="none" height="448" viewBox="0 0 512 448" width="512" xmlns="http://www.w3.org/2000/svg"><path d="m352 114.2 110 109.8-110 109.8v-53.8c0-13.3-10.7-24-24-24h-120v-64h120c13.3 0 24-10.7 24-24zm160 109.8c0-11.5-4.6-22.5-12.7-30.6l-116.1-115.8c-8.7-8.7-20.5-13.6-32.8-13.6-25.6 0-46.4 20.8-46.4 46.4v33.6h-96c-26.5 0-48 21.5-48 48v64c0 26.5 21.5 48 48 48h96v33.6c0 25.6 20.8 46.4 46.4 46.4 12.3 0 24.1-4.9 32.8-13.6l116.1-115.8c8.1-8.1 12.7-19.1 12.7-30.6zm-344-176c13.3 0 24-10.7 24-24s-10.7-24-24-24h-80c-48.6 0-88 39.4-88 88v272c0 48.6 39.4 88 88 88h80c13.3 0 24-10.7 24-24s-10.7-24-24-24h-80c-22.1 0-40-17.9-40-40v-272c0-22.1 17.9-40 40-40z" fill="#fff"/></svg>