<svg width="512" height="448" viewBox="0 0 512 448" fill="none" xmlns="http://www.w3.org/2000/svg">
<path d="M352 114.2L462 224L352 333.8V280C352 266.7 341.3 256 328 256H208V192H328C341.3 192 352 181.3 352 168V114.2ZM512 224C512 212.5 507.4 201.5 499.3 193.4L383.2 77.6C374.5 68.9 362.7 64 350.4 64C324.8 64 304 84.8 304 110.4V144H208C181.5 144 160 165.5 160 192V256C160 282.5 181.5 304 208 304H304V337.6C304 363.2 324.8 384 350.4 384C362.7 384 374.5 379.1 383.2 370.4L499.3 254.6C507.4 246.5 512 235.5 512 224ZM168 48C181.3 48 192 37.3 192 24C192 10.7 181.3 0 168 0H88C39.4 0 0 39.4 0 88V360C0 408.6 39.4 448 88 448H168C181.3 448 192 437.3 192 424C192 410.7 181.3 400 168 400H88C65.9 400 48 382.1 48 360V88C48 65.9 65.9 48 88 48H168Z" fill="white"/>
</svg>
