<svg fill="none" height="16" viewBox="0 0 16 16" width="16" xmlns="http://www.w3.org/2000/svg" xmlns:xlink="http://www.w3.org/1999/xlink"><clipPath id="a"><path d="m0 0h16v16h-16z"/></clipPath><g clip-path="url(#a)"><path d="m12.5 12.6906v-3.6906c0-.41563-.3344-.75-.75-.75s-.75.33437-.75.75v4.7688c-.8969.4687-1.91875.7312-3 .7312s-2.10312-.2656-3-.7312v-4.7688c0-.41563-.33437-.75-.75-.75s-.75.33437-.75.75v3.6906c-1.23125-1.1843-2-2.84685-2-4.6906 0-3.59063 2.90937-6.5 6.5-6.5 3.5906 0 6.5 2.90937 6.5 6.5 0 1.84375-.7687 3.5063-2 4.6906zm-4.5 3.3094c2.1217 0 4.1566-.8429 5.6569-2.3431 1.5002-1.5003 2.3431-3.5352 2.3431-5.6569 0-2.12173-.8429-4.15656-2.3431-5.65685-1.5003-1.500295-3.5352-2.34315-5.6569-2.34315-2.12173 0-4.15656.842855-5.65685 2.34315-1.500295 1.50029-2.34315 3.53512-2.34315 5.65685 0 2.1217.842855 4.1566 2.34315 5.6569 1.50029 1.5002 3.53512 2.3431 5.65685 2.3431zm-3.0125-9.125c.33125 0 .62188.11875.79375.30312.2375.25313.63125.26563.88438.02813.25312-.2375.26562-.63125.02812-.88437-.45313-.48438-1.1-.69688-1.70625-.69688s-1.25312.2125-1.70625.69688c-.2375.25312-.22187.64687.02813.88437s.64687.22187.88437-.02813c.17187-.18125.4625-.30312.79375-.30312zm5.2063.30312c.1718-.18125.4625-.30312.7937-.30312.3313 0 .6219.11875.7937.30312.2375.25313.6313.26563.8844.02813s.2657-.63125.0282-.88437c-.4532-.48438-1.1-.69688-1.7063-.69688-.6062 0-1.25312.2125-1.70625.69688-.2375.25312-.22188.64687.02812.88437s.64688.22187.88443-.02813zm-3.6938 2.82188v1c0 .8281.67188 1.5 1.5 1.5s1.5-.6719 1.5-1.5v-1c0-.82812-.67188-1.5-1.5-1.5s-1.5.67188-1.5 1.5z" fill="#fff"/></g></svg>