<svg height="16" viewBox="0 0 512 512" width="16" xmlns="http://www.w3.org/2000/svg"><path d="m400 406.1v-118.1c0-13.3-10.7-24-24-24s-24 10.7-24 24v152.6c-28.7 15-61.4 23.4-96 23.4s-67.3-8.5-96-23.4v-152.6c0-13.3-10.7-24-24-24s-24 10.7-24 24v118.1c-39.4-37.9-64-91.1-64-150.1 0-114.9 93.1-208 208-208s208 93.1 208 208c0 59-24.6 112.2-64 150.1zm-144 105.9a256 256 0 1 0 0-512 256 256 0 1 0 0 512zm-96.4-292c10.6 0 19.9 3.8 25.4 9.7 7.6 8.1 20.2 8.5 28.3.9s8.5-20.2.9-28.3c-14.5-15.5-35.2-22.3-54.6-22.3s-40.1 6.8-54.6 22.3c-7.6 8.1-7.1 20.7.9 28.3s20.7 7.1 28.3-.9c5.5-5.8 14.8-9.7 25.4-9.7zm166.6 9.7c5.5-5.8 14.8-9.7 25.4-9.7s19.9 3.8 25.4 9.7c7.6 8.1 20.2 8.5 28.3.9s8.5-20.2.9-28.3c-14.5-15.5-35.2-22.3-54.6-22.3s-40.1 6.8-54.6 22.3c-7.6 8.1-7.1 20.7.9 28.3s20.7 7.1 28.3-.9zm-118.2 90.3v32c0 26.5 21.5 48 48 48s48-21.5 48-48v-32c0-26.5-21.5-48-48-48s-48 21.5-48 48z"/></svg>