<svg width="20" height="16" viewBox="0 0 20 16" fill="none" xmlns="http://www.w3.org/2000/svg">
<g clip-path="url(#clip0_594_2)">
<path d="M0 5.80625C0 5.60625 0.05 5.40937 0.146875 5.23438L2.575 0.78125C2.8375 0.3 3.34062 0 3.89062 0H16.1094C16.6594 0 17.1625 0.3 17.425 0.78125L19.8531 5.23125C19.95 5.40625 20 5.60312 20 5.80312C20 6.4625 19.4656 6.99687 18.8062 6.99687H18V15.25C18 15.6656 17.6656 16 17.25 16C16.8344 16 16.5 15.6656 16.5 15.25V7H12V14.75C12 15.4406 11.4406 16 10.75 16H3.25C2.55937 16 2 15.4406 2 14.75V7H1.19375C0.534375 7 0 6.46563 0 5.80625ZM3.5 7V10H10.5V7H3.5ZM16.1094 1.5H3.89062L1.70938 5.5H18.2906L16.1094 1.5ZM3.5 14.5H10.5V11.5H3.5V14.5Z" fill="white"/>
</g>
<defs>
<clipPath id="clip0_594_2">
<rect width="20" height="16" fill="white"/>
</clipPath>
</defs>
</svg>
