<svg fill="none" height="16" viewBox="0 0 20 16" width="20" xmlns="http://www.w3.org/2000/svg" xmlns:xlink="http://www.w3.org/1999/xlink"><clipPath id="a"><path d="m0 0h20v16h-20z"/></clipPath><g clip-path="url(#a)"><path d="m0 5.80625c0-.2.05-.39688.146875-.57187l2.428125-4.45313c.2625-.48125.76562-.78125 1.31562-.78125h12.21878c.55 0 1.0531.3 1.3156.78125l2.4281 4.45c.0969.175.1469.37187.1469.57187 0 .65938-.5344 1.19375-1.1938 1.19375h-.8062v8.25313c0 .4156-.3344.75-.75.75s-.75-.3344-.75-.75v-8.25h-4.5v7.75c0 .6906-.5594 1.25-1.25 1.25h-7.5c-.69063 0-1.25-.5594-1.25-1.25v-7.75h-.80625c-.659375 0-1.19375-.53437-1.19375-1.19375zm3.5 1.19375v3h7v-3zm12.6094-5.5h-12.21878l-2.18124 4h16.58122zm-12.6094 13h7v-3h-7z" fill="#000"/></g></svg>