<svg width="512" height="512" viewBox="0 0 512 512" fill="none" xmlns="http://www.w3.org/2000/svg">
<g clip-path="url(#clip0_504_175)">
<path d="M208 416C208 389.5 186.5 368 160 368H64C55.2 368 48 360.8 48 352V64C48 55.2 55.2 48 64 48H448C456.8 48 464 55.2 464 64V352C464 360.8 456.8 368 448 368H309.3C298.9 368 288.8 371.4 280.5 377.6L208 432V416ZM207.8 492.2L208 492L309.3 416H448C483.3 416 512 387.3 512 352V64C512 28.7 483.3 0 448 0H64C28.7 0 0 28.7 0 64V352C0 387.3 28.7 416 64 416H112H160V464V468V468.3V474.7V496C160 502.1 163.4 507.6 168.8 510.3C174.2 513 180.7 512.4 185.6 508.8L202.7 496L207.8 492.2ZM204.2 148.6C199.3 150.2 196 154.8 196 160V256C196 262.6 201.4 268 208 268C214.6 268 220 262.6 220 256V196L246.4 231.2C248.7 234.2 252.2 236 256 236C259.8 236 263.3 234.2 265.6 231.2L292 196V256C292 262.6 297.4 268 304 268C310.6 268 316 262.6 316 256V160C316 154.8 312.7 150.2 307.8 148.6C302.9 147 297.5 148.7 294.4 152.8L256 204L217.6 152.8C214.5 148.7 209.1 147 204.2 148.6ZM108 182.9C108 179.8 109.3 177.6 112.8 175.5C116.7 173.2 122.4 171.9 127.8 172C134.7 172.1 145.2 173.7 152.1 175.5C158.5 177.2 165.1 173.4 166.8 167C168.5 160.6 164.7 154 158.3 152.3C149.7 150 137.3 148.1 128.2 148C119.5 147.9 109.2 149.8 100.6 154.8C91.6 160.2 84 169.5 84 183C84.1 195.9 91.6 204.1 99.8 209C107 213.3 116 216 123.3 218.2L124.4 218.5C132.8 221 139 223.1 143.4 225.8C147.1 228.1 147.9 229.9 147.9 232.4C148 236.3 146.4 238.7 143.3 240.6C139.7 242.8 134.2 244.1 128.3 244C120.4 243.7 112.9 241.2 103.4 238C102.1 237.6 100.7 237.1 99.3 236.6C93 234.5 86.2 237.9 84.1 244.2C82 250.5 85.4 257.3 91.7 259.4C92.9 259.8 94.1 260.2 95.4 260.7C104.5 263.8 115.7 267.6 127.4 268C136.6 268.3 147.2 266.4 155.9 261C165.1 255.3 172 245.6 171.8 232.1C171.6 219.2 164.4 210.8 156 205.5C148.5 200.8 139 197.9 131.5 195.7L131.1 195.6C122.6 193 116.3 191.1 111.9 188.4C108.2 186.2 107.7 184.6 107.7 182.8L108 182.9ZM364 182.9C364 179.8 365.3 177.6 368.8 175.5C372.7 173.2 378.4 171.9 383.8 172C390.4 172.1 397.5 173.5 404.9 175.5C411.3 177.2 417.9 173.4 419.6 167C421.3 160.6 417.5 154 411.1 152.3C403.1 150.2 393.7 148.1 384.2 148C375.5 147.9 365.2 149.8 356.6 154.8C347.6 160.1 340 169.4 340.1 182.9C340.2 195.8 347.7 204 355.9 208.9C363.1 213.2 372.1 215.9 379.4 218.1L380.5 218.4C388.9 220.9 395.1 223 399.5 225.7C403.2 228 404 229.8 404 232.3C404.1 236.2 402.5 238.6 399.4 240.5C395.8 242.7 390.3 244 384.4 243.9C376.8 243.7 369.7 241.2 360.6 238.1C359.1 237.6 357.5 237 355.8 236.5C349.5 234.4 342.7 237.8 340.6 244.1C338.5 250.4 341.9 257.2 348.2 259.3C349.5 259.7 350.9 260.2 352.3 260.7C361.2 263.8 372.1 267.5 383.6 267.9C392.8 268.2 403.4 266.3 412.1 260.9C421.3 255.2 428.2 245.5 428 232C427.8 219.1 420.6 210.7 412.2 205.4C404.7 200.7 395.2 197.8 387.7 195.6L387.3 195.5C378.8 192.9 372.5 191 368.1 188.3C364.4 186.1 363.9 184.5 363.9 182.7L364 182.9Z" fill="white"/>
</g>
<defs>
<clipPath id="clip0_504_175">
<rect width="512" height="512" fill="white"/>
</clipPath>
</defs>
</svg>
