<svg viewBox="0 0 512 512" xmlns="http://www.w3.org/2000/svg"><path d="m264 8v88c0 4.4-3.6 8-8 8s-8-3.6-8-8v-88c0-4.4 3.6-8 8-8s8 3.6 8 8zm0 408v88c0 4.4-3.6 8-8 8s-8-3.6-8-8v-88c0-4.4 3.6-8 8-8s8 3.6 8 8zm-272-160c0-4.4 3.6-8 8-8h96c4.4 0 8 3.6 8 8s-3.6 8-8 8h-96c-4.4 0-8-3.6-8-8zm424-8h88c4.4 0 8 3.6 8 8s-3.6 8-8 8h-88c-4.4 0-8-3.6-8-8s3.6-8 8-8zm19.8-170.2c3.1 3.1 3.1 8.2 0 11.3l-62.2 62.2c-3.1 3.1-8.2 3.1-11.3 0s-3.1-8.2 0-11.3l62.2-62.2c3.1-3.1 8.2-3.1 11.3 0zm-288.5 299.8-62.2 62.2c-3.1 3.1-8.2 3.1-11.3 0s-3.1-8.2 0-11.3l62.2-62.2c3.1-3.1 8.2-3.1 11.3 0s3.1 8.2 0 11.3zm-79.1-305.4c3.1-3.1 8.2-3.1 11.3 0l67.8 67.8c3.1 3.1 3.1 8.2 0 11.3s-8.2 3.1-11.3 0l-67.8-67.8c-3.1-3.1-3.1-8.2 0-11.3zm305.4 294.1 62.2 62.2c3.1 3.1 3.1 8.2 0 11.3s-8.2 3.1-11.3 0l-62.2-62.2c-3.1-3.1-3.1-8.2 0-11.3s8.2-3.1 11.3 0z"/></svg>