<svg width="576" height="512" viewBox="0 0 576 512" fill="none" xmlns="http://www.w3.org/2000/svg">
<g clip-path="url(#clip0_431_34)">
<path d="M287.9 0C297.1 0 305.5 5.2 309.5 13.5L378.1 154.8L531.3 177.4C540.3 178.7 547.8 185 550.6 193.7C553.4 202.4 551.1 211.8 544.7 218.2L433.6 328.4L459.8 484C461.3 493 457.6 502.1 450.2 507.5C442.8 512.9 432.9 513.5 424.9 509.2L287.9 436L151 509.1C142.9 513.4 133.1 512.8 125.7 507.4C118.3 502 114.5 492.9 116 483.9L142.2 328.3L31.0999 218.2C24.5999 211.8 22.3999 202.3 25.1999 193.7C27.9999 185.1 35.4999 178.8 44.4999 177.4L197.7 154.8L266.3 13.5C270.4 5.2 278.7 0 287.9 0ZM287.9 79L235.4 187.2C231.9 194.3 225.2 199.3 217.3 200.5L98.9999 217.9L184.9 303C190.4 308.5 193 316.3 191.7 324L171.4 443.7L276.6 387.5C283.7 383.7 292.2 383.7 299.2 387.5L404.4 443.7L384.2 324.1C382.9 316.4 385.4 308.6 391 303.1L476.9 218L358.6 200.5C350.8 199.3 344 194.4 340.5 187.2L287.9 79Z" fill="white"/>
</g>
<defs>
<clipPath id="clip0_431_34">
<rect width="576" height="512" fill="white"/>
</clipPath>
</defs>
</svg>
