<svg height="16" viewBox="0 0 512 512" width="16" xmlns="http://www.w3.org/2000/svg"><path d="m407 7c-9.4 9.4-9.4 24.6 0 33.9l15 15-38 38.2-55-55.1c-9.4-9.4-24.6-9.4-33.9 0s-9.4 24.6 0 33.9l72 72 72 72c9.4 9.4 24.6 9.4 33.9 0s9.4-24.6 0-33.9l-55-55 38-38.1 15 15c9.4 9.4 24.6 9.4 33.9 0s9.4-24.6 0-33.9l-31.9-32-32-32c-9.4-9.4-24.6-9.4-33.9 0zm-135.6 87.6-191 191c-10.5 10.6-16.4 24.8-16.4 39.7v88.8l-57 56.9c-9.4 9.4-9.4 24.6 0 33.9s24.6 9.4 33.9 0l57-57h88.8c14.9 0 29.1-5.9 39.6-16.4l191-191c-.3-.3-.7-.6-1-1l-33-33-191 191c-1.5 1.5-3.5 2.3-5.7 2.3h-74.6v-74.5c0-2.1.8-4.2 2.3-5.7l27.3-27.3 23 23c6.2 6.2 16.4 6.2 22.6 0s6.2-16.4 0-22.6l-23-23 41.4-41.4 23 23c6.2 6.2 16.4 6.2 22.6 0s6.2-16.4 0-22.6l-23-23 41.4-41.4 23 23c6.2 6.2 16.4 6.2 22.6 0s6.2-16.4 0-22.6l-23-23 13.1-13.1-33-33c-.3-.3-.6-.7-1-1z"/></svg>