<svg fill="none" height="16" viewBox="0 0 16 16" width="16" xmlns="http://www.w3.org/2000/svg"><path d="m.570017 15.4223c-.094909-.0939-.097643-.2508.001896-.3504l1.780937-1.7778.14676-.1465v-.2074-2.775c0-.33201.13105-.64935.3669-.88789.00028-.00027.00055-.00055.00082-.00083l5.61197-5.61195.35383.35383-.05582.05582-.3527.3527-.00086.00085-.35269.3527-1.29375 1.29375-.3527.3527-.00086.00085-.35269.3527-1.29375 1.29375-.3527.3527-.00086.00085-.35269.3527-.85313.85313c-.14786.14786-.21832.34401-.21832.53164v2.3282.5h.5 2.33125c.19409 0 .38602-.0727.53168-.2184l5.61516-5.61516.3554.35539-5.61517 5.61517c-.23448.2345-.5511.3661-.88395.3661h-2.775-.2071l-.14645.1464-1.781254 1.7813-.001881.0019c-.091531.0925-.249864.0975-.352278-.0038zm12.501883-14.498124-.0019-.001881c-.0868-.085872-.0965-.224471-.0214-.323671l.0283-.028607c.0939-.094909.2509-.097643.3504.001896l.9995.999447.0005.00055.9963.99945v.00001l.0025.00243c.0925.09153.0975.24986-.0038.35228-.0939.09491-.2508.09764-.3504-.0019l-.4687-.46875-.3541-.35402-.3535.35449-1.1875 1.19062-.3526.35355.3531.35309 1.7187 1.71876.0019.00188c.0925.09153.0975.24986-.0038.35228-.0939.09491-.2508.09764-.3504-.0019l-2.25-2.25-2.24996-2.25-.0019-.00188c-.09251-.09154-.09754-.24987.00378-.35228.0939-.09491.25085-.09765.35039.00189l1.71839 1.72156.3545.35512.3539-.35573 1.1875-1.19375.3517-.35355-.3526-.35263z" fill="#000" stroke="#fff"/></svg>