<svg viewBox="0 0 448 512" xmlns="http://www.w3.org/2000/svg"><path d="m177.1 48h93.7c2.7 0 5.2 1.3 6.7 3.6l19 28.4h-145l19-28.4c1.5-2.2 4-3.6 6.7-3.6zm177.1 32-36.7-55.1c-10.4-15.5-27.9-24.9-46.6-24.9h-93.8c-18.7 0-36.2 9.4-46.6 24.9l-36.7 55.1h-13.7-48.1-8c-13.3 0-24 10.7-24 24s10.7 24 24 24h11.6l24 324.7c2.5 33.4 30.3 59.3 63.8 59.3h201.2c33.5 0 61.3-25.9 63.8-59.3l24-324.7h11.6c13.3 0 24-10.7 24-24s-10.7-24-24-24h-8-48.1zm10.1 48-23.8 321.2c-.6 8.4-7.6 14.8-16 14.8h-201.1c-8.4 0-15.3-6.5-16-14.8l-23.7-321.2z"/></svg>