<svg width="640" height="512" viewBox="0 0 640 512" fill="none" xmlns="http://www.w3.org/2000/svg">
<path d="M224 208C245.217 208 265.566 199.571 280.569 184.569C295.571 169.566 304 149.217 304 128C304 106.783 295.571 86.4344 280.569 71.4315C265.566 56.4285 245.217 48 224 48C202.783 48 182.434 56.4285 167.431 71.4315C152.429 86.4344 144 106.783 144 128C144 149.217 152.429 169.566 167.431 184.569C182.434 199.571 202.783 208 224 208ZM224 0C257.948 0 290.505 13.4857 314.51 37.4903C338.514 61.495 352 94.0523 352 128C352 161.948 338.514 194.505 314.51 218.51C290.505 242.514 257.948 256 224 256C190.052 256 157.495 242.514 133.49 218.51C109.486 194.505 96 161.948 96 128C96 94.0523 109.486 61.495 133.49 37.4903C157.495 13.4857 190.052 0 224 0ZM49.3 464H326.5L321.4 484.2C319.1 493.6 319.6 503.2 322.8 512H29.7C13.3 512 0 498.7 0 482.3C0 383.8 79.8 304 178.3 304H224H269.7C317.8 304 361.5 323.1 393.6 354.1L359.6 388C336.2 365.7 304.5 352 269.7 352H178.3C112.6 352 58.2 400.7 49.3 464ZM613.8 235.7L628.2 250.1C643.8 265.7 643.8 291 628.2 306.7L598.8 336.1L527.8 265.1L557.2 235.7C572.8 220.1 598.1 220.1 613.8 235.7ZM375.9 417L505.1 287.8L576.1 358.8L446.9 487.9C442.8 492 437.7 494.9 432 496.3L371.9 511.3C366.4 512.7 360.7 511.1 356.7 507.1C352.7 503.1 351.1 497.4 352.5 491.9L367.5 431.8C368.9 426.2 371.8 421 375.9 416.9V417Z" fill="white"/>
</svg>
