<svg width="640" height="512" viewBox="0 0 640 512" fill="none" xmlns="http://www.w3.org/2000/svg">
<g clip-path="url(#clip0_425_22)">
<path d="M144 128C144 149.217 152.429 169.566 167.431 184.569C182.434 199.571 202.783 208 224 208C245.217 208 265.566 199.571 280.569 184.569C295.571 169.566 304 149.217 304 128C304 106.783 295.571 86.4344 280.569 71.4315C265.566 56.4285 245.217 48 224 48C202.783 48 182.434 56.4285 167.431 71.4315C152.429 86.4344 144 106.783 144 128ZM224 256C190.052 256 157.495 242.514 133.49 218.51C109.486 194.505 96 161.948 96 128C96 94.0523 109.486 61.495 133.49 37.4903C157.495 13.4857 190.052 0 224 0C257.948 0 290.505 13.4857 314.51 37.4903C338.514 61.495 352 94.0523 352 128C352 161.948 338.514 194.505 314.51 218.51C290.505 242.514 257.948 256 224 256ZM176 352C170.6 352 165.2 352.3 160 353V402.3C183.1 409.2 200 430.6 200 456C200 486.9 174.9 512 144 512C113.1 512 88 486.9 88 456C88 430.6 104.9 409.2 128 402.3V361.3C81.1 380.3 48 426.3 48 480V488C48 501.3 37.3 512 24 512C10.7 512 0 501.3 0 488V480C0 382.8 78.8 304 176 304H272C369.2 304 448 382.8 448 480V488C448 501.3 437.3 512 424 512C410.7 512 400 501.3 400 488V480C400 426.3 366.9 380.3 320 361.3V402C347.6 409.1 368 434.2 368 464V496C368 504.8 360.8 512 352 512H328C319.2 512 312 504.8 312 496C312 487.2 319.2 480 328 480H336V464C336 446.3 321.7 432 304 432C286.3 432 272 446.3 272 464V480H280C288.8 480 296 487.2 296 496C296 504.8 288.8 512 280 512H256C247.2 512 240 504.8 240 496V464C240 434.2 260.4 409.1 288 402V353C282.8 352.3 277.4 352 272 352H176ZM168 456C168 449.635 165.471 443.53 160.971 439.029C156.47 434.529 150.365 432 144 432C137.635 432 131.53 434.529 127.029 439.029C122.529 443.53 120 449.635 120 456C120 462.365 122.529 468.47 127.029 472.971C131.53 477.471 137.635 480 144 480C150.365 480 156.47 477.471 160.971 472.971C165.471 468.47 168 462.365 168 456ZM432 0H592C618.5 0 640 21.5 640 48V176C640 202.5 618.5 224 592 224H544L460.8 286.4C458.4 288.2 455.1 288.5 452.4 287.2C449.7 285.9 448 283.1 448 280V224H432C405.5 224 384 202.5 384 176V48C384 21.5 405.5 0 432 0Z" fill="white"/>
</g>
<defs>
<clipPath id="clip0_425_22">
<rect width="640" height="512" fill="white"/>
</clipPath>
</defs>
</svg>
