<svg viewBox="0 0 640 512" xmlns="http://www.w3.org/2000/svg"><path d="m144 128a80 80 0 1 0 160 0 80 80 0 1 0 -160 0zm80 128a128 128 0 1 1 0-256 128 128 0 1 1 0 256zm-48 96c-5.4 0-10.8.3-16 1v49.3c23.1 6.9 40 28.3 40 53.7 0 30.9-25.1 56-56 56s-56-25.1-56-56c0-25.4 16.9-46.8 40-53.7v-41c-46.9 19-80 65-80 118.7v8c0 13.3-10.7 24-24 24s-24-10.7-24-24v-8c0-97.2 78.8-176 176-176h96c97.2 0 176 78.8 176 176v8c0 13.3-10.7 24-24 24s-24-10.7-24-24v-8c0-53.7-33.1-99.7-80-118.7v40.7c27.6 7.1 48 32.2 48 62v32c0 8.8-7.2 16-16 16h-24c-8.8 0-16-7.2-16-16s7.2-16 16-16h8v-16c0-17.7-14.3-32-32-32s-32 14.3-32 32v16h8c8.8 0 16 7.2 16 16s-7.2 16-16 16h-24c-8.8 0-16-7.2-16-16v-32c0-29.8 20.4-54.9 48-62v-49c-5.2-.7-10.6-1-16-1zm-8 104a24 24 0 1 0 -48 0 24 24 0 1 0 48 0zm264-456h160c26.5 0 48 21.5 48 48v128c0 26.5-21.5 48-48 48h-48l-83.2 62.4c-2.4 1.8-5.7 2.1-8.4.8s-4.4-4.1-4.4-7.2v-56h-16c-26.5 0-48-21.5-48-48v-128c0-26.5 21.5-48 48-48z"/></svg>