<svg fill="none" height="512" viewBox="0 0 640 512" width="640" xmlns="http://www.w3.org/2000/svg" xmlns:xlink="http://www.w3.org/1999/xlink"><clipPath id="a"><path d="m0 0h640v512h-640z"/></clipPath><g clip-path="url(#a)"><path d="m144 128c0 21.217 8.429 41.566 23.431 56.569 15.003 15.002 35.352 23.431 56.569 23.431s41.566-8.429 56.569-23.431c15.002-15.003 23.431-35.352 23.431-56.569s-8.429-41.5656-23.431-56.5685c-15.003-15.003-35.352-23.4315-56.569-23.4315s-41.566 8.4285-56.569 23.4315c-15.002 15.0029-23.431 35.3515-23.431 56.5685zm80 128c-33.948 0-66.505-13.486-90.51-37.49-24.004-24.005-37.49-56.562-37.49-90.51 0-33.9477 13.486-66.505 37.49-90.5097 24.005-24.0046 56.562-37.4903 90.51-37.4903s66.505 13.4857 90.51 37.4903c24.004 24.0047 37.49 56.562 37.49 90.5097 0 33.948-13.486 66.505-37.49 90.51-24.005 24.004-56.562 37.49-90.51 37.49zm-48 96c-5.4 0-10.8.3-16 1v49.3c23.1 6.9 40 28.3 40 53.7 0 30.9-25.1 56-56 56s-56-25.1-56-56c0-25.4 16.9-46.8 40-53.7v-41c-46.9 19-80 65-80 118.7v8c0 13.3-10.7 24-24 24s-24-10.7-24-24v-8c0-97.2 78.8-176 176-176h96c97.2 0 176 78.8 176 176v8c0 13.3-10.7 24-24 24s-24-10.7-24-24v-8c0-53.7-33.1-99.7-80-118.7v40.7c27.6 7.1 48 32.2 48 62v32c0 8.8-7.2 16-16 16h-24c-8.8 0-16-7.2-16-16s7.2-16 16-16h8v-16c0-17.7-14.3-32-32-32s-32 14.3-32 32v16h8c8.8 0 16 7.2 16 16s-7.2 16-16 16h-24c-8.8 0-16-7.2-16-16v-32c0-29.8 20.4-54.9 48-62v-49c-5.2-.7-10.6-1-16-1zm-8 104c0-6.365-2.529-12.47-7.029-16.971-4.501-4.5-10.606-7.029-16.971-7.029s-12.47 2.529-16.971 7.029c-4.5 4.501-7.029 10.606-7.029 16.971s2.529 12.47 7.029 16.971c4.501 4.5 10.606 7.029 16.971 7.029s12.47-2.529 16.971-7.029c4.5-4.501 7.029-10.606 7.029-16.971zm264-456h160c26.5 0 48 21.5 48 48v128c0 26.5-21.5 48-48 48h-48l-83.2 62.4c-2.4 1.8-5.7 2.1-8.4.8s-4.4-4.1-4.4-7.2v-56h-16c-26.5 0-48-21.5-48-48v-128c0-26.5 21.5-48 48-48z" fill="#fff"/></g></svg>