<svg viewBox="0 0 640 512" xmlns="http://www.w3.org/2000/svg"><path d="m224 208a80 80 0 1 0 0-160 80 80 0 1 0 0 160zm0-208a128 128 0 1 1 0 256 128 128 0 1 1 0-256zm-174.7 464h277.2l-5.1 20.2c-2.3 9.4-1.8 19 1.4 27.8h-293.1c-16.4 0-29.7-13.3-29.7-29.7 0-98.5 79.8-178.3 178.3-178.3h45.7 45.7c48.1 0 91.8 19.1 123.9 50.1l-34 33.9c-23.4-22.3-55.1-36-89.9-36h-91.4c-65.7 0-120.1 48.7-129 112zm564.5-228.3 14.4 14.4c15.6 15.6 15.6 40.9 0 56.6l-29.4 29.4-71-71 29.4-29.4c15.6-15.6 40.9-15.6 56.6 0zm-237.9 181.3 129.2-129.2 71 71-129.2 129.1c-4.1 4.1-9.2 7-14.9 8.4l-60.1 15c-5.5 1.4-11.2-.2-15.2-4.2s-5.6-9.7-4.2-15.2l15-60.1c1.4-5.6 4.3-10.8 8.4-14.9z"/></svg>