<svg fill="none" height="512" viewBox="0 0 640 512" width="640" xmlns="http://www.w3.org/2000/svg"><path d="m224 208c21.217 0 41.566-8.429 56.569-23.431 15.002-15.003 23.431-35.352 23.431-56.569s-8.429-41.5656-23.431-56.5685c-15.003-15.003-35.352-23.4315-56.569-23.4315s-41.566 8.4285-56.569 23.4315c-15.002 15.0029-23.431 35.3515-23.431 56.5685s8.429 41.566 23.431 56.569c15.003 15.002 35.352 23.431 56.569 23.431zm0-208c33.948 0 66.505 13.4857 90.51 37.4903 24.004 24.0047 37.49 56.562 37.49 90.5097 0 33.948-13.486 66.505-37.49 90.51-24.005 24.004-56.562 37.49-90.51 37.49s-66.505-13.486-90.51-37.49c-24.004-24.005-37.49-56.562-37.49-90.51 0-33.9477 13.486-66.505 37.49-90.5097 24.005-24.0046 56.562-37.4903 90.51-37.4903zm-174.7 464h277.2l-5.1 20.2c-2.3 9.4-1.8 19 1.4 27.8h-293.1c-16.4 0-29.7-13.3-29.7-29.7 0-98.5 79.8-178.3 178.3-178.3h45.7 45.7c48.1 0 91.8 19.1 123.9 50.1l-34 33.9c-23.4-22.3-55.1-36-89.9-36h-91.4c-65.7 0-120.1 48.7-129 112zm564.5-228.3 14.4 14.4c15.6 15.6 15.6 40.9 0 56.6l-29.4 29.4-71-71 29.4-29.4c15.6-15.6 40.9-15.6 56.6 0zm-237.9 181.3 129.2-129.2 71 71-129.2 129.1c-4.1 4.1-9.2 7-14.9 8.4l-60.1 15c-5.5 1.4-11.2-.2-15.2-4.2s-5.6-9.7-4.2-15.2l15-60.1c1.4-5.6 4.3-10.8 8.4-14.9z" fill="#fff"/></svg>