<svg fill="none" height="500" viewBox="0 0 500 500" width="500" xmlns="http://www.w3.org/2000/svg"><path d="m224.73 405.73v-80.26c.001-4.446-.873-8.849-2.574-12.957-1.7-4.108-4.193-7.841-7.337-10.985-3.143-3.144-6.875-5.639-10.983-7.34-4.107-1.702-8.51-2.578-12.956-2.578-4.448-.003-8.853.871-12.964 2.572-4.11 1.7-7.845 4.194-10.992 7.338-3.146 3.145-5.642 6.878-7.345 10.988-1.703 4.109-2.579 8.514-2.579 12.962v80.26z" fill="#daa900"/><g fill="#fff"><path d="m287.29 273.67c-23.61 0-42.82-14.56-42.82-32.46.06-1.396.657-2.715 1.666-3.681 1.009-.967 2.352-1.506 3.749-1.506s2.74.539 3.749 1.506c1.009.966 1.606 2.285 1.666 3.681 0 11.73 14.65 21.63 32 21.63s32-9.9 32-21.63c.06-1.396.657-2.715 1.666-3.681 1.009-.967 2.352-1.506 3.749-1.506s2.74.539 3.749 1.506c1.009.966 1.606 2.285 1.666 3.681-.02 17.9-19.23 32.46-42.84 32.46z"/><path d="m362.09 273.65c-23.61 0-42.83-14.55-42.83-32.43v-20.31c-.001-.711.138-1.416.409-2.073.271-.658.67-1.256 1.172-1.759.503-.503 1.099-.903 1.756-1.175.657-.273 1.362-.413 2.073-.413h75.07c.716.001 1.426.144 2.087.421.66.277 1.26.681 1.764 1.191.504.509.902 1.113 1.171 1.777s.405 1.375.398 2.091l-.23 20.31c0 13.2-10.42 25-26.56 30-5.28 1.59-10.766 2.389-16.28 2.37zm-32-47.33v14.9c0 11.91 14.36 21.6 32 21.6 4.444.003 8.865-.647 13.12-1.93 11.47-3.54 18.89-11.26 18.89-19.67l.16-14.9z"/><path d="m212.46 273.66c-24 0-42.78-14.25-42.78-32.44.06-1.396.657-2.715 1.666-3.681 1.009-.967 2.352-1.506 3.749-1.506s2.74.539 3.749 1.506c1.009.966 1.606 2.285 1.666 3.681 0 11.91 14.34 21.6 32 21.6 17.35 0 32-9.89 32-21.6l.35-20.4c.073-1.42.683-2.759 1.706-3.747 1.023-.987 2.382-1.55 3.804-1.573 1.436.026 2.802.621 3.8 1.654.997 1.033 1.544 2.42 1.52 3.856l-.35 20.31c-.04 17.79-19.26 32.34-42.88 32.34z"/><path d="m137.68 273.65c-5.28.019-10.535-.729-15.6-2.22-16.53-4.82-27.2399-16.69-27.2399-30.21v-.1l.4-20.32c.0288-1.418.6125-2.769 1.6258-3.762 1.0134-.992 2.3756-1.548 3.7941-1.548h74.44c.711 0 1.416.14 2.073.413.657.272 1.254.672 1.756 1.175.503.503.901 1.101 1.172 1.759.271.657.41 1.362.409 2.073v20.31c0 17.88-19.21 32.43-42.83 32.43zm-32-32.38c0 8.57 7.67 16.32 19.48 19.77 4.07 1.192 8.29 1.792 12.53 1.78 17.65 0 32-9.69 32-21.6v-14.9h-63.69z"/></g><path d="m376.78 226.31h-253.15c-1.396-.06-2.715-.657-3.681-1.666-.967-1.009-1.506-2.352-1.506-3.749s.539-2.74 1.506-3.749c.966-1.009 2.285-1.606 3.681-1.666h253.15c1.396.06 2.715.657 3.681 1.666.967 1.009 1.506 2.352 1.506 3.749s-.539 2.74-1.506 3.749c-.966 1.009-2.285 1.606-3.681 1.666z" fill="#000"/><g fill="#fff"><path d="m376.78 411.17h-253.15c-.71 0-1.414-.14-2.07-.412-.657-.272-1.253-.67-1.755-1.173-.503-.502-.901-1.098-1.173-1.755-.272-.656-.412-1.36-.412-2.07v-139.5c-.031-.731.085-1.46.343-2.145.258-.684.652-1.309 1.158-1.837s1.114-.948 1.786-1.236c.673-.287 1.397-.435 2.128-.435s1.455.148 2.128.435c.673.288 1.28.708 1.786 1.236s.9 1.153 1.158 1.837c.258.685.374 1.414.343 2.145v134.08h242.31v-134.25c-.031-.731.085-1.46.343-2.145.258-.684.652-1.309 1.158-1.837s1.114-.949 1.786-1.236c.673-.287 1.397-.435 2.128-.435s1.455.148 2.128.435 1.28.708 1.786 1.236.9 1.153 1.158 1.837c.258.685.375 1.414.343 2.145v139.67c0 .71-.14 1.414-.412 2.07-.272.657-.67 1.253-1.172 1.755-.503.503-1.099.901-1.756 1.173-.656.272-1.359.412-2.07.412z"/><path d="m399.74 226.32h-299.08c-.897.006-1.7815-.211-2.5735-.632-.7921-.421-1.4667-1.033-1.9629-1.781-.4962-.747-.7985-1.606-.8794-2.5-.0809-.893.062-1.793.4159-2.617l28.3399-66.56c4.53-10.68 13.79-17.3 24.15-17.3h43.63c1.396.06 2.715.657 3.681 1.666.967 1.009 1.506 2.352 1.506 3.749s-.539 2.74-1.506 3.749c-.966 1.009-2.285 1.606-3.681 1.666h-43.65c-5.94 0-11.38 4.1-14.19 10.71l-25.09 59h282.66l-25.51-59.1c-2.82-6.54-8.24-10.61-14.15-10.61h-44.55c-.731.031-1.46-.085-2.144-.343-.685-.258-1.31-.652-1.838-1.158s-.948-1.114-1.236-1.786c-.287-.673-.435-1.397-.435-2.128s.148-1.455.435-2.128c.288-.672.708-1.28 1.236-1.786s1.153-.9 1.838-1.158c.684-.258 1.413-.374 2.144-.343h44.59c10.3 0 19.53 6.57 24.09 17.15l28.73 66.69c.356.825.5 1.726.42 2.622-.08.895-.382 1.756-.878 2.505-.496.75-1.171 1.363-1.964 1.786s-1.679.642-2.578.637z"/><path d="m249.53 203.52c-16.752-.019-32.812-6.681-44.658-18.525s-18.511-27.903-18.532-44.655c.06-1.396.657-2.715 1.666-3.681 1.009-.967 2.352-1.506 3.749-1.506s2.74.539 3.749 1.506c1.009.966 1.606 2.285 1.666 3.681.19 13.76 5.79 26.892 15.588 36.555 9.797 9.664 23.006 15.081 36.767 15.081s26.97-5.417 36.767-15.081c9.798-9.663 15.398-22.795 15.588-36.555.06-1.396.657-2.715 1.666-3.681 1.009-.967 2.352-1.506 3.749-1.506s2.74.539 3.749 1.506c1.009.966 1.606 2.285 1.666 3.681-.018 16.751-6.681 32.81-18.525 44.655-11.845 11.844-27.904 18.506-44.655 18.525z"/><path d="m352.79 385.86h-97.21c-1.438 0-2.816-.571-3.833-1.587-1.016-1.017-1.587-2.396-1.587-3.833v-88.82c0-1.437.571-2.816 1.587-3.833 1.017-1.016 2.395-1.587 3.833-1.587h97.21c.711 0 1.416.14 2.073.413.657.272 1.253.672 1.756 1.175.502.504.901 1.101 1.172 1.759.271.657.41 1.362.409 2.073v88.82c0 1.436-.57 2.813-1.584 3.829s-2.39 1.588-3.826 1.591zm-91.79-10.86h86.38v-78h-86.38z"/><path d="m352.79 341.44h-97.21c-.731.031-1.46-.085-2.145-.343-.684-.258-1.309-.652-1.837-1.158s-.948-1.114-1.236-1.786c-.287-.673-.435-1.397-.435-2.128s.148-1.455.435-2.128c.288-.672.708-1.28 1.236-1.786s1.153-.9 1.837-1.158c.685-.258 1.414-.374 2.145-.343h97.21c1.396.06 2.715.657 3.681 1.666.967 1.009 1.506 2.352 1.506 3.749s-.539 2.74-1.506 3.749c-.966 1.009-2.285 1.606-3.681 1.666z"/><path d="m304.18 341.32c-1.437 0-2.816-.571-3.833-1.587-1.016-1.017-1.587-2.396-1.587-3.833v-44.28c0-1.437.571-2.816 1.587-3.833 1.017-1.016 2.396-1.587 3.833-1.587s2.816.571 3.833 1.587c1.016 1.017 1.587 2.396 1.587 3.833v44.28c0 1.437-.571 2.816-1.587 3.833-1.017 1.016-2.396 1.587-3.833 1.587z"/><path d="m224.73 411.15h-67.73c-1.437 0-2.816-.571-3.832-1.587-1.017-1.017-1.588-2.396-1.588-3.833v-80.26c0-10.415 4.137-20.404 11.502-27.768 7.365-7.365 17.353-11.502 27.768-11.502s20.404 4.137 27.768 11.502c7.365 7.364 11.502 17.353 11.502 27.768v80.26c0 1.432-.567 2.806-1.577 3.822s-2.381 1.59-3.813 1.598zm-62.29-10.84h56.88v-74.84c0-7.543-2.996-14.777-8.33-20.11-5.333-5.334-12.567-8.33-20.11-8.33s-14.777 2.996-20.11 8.33c-5.334 5.333-8.33 12.567-8.33 20.11z"/><path d="m185.68 355h-10.54c-1.438 0-2.816-.571-3.833-1.587-1.016-1.017-1.587-2.396-1.587-3.833s.571-2.816 1.587-3.833c1.017-1.016 2.395-1.587 3.833-1.587h10.54c1.437 0 2.816.571 3.832 1.587 1.017 1.017 1.588 2.396 1.588 3.833s-.571 2.816-1.588 3.833c-1.016 1.016-2.395 1.587-3.832 1.587z"/></g><path d="m250 182.91c25.803 0 46.72-20.917 46.72-46.72s-20.917-46.72-46.72-46.72-46.72 20.917-46.72 46.72 20.917 46.72 46.72 46.72z" fill="#daa900"/><path d="m219.45 136.25c.29-.24.58-.47.86-.73l7.85-7.35 13.17 14 31.13-28.87 8.09 8.77-39.86 36.94c-.23-.27-.44-.53-.67-.77-6.747-7.22-13.503-14.433-20.27-21.64-.09-.1-.2-.18-.3-.28z" fill="#fff"/></svg>