<svg height="500" viewBox="0 0 500 500" width="500" xmlns="http://www.w3.org/2000/svg"><path d="m224.73 405.73v-80.26a33.85 33.85 0 0 0 -33.85-33.86 33.86 33.86 0 0 0 -33.88 33.86v80.26z" fill="#daa900"/><path d="m287.29 273.67c-23.61 0-42.82-14.56-42.82-32.46a5.42 5.42 0 0 1 10.83 0c0 11.73 14.65 21.63 32 21.63s32-9.9 32-21.63a5.42 5.42 0 0 1 10.83 0c-.02 17.9-19.23 32.46-42.84 32.46z"/><path d="m362.09 273.65c-23.61 0-42.83-14.55-42.83-32.43v-20.31a5.41 5.41 0 0 1 5.41-5.42h75.07a5.43 5.43 0 0 1 5.42 5.48l-.23 20.31c0 13.2-10.42 25-26.56 30a55.77 55.77 0 0 1 -16.28 2.37zm-32-47.33v14.9c0 11.91 14.36 21.6 32 21.6a45.34 45.34 0 0 0 13.12-1.93c11.47-3.54 18.89-11.26 18.89-19.67l.16-14.9z"/><path d="m212.46 273.66c-24 0-42.78-14.25-42.78-32.44a5.42 5.42 0 0 1 10.83 0c0 11.91 14.34 21.6 32 21.6 17.35 0 32-9.89 32-21.6l.35-20.4a5.61 5.61 0 0 1 5.51-5.32 5.42 5.42 0 0 1 5.32 5.51l-.35 20.31c-.04 17.79-19.26 32.34-42.88 32.34z"/><path d="m137.68 273.65a54.57 54.57 0 0 1 -15.6-2.22c-16.53-4.82-27.24-16.69-27.24-30.21v-.1l.4-20.32a5.42 5.42 0 0 1 5.42-5.31h74.44a5.41 5.41 0 0 1 5.41 5.42v20.31c0 17.88-19.21 32.43-42.83 32.43zm-32-32.38c0 8.57 7.67 16.32 19.48 19.77a44.12 44.12 0 0 0 12.53 1.78c17.65 0 32-9.69 32-21.6v-14.9h-63.69z"/><path d="m376.78 226.31h-253.15a5.42 5.42 0 0 1 0-10.83h253.15a5.42 5.42 0 0 1 0 10.83z"/><path d="m376.78 411.17h-253.15a5.41 5.41 0 0 1 -5.41-5.41v-139.5a5.42 5.42 0 1 1 10.83 0v134.08h242.31v-134.25a5.42 5.42 0 1 1 10.83 0v139.67a5.41 5.41 0 0 1 -5.41 5.41z"/><path d="m399.74 226.32h-299.08a5.4 5.4 0 0 1 -5-7.53l28.34-66.56c4.53-10.68 13.79-17.3 24.15-17.3h43.63a5.42 5.42 0 0 1 0 10.83h-43.65c-5.94 0-11.38 4.1-14.19 10.71l-25.09 59h282.66l-25.51-59.1c-2.82-6.54-8.24-10.61-14.15-10.61h-44.55a5.42 5.42 0 1 1 0-10.83h44.59c10.3 0 19.53 6.57 24.09 17.15l28.73 66.69a5.41 5.41 0 0 1 -5 7.55z"/><path d="m249.53 203.52a63.26 63.26 0 0 1 -63.19-63.18 5.42 5.42 0 0 1 10.83 0 52.36 52.36 0 0 0 104.71 0 5.42 5.42 0 0 1 10.83 0 63.25 63.25 0 0 1 -63.18 63.18z"/><path d="m352.79 385.86h-97.21a5.42 5.42 0 0 1 -5.42-5.42v-88.82a5.42 5.42 0 0 1 5.42-5.42h97.21a5.41 5.41 0 0 1 5.41 5.42v88.82a5.42 5.42 0 0 1 -5.41 5.42zm-91.79-10.86h86.38v-78h-86.38z"/><path d="m352.79 341.44h-97.21a5.42 5.42 0 1 1 0-10.83h97.21a5.42 5.42 0 0 1 0 10.83z"/><path d="m304.18 341.32a5.42 5.42 0 0 1 -5.42-5.42v-44.28a5.42 5.42 0 1 1 10.84 0v44.28a5.42 5.42 0 0 1 -5.42 5.42z"/><path d="m224.73 411.15h-67.73a5.42 5.42 0 0 1 -5.42-5.42v-80.26a39.27 39.27 0 0 1 78.54 0v80.26a5.42 5.42 0 0 1 -5.39 5.42zm-62.29-10.84h56.88v-74.84a28.44 28.44 0 1 0 -56.88 0z"/><path d="m185.68 355h-10.54a5.42 5.42 0 0 1 0-10.84h10.54a5.42 5.42 0 0 1 0 10.84z"/><circle cx="250" cy="136.19" fill="#daa900" r="46.72"/><path d="m219.45 136.25c.29-.24.58-.47.86-.73l7.85-7.35 13.17 14 31.13-28.87 8.09 8.77-39.86 36.94c-.23-.27-.44-.53-.67-.77q-10.12-10.83-20.27-21.64c-.09-.1-.2-.18-.3-.28z"/></svg>