<svg fill="none" height="500" viewBox="0 0 500 500" width="500" xmlns="http://www.w3.org/2000/svg"><path d="m209.25 116.8v8.13h-24.25c-3.495.005-6.845 1.395-9.317 3.866-2.473 2.47-3.865 5.819-3.873 9.314v161.61h-8.12v-161.61c.005-5.65 2.252-11.067 6.247-15.063 3.996-3.995 9.413-6.242 15.063-6.247z" fill="#fff" stroke="#fff" stroke-miterlimit="10" stroke-width="3"/><path d="m213.22 124.93h-4v-8.13h4c1.043.052 2.027.503 2.747 1.259.72.757 1.121 1.761 1.121 2.806 0 1.044-.401 2.049-1.121 2.806-.72.756-1.704 1.207-2.747 1.259z" fill="#000"/><path d="m335.72 138.11v161.61h-8.13v-161.61c-.008-3.495-1.4-6.844-3.873-9.314-2.472-2.471-5.822-3.861-9.317-3.866h-24.28v-8.13h24.28c5.651.005 11.069 2.252 15.066 6.247s6.246 9.412 6.254 15.063z" fill="#fff" stroke="#fff" stroke-miterlimit="10" stroke-width="3"/><path d="m282 121.71c-.12-.557-.12-1.133 0-1.69.194-.915.697-1.736 1.426-2.323.729-.586 1.638-.903 2.574-.897h4.16v8.13h-4.16c-.936.006-1.845-.311-2.574-.897-.729-.587-1.232-1.408-1.426-2.323z" fill="#000"/><g fill="#fff"><path d="m299.29 284.17h-100.07c-1.043-.052-2.027-.503-2.747-1.259-.72-.757-1.121-1.762-1.121-2.806 0-1.045.401-2.049 1.121-2.806.72-.756 1.704-1.207 2.747-1.259h100.07c1.043.052 2.027.503 2.747 1.259.72.757 1.121 1.761 1.121 2.806 0 1.044-.401 2.049-1.121 2.806-.72.756-1.704 1.207-2.747 1.259z" stroke="#fff" stroke-miterlimit="10" stroke-width="3"/><path d="m299.29 259.41h-100.07c-1.043-.052-2.027-.503-2.747-1.259-.72-.757-1.121-1.762-1.121-2.806 0-1.045.401-2.049 1.121-2.806.72-.756 1.704-1.207 2.747-1.259h100.07c1.043.052 2.027.503 2.747 1.259.72.757 1.121 1.761 1.121 2.806 0 1.044-.401 2.049-1.121 2.806-.72.756-1.704 1.207-2.747 1.259z" stroke="#fff" stroke-miterlimit="10" stroke-width="3"/><path d="m299.29 236h-100.07c-1.043-.052-2.027-.503-2.747-1.259-.72-.757-1.121-1.761-1.121-2.806s.401-2.049 1.121-2.806c.72-.756 1.704-1.207 2.747-1.259h100.07c1.043.052 2.027.503 2.747 1.259.72.757 1.121 1.761 1.121 2.806s-.401 2.049-1.121 2.806c-.72.756-1.704 1.207-2.747 1.259z" stroke="#fff" stroke-miterlimit="10" stroke-width="3"/><path d="m286.06 99.61h-15.66c-2-9-10.49-15.82-20.63-15.82s-18.64 6.8-20.63 15.82h-15.83c-1.077 0-2.109.428-2.871 1.189-.761.762-1.189 1.794-1.189 2.871v34c0 1.077.428 2.109 1.189 2.871.762.761 1.794 1.189 2.871 1.189h72.75c1.077 0 2.109-.428 2.871-1.189.761-.762 1.189-1.794 1.189-2.871v-34c0-1.077-.428-2.109-1.189-2.871-.762-.761-1.794-1.189-2.871-1.189zm-4.06 33.94h-64.63v-25.82h15.39c.534.001 1.063-.103 1.557-.306.494-.204.942-.502 1.32-.88.378-.377.678-.825.883-1.318s.31-1.022.31-1.556c0-6.48 5.8-11.75 12.94-11.75s13 5.27 13 11.75c-.001.534.103 1.062.306 1.555.204.493.503.942.88 1.319s.826.676 1.319.88c.493.203 1.021.307 1.555.306h15.17z" stroke="#fff" stroke-miterlimit="10" stroke-width="3"/><path d="m112.23 155.57h10.88v203.32h-10.88z"/><path d="m376.89 155.57h10.88v203.32h-10.88z"/><path d="m153.86 155.57v10.88h-41.64v-10.88z"/><path d="m387.78 155.57v10.88h-41.64v-10.88z"/><path d="m112.76 348h274.49v10.89h-274.49z"/><path d="m244.24 349.62h10.88v61.05h-10.88z"/><path d="m309.42 410.67c3.005 0 5.44-2.436 5.44-5.44s-2.435-5.44-5.44-5.44h-119.48c-3.004 0-5.44 2.436-5.44 5.44s2.436 5.44 5.44 5.44z"/></g><path d="m123.11 310.61h253.78v37.39h-253.78z" fill="#daa900"/><path d="m112.77 299.73h274.48v10.88h-274.48z" fill="#fff"/><path d="m251.99 216.54c17.811 0 32.25-14.439 32.25-32.25s-14.439-32.25-32.25-32.25-32.25 14.439-32.25 32.25 14.439 32.25 32.25 32.25z" fill="#daa900"/><path d="m271.34 177.85v12.89h-12.9v12.9h-12.9v-12.9h-12.89v-12.89h12.89v-12.9h12.9v12.9z" fill="#fff"/><path d="m249.68 327.75c7.357 0 13.32-5.964 13.32-13.32s-5.963-13.32-13.32-13.32c-7.356 0-13.32 5.964-13.32 13.32s5.964 13.32 13.32 13.32z" fill="#fff"/></svg>