<svg height="500" viewBox="0 0 500 500" width="500" xmlns="http://www.w3.org/2000/svg"><path d="m423.39 163.52h13.73v36.85h-13.73z"/><path d="m355.47 103.23a9.51 9.51 0 0 0 -1.7.15 10.48 10.48 0 0 1 2-.14zm0 0a9.51 9.51 0 0 0 -1.7.15 10.48 10.48 0 0 1 2-.14zm0 0a9.51 9.51 0 0 0 -1.7.15 10.48 10.48 0 0 1 2-.14zm0 0a9.51 9.51 0 0 0 -1.7.15 10.48 10.48 0 0 1 2-.14zm0 0a9.51 9.51 0 0 0 -1.7.15 10.48 10.48 0 0 1 2-.14zm0 0a9.51 9.51 0 0 0 -1.7.15 10.48 10.48 0 0 1 2-.14zm0 0a9.51 9.51 0 0 0 -1.7.15 10.48 10.48 0 0 1 2-.14zm0 0a9.51 9.51 0 0 0 -1.7.15 10.48 10.48 0 0 1 2-.14zm0 0a9.51 9.51 0 0 0 -1.7.15 10.48 10.48 0 0 1 2-.14zm0 0a9.51 9.51 0 0 0 -1.7.15 10.48 10.48 0 0 1 2-.14zm0 0a9.51 9.51 0 0 0 -1.7.15 10.48 10.48 0 0 1 2-.14zm0 0a9.51 9.51 0 0 0 -1.7.15 10.48 10.48 0 0 1 2-.14zm0 0a9.51 9.51 0 0 0 -1.7.15 10.48 10.48 0 0 1 2-.14zm0 0a9.51 9.51 0 0 0 -1.7.15 10.48 10.48 0 0 1 2-.14zm0 0a9.51 9.51 0 0 0 -1.7.15 10.48 10.48 0 0 1 2-.14zm0 0a9.51 9.51 0 0 0 -1.7.15 10.48 10.48 0 0 1 2-.14zm27.23 25.15v-4.2c0-1.11 0-2.19 0-3.27 0-2.27 0-4.42 0-6.58a28.45 28.45 0 0 0 -8-19.85 26.67 26.67 0 0 0 -19.21-8c-15.14 0-27.1 12.2-27.23 27.76v6.43 3.23 4.2h-29.4v-4.2c0-1.14 0-2.28 0-3.42 0-2.45 0-5 0-7.42-.31-12.55-9.61-23.72-21.64-26a28.86 28.86 0 0 0 -5.46-.53 27 27 0 0 0 -25.22 16.65c-2 4.63-2.27 9.64-2.12 15.74v3.43 1.63 4.2h-29.42v-4.18c0-1.12 0-2.24 0-3.36 0-2.37 0-4.81 0-7.19a27.25 27.25 0 0 0 -27.37-27h-.63a27.33 27.33 0 0 0 -26.39 26c-.08 2.5 0 5 0 7.68v3.87 4.2h-41.94v20.9 91.58a9.68 9.68 0 0 1 -4.31 8.48c-31.34 23.21-43.9 53.47-37.34 90 3.29 18.26 10.58 33.58 21.71 45.53 11 11.8 25.75 20.42 43.91 25.62a83.3 83.3 0 0 0 23 3.21 89.86 89.86 0 0 0 72.36-37.07 11.21 11.21 0 0 1 9.91-5.06c41.18.06 82.18.07 120.37.07h56.34v-243.08zm-41.8-16a14.58 14.58 0 0 1 14.57-13.38h.36a14.72 14.72 0 0 1 14.25 14c.13 2.5.1 4.93.07 7.48v3.43 4.2h-29.32v-4.2c0-1.16 0-2.34 0-3.48-.08-2.62-.14-5.33.07-8.05zm-83.58-1.3a14.27 14.27 0 0 1 14.31-12h.91a14.66 14.66 0 0 1 13.72 14c.12 2.49.09 4.92.07 7.49v3.51 4.2h-29.16v-4.28c0-1.21 0-2.44-.08-3.72a54.19 54.19 0 0 1 .23-9.2zm-84.11 1.63a14.63 14.63 0 0 1 29.2 0c.17 2.62.12 5.25.09 7.79v3.48 4.2h-29.3v-4.2c0-1.18 0-2.34 0-3.47-.1-2.57-.14-5.2.01-7.8zm47 265.35a77 77 0 0 1 -54.83 22.75h-.2a77.69 77.69 0 1 1 55-22.75zm191.59-19.29h-162.66l1.58-5.38c5.27-17.94 6.27-34.77 2.95-50-3.42-15.77-11.56-30.27-24.17-43.09-17.7-18-38.74-27.13-62.49-27.13a113.85 113.85 0 0 0 -30.29 4.39l-5.32 1.44v-35h280.4zm0-167.7h-280.41v-49.88h29.16v20.53h12.45v-20.57h71.31v20.61h12.6v-20.66h71.18v20.59h12.6v-20.51h71.13zm-56.37-87.84a9.51 9.51 0 0 0 -1.7.15 10.48 10.48 0 0 1 2-.14zm0 0a9.51 9.51 0 0 0 -1.7.15 10.48 10.48 0 0 1 2-.14zm0 0a9.51 9.51 0 0 0 -1.7.15 10.48 10.48 0 0 1 2-.14zm0 0a9.51 9.51 0 0 0 -1.7.15 10.48 10.48 0 0 1 2-.14zm0 0a9.51 9.51 0 0 0 -1.7.15 10.48 10.48 0 0 1 2-.14zm0 0a9.51 9.51 0 0 0 -1.7.15 10.48 10.48 0 0 1 2-.14zm0 0a9.51 9.51 0 0 0 -1.7.15 10.48 10.48 0 0 1 2-.14zm0 0a9.51 9.51 0 0 0 -1.7.15 10.48 10.48 0 0 1 2-.14zm0 0a9.51 9.51 0 0 0 -1.7.15 10.48 10.48 0 0 1 2-.14zm0 0a9.51 9.51 0 0 0 -1.7.15 10.48 10.48 0 0 1 2-.14zm0 0a9.51 9.51 0 0 0 -1.7.15 10.48 10.48 0 0 1 2-.14zm0 0a9.51 9.51 0 0 0 -1.7.15 10.48 10.48 0 0 1 2-.14zm0 0a9.51 9.51 0 0 0 -1.7.15 10.48 10.48 0 0 1 2-.14zm0 0a9.51 9.51 0 0 0 -1.7.15 10.48 10.48 0 0 1 2-.14zm0 0a9.51 9.51 0 0 0 -1.7.15 10.48 10.48 0 0 1 2-.14zm0 0a9.51 9.51 0 0 0 -1.7.15 10.48 10.48 0 0 1 2-.14zm0 0a9.51 9.51 0 0 0 -1.7.15 10.48 10.48 0 0 1 2-.14z"/><path d="m411.84 141.18v49.89h-280.45v-49.88h29.16v20.53h12.48v-20.57h71.3v20.61h12.6v-20.66h71.18v20.59h12.6v-20.51z" fill="#daa900"/><path d="m244.43 323.22a79.11 79.11 0 0 1 -79 79h-.2a79 79 0 1 1 79.21-79z" fill="#daa900"/><path d="m286.61 233.42h33.07v12.12h-33.07z"/><path d="m349.35 233.35h33.07v12.13h-33.07z"/><path d="m286.61 275.33h33.07v12.12h-33.07z"/><path d="m349.47 275.32h33.07v12.14h-33.07z"/><path d="m286.39 317.26h33.2v12.09h-33.2z"/><path d="m349.38 317.27h33.08v12.13h-33.08z"/><path d="m189.85 373.85c-3.35-.7-6.69-1.41-10-2.09-3.88-.79-7.74-1.77-11.65-2.29-5.9-.78-11.56.73-17.22 2.27a50 50 0 0 1 -9 1.68 16.12 16.12 0 0 1 -17.31-12.82 15.6 15.6 0 0 1 4.68-15.71c6.48-6.15 13-12.31 19.48-18.41a23.25 23.25 0 0 1 32.05 0q9.84 9.21 19.56 18.52c4.83 4.62 6.21 10.28 4.29 16.58s-6.1 10.38-12.69 11.73l-.49.09-1.61.12z"/><path d="m161.17 292.62c-.17 5.38-1.39 10.26-4.77 14.38-5.06 6.22-12.82 6.22-17.84 0-3.78-4.72-5-10.23-4.64-16.16a23 23 0 0 1 3.22-10.84c2.48-3.94 5.86-6.52 10.75-6.39a11.38 11.38 0 0 1 8.93 4.9c3.18 4.19 4.18 9.09 4.35 14.11z"/><path d="m168.52 292.42a24.45 24.45 0 0 1 3.35-12.42c2.45-3.9 5.81-6.44 10.65-6.34a11.32 11.32 0 0 1 8.56 4.38 20.54 20.54 0 0 1 4.42 10.61c.93 6.16 0 12-3.49 17.19-2.58 3.81-6 6.28-10.91 5.8-3.92-.38-6.66-2.72-8.78-5.84a23.33 23.33 0 0 1 -3.8-13.38z"/><path d="m130.85 318.79a20.19 20.19 0 0 1 -1.47 8.2c-3 6.76-10.16 8.19-15.48 3.05-3.53-3.41-5.27-7.74-6.15-12.46a20.69 20.69 0 0 1 .94-12.05c2.75-6.5 9.54-8.15 14.89-3.56 4.23 3.62 6.23 8.43 7 13.83.17 1.2.22 2.38.27 2.99z"/><path d="m198.84 318.46a22.88 22.88 0 0 1 5.56-14.79 15 15 0 0 1 3.81-3.11 8.34 8.34 0 0 1 11.31 2.51 15.33 15.33 0 0 1 2.83 8.34 24.66 24.66 0 0 1 -4.76 16.68 11.26 11.26 0 0 1 -7.53 4.83c-4.2.59-7.83-1.64-9.76-5.87a19.33 19.33 0 0 1 -1.46-8.59z"/></svg>