<svg fill="none" height="500" viewBox="0 0 500 500" width="500" xmlns="http://www.w3.org/2000/svg"><path d="m423.39 163.52h13.73v36.85h-13.73z" fill="#fff"/><path d="m355.47 103.23c-.57-.001-1.139.049-1.7.15.661-.11 1.33-.157 2-.14zm0 0c-.57-.001-1.139.049-1.7.15.661-.11 1.33-.157 2-.14zm0 0c-.57-.001-1.139.049-1.7.15.661-.11 1.33-.157 2-.14zm0 0c-.57-.001-1.139.049-1.7.15.661-.11 1.33-.157 2-.14zm0 0c-.57-.001-1.139.049-1.7.15.661-.11 1.33-.157 2-.14zm0 0c-.57-.001-1.139.049-1.7.15.661-.11 1.33-.157 2-.14zm0 0c-.57-.001-1.139.049-1.7.15.661-.11 1.33-.157 2-.14zm0 0c-.57-.001-1.139.049-1.7.15.661-.11 1.33-.157 2-.14zm0 0c-.57-.001-1.139.049-1.7.15.661-.11 1.33-.157 2-.14zm0 0c-.57-.001-1.139.049-1.7.15.661-.11 1.33-.157 2-.14zm0 0c-.57-.001-1.139.049-1.7.15.661-.11 1.33-.157 2-.14zm0 0c-.57-.001-1.139.049-1.7.15.661-.11 1.33-.157 2-.14zm0 0c-.57-.001-1.139.049-1.7.15.661-.11 1.33-.157 2-.14zm0 0c-.57-.001-1.139.049-1.7.15.661-.11 1.33-.157 2-.14zm0 0c-.57-.001-1.139.049-1.7.15.661-.11 1.33-.157 2-.14zm0 0c-.57-.001-1.139.049-1.7.15.661-.11 1.33-.157 2-.14zm27.23 25.15v-4.2c0-1.11 0-2.19 0-3.27 0-2.27 0-4.42 0-6.58.019-7.406-2.851-14.5268-8-19.85-2.502-2.5529-5.492-4.5766-8.792-5.9509-3.301-1.3743-6.843-2.0711-10.418-2.0491-15.14 0-27.1 12.2-27.23 27.76v6.43 3.23 4.2h-29.4v-4.2c0-1.14 0-2.28 0-3.42 0-2.45 0-5 0-7.42-.31-12.55-9.61-23.72-21.64-26-1.799-.3497-3.627-.5271-5.46-.53-5.385-.0563-10.663 1.4991-15.158 4.466-4.494 2.967-7.998 7.2101-10.062 12.184-2 4.63-2.27 9.64-2.12 15.74v3.43 1.63 4.2h-29.42v-4.18c0-1.12 0-2.24 0-3.36 0-2.37 0-4.81 0-7.19-.066-7.205-2.983-14.0898-8.112-19.1496-5.129-5.0599-12.053-7.8825-19.258-7.8504h-.63c-6.86.2281-13.383 3.0291-18.272 7.8463-4.89 4.8172-7.788 11.2977-8.118 18.1537-.08 2.5 0 5 0 7.68v3.87 4.2h-41.94v20.9 91.58c.072 1.665-.286 3.32-1.041 4.806s-1.881 2.751-3.269 3.674c-31.3399 23.21-43.8999 53.47-37.3399 90 3.29 18.26 10.58 33.58 21.71 45.53 10.9999 11.8 25.7499 20.42 43.9099 25.62 7.479 2.139 15.221 3.219 23 3.21 14.126-.057 28.04-3.443 40.612-9.883 12.573-6.441 23.449-15.755 31.748-27.187 1.069-1.633 2.545-2.959 4.283-3.846 1.738-.888 3.678-1.306 5.627-1.214 41.18.06 82.18.07 120.37.07h56.34v-243.08zm-41.8-16c.302-3.654 1.969-7.059 4.669-9.539s6.235-3.8509 9.901-3.841h.36c3.701.1138 7.222 1.618 9.863 4.213 2.641 2.594 4.208 6.089 4.387 9.787.13 2.5.1 4.93.07 7.48v3.43 4.2h-29.32v-4.2c0-1.16 0-2.34 0-3.48-.08-2.62-.14-5.33.07-8.05zm-83.58-1.3c.545-3.386 2.292-6.462 4.919-8.666 2.628-2.204 5.962-3.3872 9.391-3.334h.91c3.612.2287 7.011 1.785 9.544 4.37 2.533 2.584 4.02 6.014 4.176 9.63.12 2.49.09 4.92.07 7.49v3.51 4.2h-29.16v-4.28c0-1.21 0-2.44-.08-3.72-.184-3.068-.107-6.145.23-9.2zm-84.11 1.63c.238-3.71 1.88-7.191 4.592-9.735 2.712-2.543 6.29-3.9586 10.008-3.9586s7.297 1.4156 10.008 3.9586c2.712 2.544 4.354 6.025 4.592 9.735.17 2.62.12 5.25.09 7.79v3.48 4.2h-29.3v-4.2c0-1.18 0-2.34 0-3.47-.1-2.57-.14-5.2.01-7.8zm47 265.35c-7.179 7.231-15.722 12.966-25.134 16.871s-19.506 5.904-29.696 5.879h-.2c-17.971-.016-35.381-6.262-49.264-17.674s-23.3802-27.284-26.8739-44.912c-3.4938-17.629-.768-35.923 7.713-51.767 8.4809-15.845 22.1929-28.259 38.7989-35.128 16.607-6.869 35.082-7.768 52.277-2.545 17.196 5.224 32.048 16.247 42.028 31.193 9.98 14.945 14.47 32.888 12.705 50.773-1.765 17.884-9.675 34.603-22.384 47.31zm191.59-19.29h-162.66l1.58-5.38c5.27-17.94 6.27-34.77 2.95-50-3.42-15.77-11.56-30.27-24.17-43.09-17.7-18-38.74-27.13-62.49-27.13-10.248.093-20.437 1.57-30.29 4.39l-5.32 1.44v-35h280.4zm0-167.7h-280.41v-49.88h29.16v20.53h12.45v-20.57h71.31v20.61h12.6v-20.66h71.18v20.59h12.6v-20.51h71.13zm-56.37-87.84c-.57-.001-1.139.049-1.7.15.661-.11 1.33-.157 2-.14zm0 0c-.57-.001-1.139.049-1.7.15.661-.11 1.33-.157 2-.14zm0 0c-.57-.001-1.139.049-1.7.15.661-.11 1.33-.157 2-.14zm0 0c-.57-.001-1.139.049-1.7.15.661-.11 1.33-.157 2-.14zm0 0c-.57-.001-1.139.049-1.7.15.661-.11 1.33-.157 2-.14zm0 0c-.57-.001-1.139.049-1.7.15.661-.11 1.33-.157 2-.14zm0 0c-.57-.001-1.139.049-1.7.15.661-.11 1.33-.157 2-.14zm0 0c-.57-.001-1.139.049-1.7.15.661-.11 1.33-.157 2-.14zm0 0c-.57-.001-1.139.049-1.7.15.661-.11 1.33-.157 2-.14zm0 0c-.57-.001-1.139.049-1.7.15.661-.11 1.33-.157 2-.14zm0 0c-.57-.001-1.139.049-1.7.15.661-.11 1.33-.157 2-.14zm0 0c-.57-.001-1.139.049-1.7.15.661-.11 1.33-.157 2-.14zm0 0c-.57-.001-1.139.049-1.7.15.661-.11 1.33-.157 2-.14zm0 0c-.57-.001-1.139.049-1.7.15.661-.11 1.33-.157 2-.14zm0 0c-.57-.001-1.139.049-1.7.15.661-.11 1.33-.157 2-.14zm0 0c-.57-.001-1.139.049-1.7.15.661-.11 1.33-.157 2-.14zm0 0c-.57-.001-1.139.049-1.7.15.661-.11 1.33-.157 2-.14z" fill="#fff"/><path d="m411.84 141.18v49.89h-280.45v-49.88h29.16v20.53h12.48v-20.57h71.3v20.61h12.6v-20.66h71.18v20.59h12.6v-20.51z" fill="#daa900"/><path d="m244.43 323.22c-.029 20.943-8.362 41.02-23.171 55.829s-34.886 23.142-55.829 23.171h-.2c-15.616-.042-30.869-4.71-43.833-13.416s-23.0565-21.058-29.0036-35.497-7.4817-30.317-4.4098-45.627c3.0719-15.311 10.6125-29.368 21.6694-40.395 11.056-11.028 25.133-18.531 40.452-21.562s31.192-1.455 45.615 4.531c14.423 5.985 26.749 16.111 35.421 29.098 8.671 12.987 13.299 28.252 13.299 43.868z" fill="#daa900"/><g fill="#fff"><path d="m286.61 233.42h33.07v12.12h-33.07z"/><path d="m349.35 233.35h33.07v12.13h-33.07z"/><path d="m286.61 275.33h33.07v12.12h-33.07z"/><path d="m349.47 275.32h33.07v12.14h-33.07z"/><path d="m286.39 317.26h33.2v12.09h-33.2z"/><path d="m349.38 317.27h33.08v12.13h-33.08z"/><path d="m189.85 373.85c-3.35-.7-6.69-1.41-10-2.09-3.88-.79-7.74-1.77-11.65-2.29-5.9-.78-11.56.73-17.22 2.27-2.942.834-5.955 1.396-9 1.68-3.959.374-7.916-.728-11.111-3.094-3.195-2.367-5.403-5.831-6.199-9.726-.755-2.795-.716-5.745.11-8.519.827-2.775 2.409-5.265 4.57-7.191 6.48-6.15 13-12.31 19.48-18.41 4.322-4.112 10.059-6.405 16.025-6.405 5.965 0 11.703 2.293 16.025 6.405 6.56 6.14 13.08 12.313 19.56 18.52 4.83 4.62 6.21 10.28 4.29 16.58s-6.1 10.38-12.69 11.73l-.49.09-1.61.12z"/><path d="m161.17 292.62c-.17 5.38-1.39 10.26-4.77 14.38-5.06 6.22-12.82 6.22-17.84 0-3.78-4.72-5-10.23-4.64-16.16.155-3.825 1.261-7.551 3.22-10.84 2.48-3.94 5.86-6.52 10.75-6.39 1.767.067 3.494.545 5.044 1.395 1.55.851 2.88 2.051 3.886 3.505 3.18 4.19 4.18 9.09 4.35 14.11z"/><path d="m168.52 292.42c-.012-4.365 1.145-8.653 3.35-12.42 2.45-3.9 5.81-6.44 10.65-6.34 1.661.057 3.289.479 4.768 1.236 1.48.757 2.774 1.83 3.792 3.144 2.453 3.044 3.986 6.725 4.42 10.61.93 6.16 0 12-3.49 17.19-2.58 3.81-6 6.28-10.91 5.8-3.92-.38-6.66-2.72-8.78-5.84-2.598-3.97-3.923-8.637-3.8-13.38z"/><path d="m130.85 318.79c.085 2.806-.415 5.599-1.47 8.2-3 6.76-10.16 8.19-15.48 3.05-3.53-3.41-5.27-7.74-6.15-12.46-.893-4.021-.566-8.216.94-12.05 2.75-6.5 9.54-8.15 14.89-3.56 4.23 3.62 6.23 8.43 7 13.83.17 1.2.22 2.38.27 2.99z"/><path d="m198.84 318.46c.038-5.434 2.009-10.677 5.56-14.79 1.09-1.239 2.378-2.29 3.81-3.11 1.843-1.128 4.052-1.498 6.162-1.029 2.11.468 3.955 1.737 5.148 3.539 1.739 2.443 2.723 5.343 2.83 8.34.486 5.953-1.206 11.88-4.76 16.68-.859 1.277-1.97 2.364-3.265 3.195s-2.746 1.387-4.265 1.635c-4.2.59-7.83-1.64-9.76-5.87-1.134-2.715-1.633-5.653-1.46-8.59z"/></g></svg>