<svg fill="none" height="500" viewBox="0 0 500 500" width="500" xmlns="http://www.w3.org/2000/svg"><g fill="#000"><path d="m294 253.84h-13.34l6.37 6.31c2.47 2.44 5.24 2.66 7.27.7s1.83-4.61-.3-7.01z"/><path d="m282.66 242.52c-.539-.464-.974-1.037-1.274-1.682s-.459-1.347-.466-2.058h-15.47l10.12 10h13.43c-2.127-2.067-4.24-4.153-6.34-6.26z"/><path d="m233.79 248.79h.38v.01h-.38z"/></g><path d="m355.52 238.9c-.267-.053-.537-.093-.81-.12h-216.55c-.58 0-1.21 0-1.86 0h-.48c-.47-.025-.94-.025-1.41 0-2.814.238-5.465 1.419-7.525 3.351-2.06 1.931-3.408 4.501-3.827 7.294-.418 2.792.117 5.645 1.52 8.095 1.403 2.451 3.592 4.357 6.212 5.41.744.175 1.393.627 1.815 1.265.422.637.585 1.412.455 2.165-.08 9.27-.06 18.55 0 27.82-.003 10.992 2.378 21.853 6.979 31.835 4.6 9.982 11.312 18.848 19.671 25.985 5.228 4.474 11.046 8.209 17.29 11.1 3.426 1.602 6.97 2.939 10.6 4 6.952 2.027 14.158 3.054 21.4 3.05h28.6 42.46c3.793.031 7.583-.25 11.33-.84 3.3-.548 6.563-1.299 9.77-2.25 3.631-1.069 7.177-2.406 10.61-4 10.433-4.764 19.638-11.851 26.91-20.72 11.272-13.943 17.342-31.372 17.17-49.3 0-9 0-17.92.05-26.87 0-.94.55-2.5 1.21-2.73 4.72-1.64 7.25-5.16 8.85-9.62v-5.05c-1.78-5.09-4.89-8.89-10.44-9.87zm-11.69 70.8c-2.384 9.916-7.04 19.143-13.6 26.952-6.56 7.81-14.844 13.988-24.2 18.048-3.505 1.527-7.139 2.735-10.86 3.61-4.59 1.076-9.286 1.629-14 1.65l-20.14.06c-8.947 0-17.9.02-26.86.06h-5.9c-6.847-.053-13.73-.08-20.65-.08-4.735-.02-9.452-.58-14.06-1.67-3.719-.872-7.35-2.081-10.85-3.61-22.78-9.94-39.12-32.77-39.52-58.79-.17-10.51 0-21 0-31.75h202.66c-.92 15.32 1.47 30.54-2.02 45.52zm6.55-55.88c-15.82 0-31.633 0-47.44 0h-164.21c-1 0-2 .3-2.82-.07-1.037-.652-1.987-1.432-2.83-2.32.869-.959 1.834-1.827 2.88-2.59.63-.36 1.65-.07 2.49-.07h212c2 0 5.12-.94 5.21 2.37.08 3.68-3.18 2.67-5.28 2.68z" fill="#fff"/><path d="m355.64 251.19c.1 3.63-3.16 2.62-5.26 2.63-15.82 0-31.633 0-47.44 0h-164.21c-1 0-2 .3-2.82-.07-1.036-.652-1.987-1.432-2.83-2.32.869-.959 1.834-1.827 2.88-2.59.63-.36 1.65-.07 2.49-.07h212c2.02.05 5.1-.89 5.19 2.42z" fill="#daaa00"/><path d="m233.79 248.8v-.01h.38v.01" fill="#daaa00"/><g fill="#fff"><path d="m351.72 162.8c-6.08 0-10.57-3.12-13.23-8.64-1.86-3.85-3.57-7.78-5.43-11.63-3.4-7.1-9.13-10.72-16.95-10.86-6.86-.13-13.72-.09-20.58 0-16.14.2-30.15 11.67-32.38 27.54-1.12 7.91-.5 16.07-.44 24.1.087 1.894.629 3.74 1.58 5.38 1.14 2.07.84 3.68-.67 5.44h-.07c-.66-.44-5.84-3.64-11.49-1-.92.446-1.786.996-2.58 1.64-1.657 1.292-3.06 2.878-4.14 4.68-2 3.51-1.21 6.07-1.21 6.07h-49.53c-7.535-.122-14.915 2.146-21.08 6.48-3.18 1.888-5.96 4.382-8.18 7.34-4.25 5.586-6.901 12.223-7.67 19.2l5.06 4.81 2.93-4.81c.799-6.84 4.044-13.161 9.136-17.798 5.092-4.636 11.689-7.276 18.574-7.432 17.66-.25 35.32-.09 53 0 .913.029 1.785.384 2.46 1 8.207 8.093 16.41 16.197 24.61 24.31l10.11 10h11c-3.38-3.333-6.753-6.667-10.12-10-10.04-9.953-20.077-19.903-30.11-29.85-2.54-2.52-2.74-5.41-.64-7.44s4.74-1.74 7.24.72c8.793 8.667 17.567 17.35 26.32 26.05.67.66 1.33 1.33 2 2 2.28 2.22 4.55 2.47 6.26.69s1.37-3.92-.93-6.25c-1.4-1.4-2.81-2.76-4.2-4.17l-20.4-20.88c.24-.47.64-1.2 1.07-2 3.215 2.416 7.038 3.89 11.042 4.259 4.005.368 8.033-.384 11.634-2.172 3.602-1.788 6.636-4.543 8.763-7.956 2.126-3.413 3.262-7.35 3.281-11.371.09-12.51 0-25 0-37.55v-3.42c4.72.26 9.34.16 13.85.86 3.17.48 5.26 3 6.62 6 1.75 3.81 3.42 7.66 5.27 11.42 4.1 8.37 10.89 12.79 20.18 13.16 10 .4 17.68 7.73 17.78 17.27s-7.71 17.31-17.82 17.6c-6.94.2-13.89 0-20.83.06-9.21 0-14.93 5.54-15.15 14.77-.117 5.956-1.359 11.836-3.66 17.33-.1.25-.22.5-.34.77-.29.62-.66 1.36-1.18 2.46-.75-.91-1.38-1.72-2-2.46s-.95-1.13-1.45-1.64c-2.19-2.22-4.31-2.41-6.06-.7-.659.61-1.066 1.445-1.14 2.34.007.711.166 1.413.466 2.058s.735 1.218 1.274 1.682c2.1 2.113 4.207 4.21 6.32 6.29h11c-.737-.845-1.528-1.64-2.37-2.38 1.41-2.84 2.53-5.31 3.42-7.65 2.21-5.79 3-10.71 3.36-18.2.22-4.87 2.54-7.1 7.48-7.11 6.77 0 13.54.08 20.32 0 14.59-.25 26-11.18 26-25.06-.008-6.726-2.686-13.174-7.444-17.927-4.759-4.753-11.21-7.423-17.936-7.423zm-53.72 17.56c-.066 3.646-1.562 7.119-4.166 9.671-2.605 2.552-6.108 3.977-9.754 3.969-1.805.025-3.597-.308-5.272-.979-1.675-.672-3.201-1.668-4.489-2.933s-2.312-2.772-3.014-4.435-1.067-3.448-1.075-5.253c0-6.93-.44-14 .69-20.75 2.06-12.52 14.8-21.6 27.11-20v32.24c-.03 2.81.06 5.64-.03 8.47z"/><path d="m144.69 189.14c-3.758 0-7.431 1.114-10.556 3.202-3.124 2.088-5.56 5.055-6.998 8.527s-1.814 7.292-1.081 10.978c.733 3.685 2.543 7.071 5.2 9.728s6.043 4.467 9.728 5.2c3.686.733 7.506.357 10.978-1.081s6.439-3.874 8.527-6.998c2.088-3.125 3.202-6.798 3.202-10.556-.013-5.035-2.019-9.86-5.58-13.42-3.56-3.561-8.385-5.567-13.42-5.58zm0 31.62c-2.488 0-4.92-.738-6.989-2.12s-3.681-3.347-4.633-5.646c-.953-2.299-1.202-4.828-.716-7.268.485-2.44 1.683-4.682 3.443-6.441 1.759-1.76 4-2.958 6.441-3.443 2.44-.486 4.969-.237 7.268.716 2.299.952 4.264 2.564 5.646 4.633s2.12 4.501 2.12 6.989c-.005 3.335-1.332 6.532-3.69 8.89-2.359 2.358-5.555 3.685-8.89 3.69z"/><path d="m157.66 129.83c-3.039-.004-6.01.894-8.539 2.579s-4.5 4.083-5.666 6.889-1.473 5.895-.882 8.876c.59 2.981 2.051 5.72 4.199 7.87 2.147 2.15 4.884 3.615 7.864 4.209 2.98.595 6.07.292 8.877-.87 2.808-1.162 5.208-3.131 6.897-5.657 1.689-2.527 2.59-5.497 2.59-8.536-.005-4.069-1.622-7.969-4.498-10.848-2.875-2.879-6.773-4.501-10.842-4.512zm0 24.57c-1.822 0-3.602-.54-5.117-1.552-1.514-1.012-2.695-2.451-3.392-4.134-.697-1.682-.879-3.534-.524-5.321.355-1.786 1.233-3.427 2.521-4.715 1.288-1.289 2.929-2.166 4.715-2.521 1.787-.355 3.639-.173 5.322.524 1.682.697 3.121 1.878 4.133 3.392 1.012 1.515 1.552 3.295 1.552 5.117-.005 2.441-.977 4.781-2.703 6.507s-4.066 2.698-6.507 2.703z"/></g><path d="m166.87 145.19c.002 1.824-.537 3.608-1.55 5.126-1.012 1.518-2.452 2.701-4.137 3.4s-3.54.883-5.329.527c-1.79-.355-3.434-1.233-4.724-2.523-1.29-1.291-2.168-2.934-2.523-4.724-.356-1.789-.172-3.644.527-5.329s1.882-3.125 3.4-4.137c1.518-1.013 3.302-1.552 5.126-1.55 2.442.003 4.783.974 6.509 2.7 1.727 1.727 2.698 4.068 2.701 6.51z" fill="#daaa00"/><path d="m211.5 148.51c-4.778.002-9.448 1.421-13.42 4.077s-7.067 6.429-8.894 10.844-2.304 9.273-1.37 13.959c.933 4.685 3.235 8.989 6.614 12.367s7.684 5.678 12.37 6.61c4.687.931 9.544.452 13.958-1.377s8.187-4.926 10.841-8.898c2.654-3.973 4.071-8.644 4.071-13.422-.008-6.407-2.557-12.549-7.088-17.078-4.532-4.53-10.675-7.077-17.082-7.082zm0 41.9c-3.509 0-6.938-1.04-9.856-2.99-2.917-1.949-5.191-4.72-6.534-7.961-1.342-3.242-1.694-6.809-1.009-10.25.684-3.441 2.374-6.602 4.855-9.083s5.642-4.171 9.083-4.855c3.441-.685 7.008-.333 10.25 1.009 3.241 1.343 6.012 3.617 7.961 6.534 1.95 2.918 2.99 6.347 2.99 9.856-.005 4.703-1.876 9.212-5.202 12.538-3.325 3.326-7.835 5.197-12.538 5.202z" fill="#fff"/><path d="m193.56 358.31-5.56 8.12-.45.66-16.65 24.33c-.503.737-1.179 1.34-1.969 1.757-.789.416-1.668.634-2.561.633h-17.8c-.792-.001-1.575-.173-2.294-.504-.72-.332-1.36-.814-1.876-1.415-.517-.6-.897-1.306-1.116-2.067-.22-.761-.272-1.561-.154-2.344l7-45.28v-.18l.23-1.51 10.87 1.67-1.46 9.47-.06.38-4.71 30.78h8.49l13.51-19.71.35-.51 5.4-7.89c3.487 1.527 7.105 2.735 10.81 3.61z" fill="#fff"/><path d="m344.32 391.89c-.515.603-1.154 1.086-1.874 1.418-.72.331-1.504.503-2.296.502h-17.81c-.894 0-1.774-.218-2.565-.634-.791-.417-1.469-1.019-1.975-1.756l-16.67-24.42-.54-.79-5.42-7.91c3.709-.864 7.334-2.059 10.83-3.57l5.22 7.63.49.72 13.5 19.73h8.5l-4.71-30.68-.13-.83-1.4-9.12 10.87-1.67.17 1.08.12.77 6.93 45.12c.126.781.08 1.58-.134 2.342-.214.761-.592 1.467-1.106 2.068z" fill="#fff"/><path d="m225.69 370.16h8.1v.01h-8.1z" fill="#000"/><path d="m234.17 360.11h-5.9 32.73c-8.927-.007-17.87-.007-26.83 0z" fill="#000"/></svg>