<svg fill="none" height="500" viewBox="0 0 500 500" width="500" xmlns="http://www.w3.org/2000/svg"><g fill="#fff"><path d="m410.84 230.94-173.36-144.4601c-1.299-1.0809-2.935-1.6728-4.625-1.6728s-3.326.5919-4.625 1.6728l-173.36 144.4601c-1.3491 1.26-2.1641 2.99-2.2775 4.833-.1134 1.842.4835 3.659 1.668 5.075s2.8666 2.325 4.7004 2.539 3.68-.282 5.1591-1.387l24.27-20.23v180.86c.0027 1.916.7656 3.752 2.1212 5.106s3.1931 2.114 5.1088 2.114h50.28v-14.45h-43.07v-185.62l130-108.35 130 108.35v29.36h14.45v-17.33l24.3 20.19c1.478 1.171 3.356 1.718 5.231 1.525 1.876-.194 3.602-1.113 4.81-2.561s1.803-3.311 1.657-5.191-1.021-3.629-2.438-4.873z"/><g stroke="#fff" stroke-miterlimit="10" stroke-width="4.2"><path d="m447.26 332.34c-.078-4.338-1.764-8.493-4.73-11.66l-37-39.43c-1.633-1.729-3.602-3.107-5.785-4.049-2.184-.942-4.537-1.429-6.915-1.431h-48.13v-18c0-10.42 0-27.87-20.05-27.87h-134.65c-16.73 0-30.34 12.5-30.34 27.87v125.23c.003 1.364.546 2.672 1.512 3.635.965.964 2.274 1.505 3.638 1.505h20.3c1.363 0 2.67-.542 3.634-1.505.964-.964 1.506-2.272 1.506-3.635 0-2.88.567-5.732 1.669-8.392 1.102-2.661 2.718-5.078 4.754-7.115 2.036-2.036 4.454-3.652 7.115-4.754 2.66-1.102 5.512-1.669 8.392-1.669s5.731.567 8.392 1.669 5.078 2.718 7.115 4.754c2.036 2.037 3.651 4.454 4.754 7.115 1.102 2.66 1.669 5.512 1.669 8.392-.001.675.131 1.344.388 1.969.258.624.637 1.191 1.114 1.669.478.477 1.045.856 1.669 1.113.625.258 1.294.39 1.969.389h127.2c1.363 0 2.671-.542 3.634-1.505.964-.964 1.506-2.272 1.506-3.635-.062-2.919.459-5.82 1.532-8.535 1.074-2.715 2.679-5.187 4.721-7.274 2.042-2.086 4.481-3.743 7.172-4.875 2.691-1.131 5.581-1.714 8.5-1.714s5.809.583 8.5 1.714c2.691 1.132 5.129 2.789 7.171 4.875 2.043 2.087 3.648 4.559 4.721 7.274 1.074 2.715 1.595 5.616 1.533 8.535 0 1.363.541 2.671 1.505 3.635.964.963 2.272 1.505 3.635 1.505h22c.68.002 1.354-.131 1.983-.392.628-.261 1.198-.645 1.677-1.128.959-.976 1.494-2.291 1.49-3.66zm-21.95 45.48c-1.211-7.561-5.077-14.443-10.904-19.412-5.827-4.968-13.234-7.697-20.891-7.697-7.658 0-15.065 2.729-20.892 7.697-5.827 4.969-9.692 11.851-10.903 19.412h-117.72c-1.218-7.557-5.087-14.434-10.914-19.397-5.827-4.964-13.231-7.69-20.886-7.69s-15.059 2.726-20.886 7.69c-5.828 4.963-9.697 11.84-10.914 19.397h-10.4v-120c0-9.7 9-17.59 20-17.59h134.65c7.94 0 9.76 3.3 9.76 17.59v23.13c0 .676.133 1.345.392 1.969.259.625.639 1.192 1.117 1.669.478.478 1.046.856 1.671 1.114.625.257 1.294.389 1.97.388h53.31c.973 0 1.935.198 2.829.581.894.384 1.7.945 2.371 1.649l37 39.46c1.199 1.288 1.882 2.971 1.92 4.73l.42 45.35z"/><path d="m212.17 415.19c-6.376 0-12.609-1.891-17.91-5.435-5.301-3.543-9.432-8.579-11.871-14.47-2.438-5.892-3.074-12.374-1.827-18.628 1.247-6.253 4.321-11.995 8.832-16.501 4.512-4.506 10.258-7.573 16.513-8.812 6.254-1.239 12.736-.595 18.625 1.851 5.888 2.445 10.919 6.583 14.456 11.888 3.536 5.306 5.42 11.541 5.412 17.917-.013 8.54-3.414 16.726-9.457 22.761s-14.233 9.426-22.773 9.429zm0-54.18c-4.353 0-8.609 1.292-12.228 3.711-3.619 2.42-6.439 5.859-8.102 9.882-1.664 4.022-2.097 8.448-1.244 12.717s2.954 8.189 6.035 11.264c3.082 3.075 7.007 5.166 11.278 6.009 4.271.844 8.696.401 12.715-1.272s7.451-4.5 9.863-8.125c2.411-3.624 3.693-7.883 3.683-12.236-.011-5.828-2.333-11.413-6.458-15.53-4.124-4.118-9.714-6.43-15.542-6.43z"/><path d="m393.54 415.19c-6.378.01-12.616-1.873-17.924-5.41-5.307-3.537-9.446-8.57-11.892-14.461-2.446-5.89-3.089-12.374-1.848-18.631 1.241-6.256 4.311-12.004 8.82-16.515 4.51-4.51 10.256-7.582 16.512-8.825s12.741-.602 18.632 1.842c5.892 2.444 10.925 6.581 14.464 11.888 3.539 5.306 5.424 11.544 5.416 17.922-.018 8.53-3.414 16.705-9.445 22.738-6.031 6.032-14.205 9.431-22.735 9.452zm0-54.18c-4.356-.02-8.619 1.254-12.251 3.66-3.631 2.405-6.466 5.835-8.146 9.854-1.681 4.018-2.13 8.446-1.292 12.72.839 4.274 2.927 8.204 6.001 11.29 3.074 3.087 6.994 5.191 11.265 6.047s8.7.425 12.726-1.239c4.025-1.664 7.466-4.485 9.887-8.106 2.421-3.622 3.712-7.88 3.71-12.236 0-5.818-2.304-11.398-6.408-15.521s-9.675-6.453-15.492-6.479z"/><path d="m374 253.26h-2c-3.529.003-6.913 1.406-9.409 3.901-2.495 2.496-3.898 5.88-3.901 9.409v7.37.5c.122 3.164 1.367 6.18 3.51 8.51h21.63c2.152-2.325 3.397-5.344 3.51-8.51 0-.16 0-.33 0-.5v-7.37c-.001-1.75-.348-3.483-1.019-5.099s-1.654-3.084-2.893-4.32-2.709-2.216-4.327-2.884c-1.618-.667-3.351-1.01-5.101-1.007zm0 25.49h-2c-1.188-.003-2.333-.445-3.215-1.24-.882-.796-1.439-1.889-1.565-3.07 0-.16 0-.33 0-.5v-7.37c0-.63.124-1.254.365-1.837.242-.582.595-1.111 1.041-1.557s.975-.799 1.557-1.041c.582-.241 1.207-.365 1.837-.365h2c1.274 0 2.496.505 3.398 1.405.901.9 1.409 2.121 1.412 3.395v7.37.5c-.124 1.191-.688 2.292-1.582 3.089-.893.797-2.051 1.232-3.248 1.221z"/><path d="m440.14 331.07h-100.58c-1.363 0-2.671-.542-3.635-1.505-.964-.964-1.505-2.272-1.505-3.635s.541-2.671 1.505-3.634c.964-.964 2.272-1.506 3.635-1.506h100.58c1.363 0 2.671.542 3.634 1.506.964.963 1.506 2.271 1.506 3.634s-.542 2.671-1.506 3.635c-.963.963-2.271 1.505-3.634 1.505z"/><path d="m339.56 388.1c-1.363 0-2.671-.541-3.635-1.505s-1.505-2.272-1.505-3.635v-102c0-1.363.541-2.671 1.505-3.634.964-.964 2.272-1.506 3.635-1.506s2.67.542 3.634 1.506c.964.963 1.506 2.271 1.506 3.634v102.04c-.011 1.356-.557 2.653-1.52 3.609-.962.955-2.264 1.491-3.62 1.491z"/></g></g><path d="m248.85 339.96c19.926 0 36.08-16.154 36.08-36.08s-16.154-36.08-36.08-36.08-36.08 16.154-36.08 36.08 16.154 36.08 36.08 36.08z" fill="#daa900"/><path d="m270.5 296.66v14.43h-14.43v14.43h-14.43v-14.43h-14.43v-14.43h14.43v-14.43h14.43v14.43z" fill="#fff"/></svg>