<svg height="500" viewBox="0 0 500 500" width="500" xmlns="http://www.w3.org/2000/svg"><path d="m410.84 230.94-173.36-144.46a7.23 7.23 0 0 0 -9.25 0l-173.36 144.46a7.22 7.22 0 0 0 9.25 11.06l24.27-20.23v180.86a7.23 7.23 0 0 0 7.23 7.22h50.28v-14.45h-43.07v-185.62l130-108.35 130 108.35v29.36h14.45v-17.33l24.3 20.19a7.23 7.23 0 0 0 9.26-11.1z"/><g stroke="#000" stroke-miterlimit="10" stroke-width="4.2"><path d="m447.26 332.34a17.52 17.52 0 0 0 -4.73-11.66l-37-39.43a17.49 17.49 0 0 0 -12.7-5.48h-48.13v-18c0-10.42 0-27.87-20.05-27.87h-134.65c-16.73 0-30.34 12.5-30.34 27.87v125.23a5.15 5.15 0 0 0 5.15 5.14h20.3a5.14 5.14 0 0 0 5.14-5.14 21.93 21.93 0 1 1 43.86 0 5.13 5.13 0 0 0 5.14 5.14h127.2a5.14 5.14 0 0 0 5.14-5.14 21.93 21.93 0 1 1 43.85 0 5.14 5.14 0 0 0 5.14 5.14h22a5.13 5.13 0 0 0 3.66-1.52 5.2 5.2 0 0 0 1.49-3.66zm-21.95 45.48a32.2 32.2 0 0 0 -63.59 0h-117.72a32.21 32.21 0 0 0 -63.6 0h-10.4v-120c0-9.7 9-17.59 20-17.59h134.65c7.94 0 9.76 3.3 9.76 17.59v23.13a5.14 5.14 0 0 0 5.15 5.14h53.31a7.18 7.18 0 0 1 5.2 2.23l37 39.46a7.17 7.17 0 0 1 1.92 4.73l.42 45.35z"/><path d="m212.17 415.19a32.23 32.23 0 1 1 32.23-32.19 32.24 32.24 0 0 1 -32.23 32.19zm0-54.18a22 22 0 1 0 22 21.95 22 22 0 0 0 -22-21.96z"/><path d="m393.54 415.19a32.23 32.23 0 1 1 32.18-32.19 32.26 32.26 0 0 1 -32.18 32.19zm0-54.18a22 22 0 1 0 21.9 21.99 22 22 0 0 0 -21.9-22z"/><path d="m374 253.26h-2a13.32 13.32 0 0 0 -13.31 13.31v7.37.5a13.33 13.33 0 0 0 3.51 8.51h21.63a13.22 13.22 0 0 0 3.51-8.51c0-.16 0-.33 0-.5v-7.37a13.32 13.32 0 0 0 -13.34-13.31zm0 25.49h-2a4.82 4.82 0 0 1 -4.78-4.31c0-.16 0-.33 0-.5v-7.37a4.8 4.8 0 0 1 4.8-4.8h2a4.81 4.81 0 0 1 4.81 4.8v7.37.5a4.81 4.81 0 0 1 -4.83 4.31z"/><path d="m440.14 331.07h-100.58a5.14 5.14 0 0 1 0-10.28h100.58a5.14 5.14 0 0 1 0 10.28z"/><path d="m339.56 388.1a5.14 5.14 0 0 1 -5.14-5.14v-102a5.14 5.14 0 1 1 10.28 0v102.04a5.14 5.14 0 0 1 -5.14 5.1z"/></g><circle cx="248.85" cy="303.88" fill="#daa900" r="36.08"/><path d="m270.5 296.66v14.43h-14.43v14.43h-14.43v-14.43h-14.43v-14.43h14.43v-14.43h14.43v14.43z"/></svg>