<svg fill="none" height="500" viewBox="0 0 500 500" width="500" xmlns="http://www.w3.org/2000/svg"><path d="m144.5 92.58h138.64c.53 0 1.039.2107 1.414.5858s.586.8838.586 1.4142v40.79h-142.64v-40.79c0-.5304.211-1.0391.586-1.4142s.884-.5858 1.414-.5858z" fill="#daa900"/><g fill="#000"><path d="m171 142.5c-1.891 0-3.704-.751-5.042-2.088-1.337-1.337-2.088-3.151-2.088-5.042v-14.27c0-1.891.751-3.705 2.088-5.042 1.338-1.337 3.151-2.088 5.042-2.088s3.705.751 5.042 2.088 2.088 3.151 2.088 5.042v14.27c0 1.891-.751 3.705-2.088 5.042s-3.151 2.088-5.042 2.088z"/><path d="m199.56 142.5c-1.891 0-3.704-.751-5.041-2.088-1.338-1.337-2.089-3.151-2.089-5.042v-14.27c0-.936.185-1.863.543-2.729.358-.865.883-1.651 1.546-2.313.662-.662 1.448-1.187 2.313-1.545.865-.359 1.792-.543 2.728-.543.937 0 1.864.184 2.729.543.865.358 1.651.883 2.313 1.545s1.187 1.448 1.545 2.313c.359.866.543 1.793.543 2.729v14.27c0 1.891-.751 3.705-2.088 5.042s-3.151 2.088-5.042 2.088z"/><path d="m228.09 142.5c-1.891 0-3.704-.751-5.041-2.088-1.338-1.337-2.089-3.151-2.089-5.042v-14.27c0-1.891.751-3.705 2.089-5.042 1.337-1.337 3.15-2.088 5.041-2.088s3.705.751 5.042 2.088 2.088 3.151 2.088 5.042v14.27c0 1.891-.751 3.705-2.088 5.042s-3.151 2.088-5.042 2.088z"/><path d="m256.62 142.5c-.937.001-1.865-.182-2.731-.54-.867-.358-1.654-.883-2.317-1.545s-1.189-1.448-1.548-2.314-.544-1.794-.544-2.731v-14.27c.069-1.846.851-3.594 2.182-4.875 1.33-1.282 3.106-1.998 4.953-1.998 1.848 0 3.623.716 4.954 1.998 1.33 1.281 2.112 3.029 2.181 4.875v14.27c0 1.891-.751 3.705-2.088 5.042s-3.151 2.088-5.042 2.088z"/></g><path d="m121.1 228.09h185.43v114.11h-185.43z" fill="#daa900"/><g fill="#fff"><path d="m270.88 86.48h-114.11c-5.399.0053-10.576 2.1517-14.394 5.9685-3.819 3.8169-5.968 8.9925-5.976 14.3915v28.53c.003 1.617.646 3.167 1.789 4.31 1.144 1.144 2.694 1.787 4.311 1.79h142.65c1.615-.005 3.163-.65 4.304-1.793s1.783-2.692 1.786-4.307v-28.53c-.005-5.398-2.152-10.5737-5.969-14.3908s-8.993-5.9639-14.391-5.9692zm8.17 42.79h-130.44v-22.43c0-2.165.859-4.242 2.389-5.774 1.53-1.5314 3.606-2.3933 5.771-2.396h114.11c2.165.0053 4.24.8678 5.771 2.399 1.531 1.531 2.394 3.606 2.399 5.771z"/><path d="m295.35 167.12-18.35-7.34v-24.41c0-1.618-.643-3.169-1.787-4.313s-2.695-1.787-4.313-1.787h-114.13c-1.618 0-3.169.643-4.313 1.787s-1.787 2.695-1.787 4.313v24.41l-18.38 7.34c-5.114 2.024-9.5 5.543-12.584 10.097-3.084 4.555-4.724 9.933-4.706 15.433v192.35c.008 7.288 2.907 14.276 8.06 19.43 5.154 5.153 12.142 8.052 19.43 8.06h142.66c7.287-.011 14.274-2.91 19.427-8.063s8.052-12.139 8.063-19.427v-192.35c.017-5.5-1.624-10.877-4.708-15.431s-7.469-8.073-12.582-10.099zm5.09 217.88c-.005 4.054-1.618 7.94-4.484 10.806-2.867 2.866-6.753 4.479-10.806 4.484h-142.65c-4.054-.005-7.94-1.618-10.806-4.484s-4.479-6.752-4.484-10.806v-192.35c-.013-3.059.897-6.051 2.612-8.584 1.714-2.534 4.153-4.491 6.998-5.616l22.18-8.89c1.134-.449 2.106-1.229 2.789-2.239.683-1.009 1.046-2.202 1.041-3.421v-22.43h101.95v22.43c-.004 1.219.36 2.411 1.043 3.42.683 1.01 1.654 1.79 2.787 2.24l22.22 8.89c2.845 1.125 5.284 3.082 6.998 5.616 1.715 2.533 2.625 5.525 2.612 8.584z"/><path d="m313.67 413.52c-14.105-.002-27.893-4.187-39.621-12.024-11.727-7.838-20.867-18.978-26.263-32.01-5.397-13.032-6.808-27.372-4.054-41.206 2.753-13.834 9.546-26.541 19.521-36.514 9.974-9.974 22.682-16.765 36.517-19.516 13.834-2.751 28.174-1.338 41.205 4.06 13.032 5.398 24.17 14.539 32.006 26.268 7.836 11.728 12.019 25.517 12.019 39.622-.024 18.91-7.547 37.038-20.919 50.408s-31.501 20.891-50.411 20.912zm0-128.38c-11.285 0-22.317 3.347-31.701 9.616-9.383 6.27-16.697 15.182-21.016 25.608-4.318 10.426-5.448 21.899-3.247 32.968 2.202 11.068 7.636 21.236 15.616 29.216s18.147 13.414 29.216 15.616c11.069 2.201 22.541 1.071 32.968-3.247 10.426-4.319 19.338-11.633 25.608-21.016 6.269-9.384 9.616-20.416 9.616-31.701-.016-15.128-6.033-29.633-16.73-40.33-10.698-10.697-25.202-16.714-40.33-16.73z"/><path d="m226 300.46-13.32 13.32c-1.738 1.798-3.817 3.232-6.115 4.218-2.299.986-4.77 1.505-7.271 1.526s-4.98-.456-7.295-1.403c-2.314-.948-4.417-2.346-6.185-4.115-1.769-1.768-3.167-3.871-4.115-6.185-.947-2.315-1.424-4.795-1.403-7.295.021-2.501.54-4.973 1.526-7.271s2.42-4.377 4.218-6.115l13.32-13.32z"/></g><path d="m226 300.46 13.32-13.32c3.534-3.533 5.52-8.325 5.521-13.321.001-4.997-1.983-9.79-5.516-13.324-1.749-1.75-3.826-3.138-6.112-4.085-2.285-.948-4.735-1.435-7.209-1.436-4.997-.001-9.79 1.983-13.324 5.516l-13.32 13.33z" fill="#000"/><path d="m313.67 401.32c32.651 0 59.12-26.469 59.12-59.12s-26.469-59.12-59.12-59.12-59.12 26.469-59.12 59.12 26.469 59.12 59.12 59.12z" fill="#daa900"/><path d="m347.9 330.79v22.82h-22.82v22.82h-22.81v-22.82h-22.82v-22.82h22.82v-22.81h22.81v22.81z" fill="#fff"/></svg>