<svg fill="none" height="500" viewBox="0 0 500 500" width="500" xmlns="http://www.w3.org/2000/svg"><g fill="#fff"><path d="m277.54 413.52h-109.72c-17 0-30.88-16.74-30.88-37.32l.11-255.09c1.29-19.9 14.51-34.63 30.77-34.63h109.72c17 0 30.88 16.74 30.88 37.32v62.4c.032.756-.089 1.511-.357 2.218-.267.708-.675 1.355-1.198 1.901-.524.546-1.153.981-1.849 1.278s-1.444.45-2.201.45-1.506-.153-2.202-.45c-.695-.297-1.324-.732-1.848-1.278-.523-.546-.931-1.193-1.198-1.901-.268-.707-.389-1.462-.357-2.218v-62.4c0-14.4-8.82-26.11-19.67-26.11h-109.72c-10.11 0-18.7 10.44-19.57 23.79l-.1 254.72c0 14.4 8.82 26.11 19.67 26.11h109.72c10.85 0 19.67-11.71 19.67-26.11v-63.75c-.032-.756.089-1.511.357-2.218.267-.708.675-1.355 1.198-1.901.524-.546 1.153-.981 1.848-1.278.696-.297 1.445-.45 2.202-.45s1.505.153 2.201.45 1.325.732 1.849 1.278c.523.546.931 1.193 1.198 1.901.268.707.389 1.462.357 2.218v63.75c0 20.58-13.85 37.32-30.88 37.32z"/><path d="m260.05 92.1h-74.72c-1.011 0-1.83.8193-1.83 1.83v16.88c0 1.011.819 1.83 1.83 1.83h74.72c1.011 0 1.83-.819 1.83-1.83v-16.88c0-1.0107-.819-1.83-1.83-1.83z"/><path d="m141.8 153.02h-6.89c-.414 0-.75.336-.75.75v43.97c0 .414.336.75.75.75h6.89c.414 0 .75-.336.75-.75v-43.97c0-.414-.336-.75-.75-.75z"/><path d="m141.8 211.42h-6.89c-.414 0-.75.336-.75.75v43.97c0 .414.336.75.75.75h6.89c.414 0 .75-.336.75-.75v-43.97c0-.414-.336-.75-.75-.75z"/></g><path d="m365.84 245.6c.006 12.783-3.494 25.322-10.118 36.254-6.625 10.932-16.12 19.839-27.453 25.751s-24.07 8.603-36.826 7.78c-12.757-.822-25.043-5.127-35.523-12.445-.88-.617-1.902-1.002-2.97-1.117s-2.149.042-3.14.457l-18.26 7.72 7.69-18.25c.419-.99.58-2.07.466-3.139s-.498-2.092-1.116-2.971c-6.285-9.003-10.362-19.359-11.9-30.23-1.539-10.871-.495-21.952 3.046-32.345s9.48-19.806 17.335-27.477c7.856-7.671 17.407-13.384 27.882-16.676 10.474-3.293 21.577-4.072 32.408-2.276 10.832 1.797 21.088 6.119 29.938 12.617 8.851 6.498 16.047 14.989 21.005 24.785s7.54 20.622 7.536 31.602z" fill="#daa900"/><path d="m329.67 234.35v22.51h-22.5v22.5h-22.5v-22.5h-22.5v-22.51h22.5v-22.5h22.5v22.5z" fill="#fff"/></svg>