<svg fill="none" height="225" viewBox="0 0 200 225" width="200" xmlns="http://www.w3.org/2000/svg"><g fill="#fff"><path d="m61.5538 141.722 10.1515-2.346c.2135-.049.5662-.13.997-.269 2.801-.754 5.2013-2.565 6.6953-5.054 1.4941-2.488 1.9654-5.459 1.3146-8.286-.0142-.062-.0277-.121-.042-.183-.3335-1.355-.9176-2.636-1.7222-3.775-1.1377-1.444-2.5455-2.651-4.1448-3.555-1.8826-1.074-3.853-1.987-5.89-2.728l-11.1306-4.063c-6.2464-2.322-12.4924-4.586-18.7972-6.794-4.0886-1.455-7.5527-2.732-10.5628-3.663-.5682-.175-1.1949-.35-1.7046-.526-3.6389-1.1153-6.1957-1.5777-8.3595-1.5929-1.4452-.0531-2.8848.2095-4.2188.7693-1.3901.5996-2.6386 1.4856-3.6638 2.6006-.50996.58-.98943 1.186-1.43645 1.815-.41947.642-.80416 1.305-1.15241 1.988-.38346.733-.71301 1.492-.98598 2.272-2.06584 6.107-3.09487 12.516-3.04436 18.962.03724 5.827.19375 13.306 3.39669 18.376.7718 1.301 1.80752 2.426 3.04041 3.302 2.2818 1.575 4.5876 1.783 6.9865 1.956 3.5849.257 7.0579-.624 10.5202-1.424l33.725-7.792z"/><path d="m174.81 87.8259c-2.772-5.817-6.498-11.1275-11.024-15.7111-.585-.5819-1.212-1.1203-1.876-1.6108-.613-.4599-1.25-.8874-1.908-1.2807-.676-.3709-1.372-.7053-2.084-1.0019-1.408-.5526-2.917-.8017-4.427-.7312-1.445.0822-2.855.478-4.132 1.1601-1.936.9624-4.031 2.5093-6.817 5.0995-.385.3823-.869.8137-1.303 1.2205-2.299 2.1613-4.856 4.8258-7.899 7.9286-4.701 4.7507-9.331 9.5274-13.932 14.3563l-8.232 8.5368c-1.507 1.56-2.88 3.245-4.103 5.037-1.042 1.514-1.78 3.217-2.171 5.014-.226 1.377-.193 2.785.098 4.15.014.062.028.121.042.183.651 2.828 2.372 5.292 4.803 6.873 2.43 1.582 5.379 2.158 8.227 1.606.451-.065.801-.143 1.014-.195l43.892-10.141c3.459-.8 6.969-1.532 10.077-3.336 2.084-1.209 4.067-2.407 5.427-4.824.726-1.328 1.166-2.794 1.291-4.302.673-5.982-2.45-12.7755-4.963-18.0311z"/><path d="m96.2523 106.283c3.1807-3.996 3.1728-9.9514 3.4573-14.8205.9574-16.2682 1.9654-32.5386 2.7644-48.8158.305-6.1653.969-12.2471.602-18.4593-.302-5.1248-.339-11.0088-3.5747-15.2145-5.7116-7.41641-17.8906-6.80687-26.2005-5.65645-2.5455.35334-5.0956.82841-7.625 1.43566-2.5295.60726-5.0331 1.27048-7.4826 2.05494-7.9737 2.61189-19.1835 7.40625-21.0817 16.59395-1.0701 5.1941 1.4656 10.5073 3.4328 15.2474 2.3844 5.746 5.6413 10.9219 8.6097 16.3308 7.8478 14.2795 15.8412 28.4699 23.8121 42.6753 2.3802 4.2405 4.9749 9.6115 9.5802 11.8085.3044.133.6153.251.9316.352 2.0651.782 4.3162.933 6.4678.433.1299-.03.2568-.059.3837-.089 1.9868-.54 3.7857-1.62 5.1971-3.121.2549-.239.4972-.491.7258-.755z"/><path d="m92.4442 149.836c-1.2415-1.746-3.0033-3.055-5.0336-3.739s-4.2251-.709-6.2708-.069c-.4805.159-.9488.354-1.4012.581-.6996.356-1.3671.772-1.9951 1.244-1.8292 1.355-3.3696 3.116-4.7721 4.882-.3558.45-.6805 1.05-1.1037 1.435l-7.06 9.712c-4.0016 5.44-7.948 10.894-11.8613 16.435-2.5533 3.577-4.7619 6.598-6.5065 9.271-.3306.503-.6739 1.065-.988 1.513-2.0909 3.235-3.2751 5.596-3.8829 7.699-.4565 1.398-.601 2.878-.4232 4.337.1943 1.52.706 2.981 1.5018 4.29.4231.656.8791 1.291 1.3663 1.901.5063.588 1.044 1.147 1.6107 1.676.6053.577 1.2526 1.109 1.9367 1.591 4.873 3.39 10.2076 5.826 15.819 7.708 4.6695 1.55 9.5232 2.478 14.4358 2.759.8357.043 1.6734.024 2.5066-.054.7722-.067 1.5404-.175 2.3014-.323.7605-.177 1.5109-.396 2.2482-.653 1.4346-.537 2.7409-1.368 3.8345-2.441 1.0352-1.037 1.832-2.287 2.3347-3.664.816-2.034 1.3527-4.617 1.7056-8.451.031-.545.1087-1.199.163-1.799.2784-3.181.4061-6.918.6108-11.312.3452-6.758.616-13.486.8301-20.233 0 0 .4547-11.99.4533-11.997.1041-2.763.0189-5.825-.7476-8.576-.3365-1.319-.8808-2.575-1.6125-3.723z"/><path d="m172.135 168.61c-1.474-1.616-3.562-3.227-6.855-5.219-.475-.265-1.032-.619-1.546-.927-2.742-1.649-6.045-3.384-9.903-5.479-5.927-3.254-11.858-6.426-17.845-9.572l-10.578-5.61c-.548-.161-1.105-.557-1.622-.806-2.032-.972-4.187-1.879-6.423-2.295-.771-.148-1.553-.229-2.337-.243-.507-.006-1.012.025-1.514.092-2.115.328-4.073 1.315-5.595 2.822-1.522 1.506-2.53 3.454-2.881 5.567-.161 1.344-.112 2.704.146 4.033.517 2.815 1.774 5.599 3.074 8.038l5.649 10.587c3.143 5.971 6.324 11.908 9.586 17.826 2.103 3.86 3.854 7.164 5.494 9.902.311.515.663 1.069.929 1.546 1.996 3.292 3.6 5.364 5.226 6.85 1.053 1.017 2.316 1.791 3.699 2.269 1.454.482 2.994.653 4.518.502.776-.092 1.546-.225 2.307-.4.75-.201 1.489-.441 2.213-.72.783-.294 1.543-.645 2.274-1.05 4.295-2.408 8.253-5.372 11.774-8.815 4.222-4.155 7.954-8.685 10.857-13.872.404-.734.753-1.496 1.046-2.28.274-.726.511-1.465.71-2.215.171-.762.303-1.533.394-2.308.145-1.524-.032-3.06-.519-4.511-.479-1.389-1.257-2.657-2.278-3.712z"/></g><path d="m189.142 202.658h1.136c.56 0 1.009-.144 1.346-.431.343-.295.515-.666.515-1.115 0-.526-.151-.901-.452-1.125-.302-.231-.778-.347-1.43-.347h-1.115zm4.564-1.588c0 .561-.151 1.059-.452 1.493-.295.428-.712.747-1.252.958l2.503 4.154h-1.766l-2.177-3.723h-1.42v3.723h-1.557v-9.371h2.745c1.164 0 2.016.228 2.556.684.547.456.82 1.15.82 2.082zm-11.116 1.914c0-1.402.35-2.717 1.051-3.944.702-1.227 1.666-2.194 2.893-2.902s2.548-1.062 3.964-1.062c1.403 0 2.717.35 3.944 1.051s2.195 1.665 2.903 2.892 1.062 2.549 1.062 3.965c0 1.381-.34 2.678-1.02 3.891s-1.634 2.184-2.861 2.914c-1.227.729-2.569 1.093-4.028 1.093-1.451 0-2.79-.361-4.017-1.083-1.227-.729-2.184-1.7-2.871-2.913-.68-1.213-1.02-2.514-1.02-3.902zm1.104 0c0 1.213.305 2.349.915 3.408.61 1.051 1.441 1.882 2.492 2.492 1.059.603 2.191.905 3.397.905 1.22 0 2.353-.305 3.397-.915 1.045-.61 1.872-1.434 2.482-2.472.617-1.045.926-2.184.926-3.418 0-1.22-.305-2.352-.915-3.397-.61-1.044-1.437-1.872-2.482-2.482-1.038-.617-2.174-.925-3.408-.925-1.22 0-2.352.305-3.397.915-1.044.61-1.875 1.437-2.492 2.482-.61 1.037-.915 2.173-.915 3.407z" fill="#000"/></svg>