<svg fill="none" height="385" viewBox="0 0 1000 385" width="1000" xmlns="http://www.w3.org/2000/svg"><g fill="#fff"><path d="m806.495 227.151 16.269-3.759c.342-.079.907-.209 1.597-.431 4.489-1.208 8.336-4.111 10.73-8.099s3.15-8.749 2.107-13.28c-.023-.099-.045-.194-.068-.293-.534-2.172-1.47-4.224-2.76-6.05-1.823-2.313-4.079-4.248-6.642-5.697-3.017-1.721-6.175-3.184-9.439-4.371l-17.837-6.512c-10.011-3.722-20.02-7.35-30.124-10.888-6.552-2.332-12.104-4.377-16.928-5.87-.91-.281-1.915-.561-2.731-.843-5.832-1.787-9.93-2.528-13.397-2.552-2.316-.085-4.623.335-6.761 1.232-2.228.961-4.229 2.382-5.872 4.168-.817.929-1.585 1.9-2.302 2.909-.672 1.028-1.288 2.092-1.846 3.186-.615 1.174-1.143 2.391-1.58 3.641-3.311 9.786-4.96 20.058-4.879 30.387.059 9.339.31 21.325 5.443 29.45 1.237 2.085 2.897 3.887 4.873 5.29 3.656 2.526 7.352 2.858 11.196 3.135 5.745.412 11.311-.999 16.859-2.281l54.047-12.487z"/><path d="m987.995 140.779c-4.442-9.322-10.414-17.832-17.667-25.178-.938-.932-1.943-1.795-3.007-2.581-.982-.737-2.003-1.422-3.057-2.053-1.084-.594-2.199-1.13-3.34-1.605-2.256-.886-4.674-1.285-7.095-1.172-2.316.132-4.575.766-6.622 1.859-3.102 1.543-6.459 4.021-10.924 8.172-.617.613-1.392 1.304-2.088 1.956-3.684 3.464-7.782 7.734-12.659 12.706-7.534 7.614-14.953 15.269-22.326 23.007l-13.193 13.681c-2.416 2.5-4.616 5.2-6.576 8.072-1.67 2.427-2.851 5.156-3.478 8.035-.363 2.208-.31 4.464.157 6.652.023.099.044.193.067.292 1.042 4.532 3.801 8.481 7.696 11.015 3.895 2.535 8.622 3.458 13.185 2.574.723-.105 1.284-.229 1.625-.313l70.34-16.252c5.543-1.281 11.169-2.455 16.149-5.346 3.34-1.937 6.517-3.857 8.696-7.73 1.165-2.128 1.87-4.477 2.07-6.895 1.079-9.586-3.927-20.473-7.953-28.896z"/><path d="m862.1 170.358c5.097-6.403 5.084-15.948 5.54-23.751 1.534-26.071 3.15-52.1451 4.43-78.2304.49-9.8803 1.554-19.6268.966-29.5821-.484-8.2129-.544-17.6424-5.729-24.3823-9.153-11.88529-28.671-10.90846-41.988-9.06485-4.08.56627-8.166 1.32758-12.22 2.30075s-8.066 2.03603-11.991 3.2932c-12.779 4.1857-30.743 11.869-33.785 26.5929-1.715 8.3238 2.349 16.8385 5.501 24.4349 3.821 9.2083 9.041 17.503 13.798 26.171 12.576 22.8839 25.386 45.6249 38.16 68.3899 3.815 6.796 7.973 15.403 15.353 18.924.488.213.986.402 1.493.565 3.309 1.253 6.917 1.494 10.365.693.208-.048.412-.095.615-.142 3.184-.866 6.067-2.597 8.329-5.002.408-.383.797-.786 1.163-1.21z"/><path d="m855.998 240.155c-1.989-2.799-4.813-4.897-8.066-5.993-3.254-1.097-6.771-1.135-10.05-.11-.77.255-1.52.567-2.245.931-1.121.571-2.191 1.238-3.197 1.993-2.932 2.172-5.4 4.995-7.648 7.824-.57.722-1.091 1.683-1.769 2.3l-11.314 15.563c-6.413 8.719-12.737 17.46-19.008 26.34-4.092 5.732-7.632 10.573-10.427 14.856-.53.807-1.08 1.708-1.584 2.425-3.351 5.185-5.248 8.968-6.222 12.339-.732 2.239-.964 4.611-.679 6.95.312 2.435 1.132 4.777 2.407 6.874.678 1.052 1.409 2.07 2.19 3.048.811.941 1.673 1.837 2.581 2.685.97.925 2.007 1.777 3.104 2.549 7.809 5.433 16.358 9.337 25.35 12.354 7.484 2.484 15.262 3.971 23.135 4.421 1.339.068 2.682.039 4.017-.087 1.237-.108 2.468-.28 3.688-.517 1.219-.285 2.421-.634 3.603-1.047 2.299-.86 4.392-2.193 6.145-3.912 1.659-1.662 2.936-3.665 3.741-5.871 1.308-3.26 2.168-7.399 2.734-13.544.049-.874.174-1.922.261-2.882.446-5.099.651-11.088.979-18.129.553-10.83.987-21.612 1.33-32.424 0 0 .729-19.216.727-19.226.166-4.428.03-9.335-1.198-13.744-.54-2.113-1.412-4.127-2.585-5.966z"/><path d="m983.707 270.24c-2.361-2.589-5.707-5.171-10.985-8.362-.761-.425-1.654-.992-2.478-1.486-4.394-2.643-9.687-5.423-15.87-8.781-9.498-5.215-19.002-10.299-28.596-15.34l-16.953-8.991c-.879-.256-1.772-.891-2.6-1.29-3.257-1.558-6.709-3.012-10.293-3.679-1.235-.237-2.488-.367-3.746-.388-.811-.01-1.621.039-2.425.147-3.39.525-6.527 2.108-8.966 4.522-2.439 2.413-4.055 5.536-4.617 8.922-.259 2.153-.18 4.333.233 6.462.829 4.511 2.843 8.974 4.927 12.882l9.053 16.966c5.037 9.57 10.135 19.083 15.361 28.567 3.371 6.187 6.177 11.481 8.805 15.869.498.825 1.063 1.714 1.489 2.478 3.199 5.275 5.769 8.595 8.375 10.977 1.688 1.63 3.711 2.871 5.928 3.637 2.331.772 4.797 1.046 7.241.804 1.242-.148 2.476-.361 3.696-.64 1.202-.323 2.386-.708 3.547-1.154 1.254-.472 2.472-1.035 3.645-1.684 6.882-3.858 13.225-8.608 18.867-14.126 6.767-6.658 12.748-13.919 17.4-22.231.647-1.176 1.207-2.397 1.677-3.654.438-1.163.818-2.348 1.136-3.549.276-1.222.487-2.456.633-3.7.231-2.441-.053-4.904-.833-7.228-.767-2.227-2.013-4.258-3.651-5.95z"/><path clip-rule="evenodd" d="m400.03 105.19c0-13.9811 11.39-25.4023 25.137-25.4023 13.55 0 24.547 11.4212 25.136 25.5993v198.295c0 13.981-11.39 25.402-25.136 25.402-14.14 0-25.137-11.421-25.137-25.402zm-23.373 122.482c-.196 3.938-1.178 11.224-6.284 16.541-5.499 5.71-12.961 7.089-17.281 7.089-17.969.098-35.937.147-53.905.197-17.969.049-35.939.098-53.908.197 1.571 4.923 4.713 12.405 11.783 19.297 4.32 4.136 8.444 6.499 10.211 7.483 2.161 1.379 9.623 5.317 18.853 5.317 9.819 0 18.46-3.151 26.904-7.483l.706-.365c5.868-3.041 11.924-6.179 18.343-7.315 6.284-.984 12.961.197 17.87 4.53 5.892 5.119 8.248 12.602 6.088 20.282-2.553 8.664-9.819 16.147-17.478 20.676-4.32 2.56-9.033 4.726-13.746 6.498-6.088 2.167-12.372 3.742-18.656 4.726-6.285.985-12.765 1.379-19.246 1.182-3.142 0-6.48 0-9.819-.394-3.534-.394-7.069-1.181-10.408-1.969-5.498-1.182-10.604-2.954-15.71-5.317-4.91-2.166-9.819-4.923-14.336-8.073-4.517-3.151-8.641-6.892-12.568-10.831-3.732-3.938-7.266-8.27-10.408-12.996-10.605-16.147-15.515-36.036-14.533-55.334.786-18.904 7.07-37.808 18.46-53.167 1.234-1.924 2.658-3.561 4.007-5.11.584-.671 1.154-1.325 1.688-1.979 14.066-17.196 32.858-22.638 40.61-24.883l.434-.126c22.191-6.301 40.65-2.166 48.113 0 3.731.985 24.744 7.483 41.043 25.009.786.787 2.946 3.347 5.695 7.089 10.326 14.065 13.887 27.162 15.093 31.599l.029.104c1.178 4.332 2.356 10.24 2.356 17.526zm-115.275-32.492c-11.39 9.256-14.532 21.071-15.318 24.812h85.622c-.785-3.545-4.124-15.556-15.514-24.812-11.586-9.255-23.762-9.845-27.493-9.845s-15.907.59-27.297 9.845zm325.598-52.182c-22.387 0-42.811 10.042-57.343 26.387v-.591c-.589-13.194-11.587-23.827-24.941-23.827-13.943 0-25.136 11.224-25.136 25.205v189.237c0 13.981 11.193 25.206 25.136 25.206 13.944 0 25.137-11.225 25.137-25.206v-7.286-51.789c14.532 16.148 34.76 26.387 57.343 26.387 44.971 0 81.498-40.762 81.498-91.566-.196-50.805-36.723-92.157-81.694-92.157zm-10.997 142.568c-25.53 0-46.346-22.252-46.346-50.017 0-27.963 20.62-50.214 46.346-50.214 25.529 0 46.345 22.251 46.345 50.214-.196 27.765-20.816 50.017-46.345 50.017zm-414.558-37.218-8.248 18.116c-3.731 7.877-7.462 15.951-10.997 24.024-1.128 2.478-2.264 5.006-3.416 7.569-15.696 34.924-34.324 76.373-74.9398 85.179-19.6381 4.332-49.2915-1.575-60.2888-20.085-10.9973-18.708 5.30227-40.172 26.315-35.249 3.3142.739 6.5731 2.364 9.8597 4.002 5.4769 2.731 11.0305 5.5 17.0444 4.269 5.695-.985 9.2299-5.12 13.7466-10.437 6.2842-7.286 9.0335-14.965 10.2118-19.494-.0982-.197-.1964-.443-.2946-.69-.0982-.246-.1964-.492-.2946-.689-5.112-9.537-9.5764-18.063-13.3059-25.186-2.431-4.643-4.5497-8.69-6.3321-12.031-3.657-6.932-6.4195-12.173-8.5677-16.248-6.2731-11.901-7.309-13.866-10.0884-19-6.0878-11.618-12.5684-22.843-19.2453-34.067-7.2661-12.209-14.72853-25.796-8.6407-40.171 4.9095-11.618 17.4778-17.526 29.457-13.784 12.6397 3.836 18.2371 15.863 23.4718 27.111.9464 2.033 1.881 4.041 2.8432 5.971 8.4444 16.738 16.6923 33.476 24.9403 50.214.7261 1.664 1.8358 3.933 3.1843 6.69 1.2045 2.462 2.5998 5.314 4.0818 8.472.775 1.641 1.512 3.168 2.179 4.548.853 1.767 1.59 3.294 2.141 4.51 3.83-9.55 7.708-19.051 11.587-28.552 3.878-9.501 7.757-19.003 11.586-28.553.107-.534 1.021-2.571 2.398-5.642 1.164-2.596 2.66-5.93 4.279-9.718.548-1.294 1.099-2.637 1.663-4.01 5.101-12.422 11.233-27.357 24.849-31.435 9.819-2.954 20.816.985 26.511 9.255 2.946 4.135 4.124 8.861 4.32 13.587.158 10.451-4.89 21.667-9.223 31.291-1.055 2.344-2.068 4.593-2.952 6.714-.041.081-.212.467-.521 1.159-1.198 2.691-4.461 10.017-10.084 22.078-2.029 4.323-3.976 8.647-5.948 13.024-1.081 2.401-2.169 4.817-3.282 7.258z" fill-rule="evenodd"/><path d="m687.728 310.153h1.821c.898 0 1.618-.23 2.157-.691.55-.471.826-1.067.826-1.786 0-.843-.242-1.444-.725-1.803-.483-.371-1.247-.557-2.292-.557h-1.787zm7.315-2.545c0 .899-.242 1.697-.725 2.394-.472.685-1.14 1.196-2.005 1.533l4.011 6.658h-2.832l-3.488-5.967h-2.276v5.967h-2.494v-15.017h4.399c1.865 0 3.23.365 4.095 1.095.877.731 1.315 1.843 1.315 3.337zm-17.815 3.068c0-2.247.562-4.354 1.686-6.32 1.123-1.967 2.668-3.517 4.635-4.652 1.966-1.135 4.084-1.702 6.353-1.702 2.248 0 4.354.562 6.321 1.685 1.966 1.124 3.517 2.669 4.651 4.635 1.135 1.966 1.703 4.084 1.703 6.354 0 2.213-.545 4.292-1.635 6.236s-2.618 3.5-4.584 4.668c-1.967 1.169-4.118 1.753-6.456 1.753-2.325 0-4.471-.578-6.438-1.736-1.966-1.168-3.5-2.724-4.601-4.668-1.09-1.944-1.635-4.028-1.635-6.253zm1.77 0c0 1.944.489 3.764 1.466 5.461.978 1.685 2.309 3.016 3.995 3.994 1.696.966 3.511 1.449 5.443 1.449 1.956 0 3.77-.488 5.444-1.466 1.674-.977 3-2.298 3.978-3.961.989-1.674 1.483-3.5 1.483-5.477 0-1.955-.489-3.77-1.466-5.444-.978-1.674-2.304-3-3.978-3.977-1.663-.989-3.483-1.484-5.461-1.484-1.955 0-3.769.489-5.443 1.467-1.674.977-3.006 2.303-3.995 3.977-.977 1.663-1.466 3.483-1.466 5.461z"/></g></svg>