<svg viewBox="0 0 512 512" xmlns="http://www.w3.org/2000/svg"><path d="m464 32c0-28.1-33.7-42.6-54.1-23.2l-44 41.9c-39.5 37.7-88.9 62.7-141.9 72.6v16.3c57.1-10 110.4-36.7 152.9-77.2l44-41.9c10.2-9.7 27-2.5 27 11.6v415.9c0 14.1-16.8 21.3-27 11.6l-44-41.9c-42.5-40.5-95.8-67.2-152.9-77.2v16.3c53 9.9 102.4 34.9 141.9 72.5l44 41.9c20.4 19.4 54.1 5 54.1-23.2v-134.7c28.3-12.3 48-40.5 48-73.3s-19.7-61-48-73.3zm-272 384v-63.3-16-193.3-16c-6.4.4-12.8.7-19.2.7h-12.8-96c-35.3 0-64 28.7-64 64v96c0 35.3 28.7 64 64 64v120c0 22.1 17.9 40 40 40h48c22.1 0 40-17.9 40-40zm272-120.6v-110.8c19.1 11.1 32 31.7 32 55.4s-12.9 44.4-32 55.4zm-288 56.6v120c0 13.3-10.7 24-24 24h-48c-13.3 0-24-10.7-24-24v-120h80 12.8zm-3.2-16h-12.8-96c-26.5 0-48-21.5-48-48v-96c0-26.5 21.5-48 48-48h96 12.8 3.2v192c-1.1 0-2.1 0-3.2 0z"/></svg>