<svg height="500" viewBox="0 0 500 500" width="500" xmlns="http://www.w3.org/2000/svg"><path d="m294 253.84h-13.34l6.37 6.31c2.47 2.44 5.24 2.66 7.27.7s1.83-4.61-.3-7.01z"/><path d="m282.66 242.52a5 5 0 0 1 -1.74-3.74h-15.47l10.12 10h13.43q-3.19-3.1-6.34-6.26z"/><path d="m233.79 248.79h.38v.01h-.38z"/><path d="m355.52 238.9q-.4-.08-.81-.12h-216.55c-.58 0-1.21 0-1.86 0h-.48a13.23 13.23 0 0 0 -1.41 0 12.55 12.55 0 0 0 -3.62 24.15 3 3 0 0 1 2.27 3.43c-.08 9.27-.06 18.55 0 27.82a76 76 0 0 0 26.65 57.82 75.2 75.2 0 0 0 17.29 11.1 74.05 74.05 0 0 0 10.6 4 76.3 76.3 0 0 0 21.4 3.05h28.6 42.46a69.29 69.29 0 0 0 11.33-.84 81.21 81.21 0 0 0 9.77-2.25 76.38 76.38 0 0 0 10.61-4 75.19 75.19 0 0 0 26.91-20.72 77.24 77.24 0 0 0 17.17-49.3c0-9 0-17.92.05-26.87 0-.94.55-2.5 1.21-2.73 4.72-1.64 7.25-5.16 8.85-9.62v-5.05c-1.78-5.09-4.89-8.89-10.44-9.87zm-11.69 70.8a65.83 65.83 0 0 1 -37.8 45 63.75 63.75 0 0 1 -10.86 3.61 62.56 62.56 0 0 1 -14 1.65l-20.14.06q-13.42 0-26.86.06h-5.9q-10.27-.08-20.65-.08a62.25 62.25 0 0 1 -14.06-1.67 63.07 63.07 0 0 1 -10.85-3.61c-22.78-9.94-39.12-32.77-39.52-58.79-.17-10.51 0-21 0-31.75h202.66c-.92 15.32 1.47 30.54-2.02 45.52zm6.55-55.88q-23.73 0-47.44 0h-164.21c-1 0-2 .3-2.82-.07a14.68 14.68 0 0 1 -2.83-2.32 19 19 0 0 1 2.88-2.59c.63-.36 1.65-.07 2.49-.07h212c2 0 5.12-.94 5.21 2.37.08 3.68-3.18 2.67-5.28 2.68z"/><path d="m355.64 251.19c.1 3.63-3.16 2.62-5.26 2.63q-23.73 0-47.44 0h-164.21c-1 0-2 .3-2.82-.07a14.68 14.68 0 0 1 -2.83-2.32 19 19 0 0 1 2.88-2.59c.63-.36 1.65-.07 2.49-.07h212c2.02.05 5.1-.89 5.19 2.42z" fill="#daaa00"/><path d="m233.79 248.8v-.01h.38v.01" fill="#daaa00"/><path d="m351.72 162.8c-6.08 0-10.57-3.12-13.23-8.64-1.86-3.85-3.57-7.78-5.43-11.63-3.4-7.1-9.13-10.72-16.95-10.86-6.86-.13-13.72-.09-20.58 0-16.14.2-30.15 11.67-32.38 27.54-1.12 7.91-.5 16.07-.44 24.1a11.8 11.8 0 0 0 1.58 5.38c1.14 2.07.84 3.68-.67 5.44h-.07c-.66-.44-5.84-3.64-11.49-1a13.33 13.33 0 0 0 -2.58 1.64 17.05 17.05 0 0 0 -4.14 4.68c-2 3.51-1.21 6.07-1.21 6.07h-49.53a35.65 35.65 0 0 0 -21.08 6.48 28.28 28.28 0 0 0 -8.18 7.34 38.72 38.72 0 0 0 -7.67 19.2l5.06 4.81 2.93-4.81a28.55 28.55 0 0 1 27.71-25.23c17.66-.25 35.32-.09 53 0a3.83 3.83 0 0 1 2.46 1q12.31 12.14 24.61 24.31l10.11 10h11q-5.07-5-10.12-10-15.06-14.93-30.11-29.85c-2.54-2.52-2.74-5.41-.64-7.44s4.74-1.74 7.24.72q13.19 13 26.32 26.05c.67.66 1.33 1.33 2 2 2.28 2.22 4.55 2.47 6.26.69s1.37-3.92-.93-6.25c-1.4-1.4-2.81-2.76-4.2-4.17l-20.4-20.88c.24-.47.64-1.2 1.07-2a21.69 21.69 0 0 0 34.72-17.24c.09-12.51 0-25 0-37.55v-3.42c4.72.26 9.34.16 13.85.86 3.17.48 5.26 3 6.62 6 1.75 3.81 3.42 7.66 5.27 11.42 4.1 8.37 10.89 12.79 20.18 13.16 10 .4 17.68 7.73 17.78 17.27s-7.71 17.31-17.82 17.6c-6.94.2-13.89 0-20.83.06-9.21 0-14.93 5.54-15.15 14.77a47.27 47.27 0 0 1 -3.66 17.33c-.1.25-.22.5-.34.77-.29.62-.66 1.36-1.18 2.46-.75-.91-1.38-1.72-2-2.46s-.95-1.13-1.45-1.64c-2.19-2.22-4.31-2.41-6.06-.7a3.59 3.59 0 0 0 -1.14 2.34 5 5 0 0 0 1.74 3.74q3.15 3.17 6.32 6.29 5.5 0 11 0a25.32 25.32 0 0 0 -2.37-2.38c1.41-2.84 2.53-5.31 3.42-7.65 2.21-5.79 3-10.71 3.36-18.2.22-4.87 2.54-7.1 7.48-7.11 6.77 0 13.54.08 20.32 0 14.59-.25 26-11.18 26-25.06a25.38 25.38 0 0 0 -25.38-25.35zm-53.72 17.56a13.89 13.89 0 0 1 -13.92 13.64 13.66 13.66 0 0 1 -13.85-13.6c0-6.93-.44-14 .69-20.75 2.06-12.52 14.8-21.6 27.11-20v32.24c-.03 2.81.06 5.64-.03 8.47z"/><path d="m144.69 189.14a19 19 0 1 0 19 19 19.05 19.05 0 0 0 -19-19zm0 31.62a12.58 12.58 0 1 1 12.58-12.58 12.6 12.6 0 0 1 -12.58 12.58z"/><path d="m157.66 129.83a15.36 15.36 0 1 0 15.34 15.36 15.38 15.38 0 0 0 -15.34-15.36zm0 24.57a9.21 9.21 0 1 1 9.21-9.21 9.23 9.23 0 0 1 -9.21 9.21z" fill="#020202"/><path d="m166.87 145.19a9.22 9.22 0 1 1 -9.21-9.21 9.22 9.22 0 0 1 9.21 9.21z" fill="#daaa00"/><path d="m211.5 148.51a24.16 24.16 0 1 0 24.17 24.16 24.19 24.19 0 0 0 -24.17-24.16zm0 41.9a17.74 17.74 0 1 1 17.74-17.74 17.76 17.76 0 0 1 -17.74 17.74z"/><path d="m193.56 358.31-5.56 8.12-.45.66-16.65 24.33a5.48 5.48 0 0 1 -4.53 2.39h-17.8a5.51 5.51 0 0 1 -5.44-6.33l7-45.28v-.18l.23-1.51 10.87 1.67-1.46 9.47-.06.38-4.71 30.78h8.49l13.51-19.71.35-.51 5.4-7.89a63.07 63.07 0 0 0 10.81 3.61z"/><path d="m344.32 391.89a5.48 5.48 0 0 1 -4.17 1.92h-17.81a5.51 5.51 0 0 1 -4.54-2.39l-16.67-24.42-.54-.79-5.42-7.91a63.75 63.75 0 0 0 10.83-3.57l5.22 7.63.49.72 13.5 19.73h8.5l-4.71-30.68-.13-.83-1.4-9.12 10.87-1.67.17 1.08.12.77 6.93 45.12a5.45 5.45 0 0 1 -1.24 4.41z"/><path d="m225.69 370.16h8.1v.01h-8.1z"/><path d="m234.17 360.11h-5.9 32.73q-13.39-.01-26.83 0z"/></svg>