<svg width="448" height="512" viewBox="0 0 448 512" fill="none" xmlns="http://www.w3.org/2000/svg">
<g clip-path="url(#clip0_405_14)">
<path d="M224 16C285.9 16 336 66.1 336 128V192H112V128C112 66.1 162.1 16 224 16ZM96 128V192H64C28.7 192 0 220.7 0 256V448C0 483.3 28.7 512 64 512H384C419.3 512 448 483.3 448 448V256C448 220.7 419.3 192 384 192H352V128C352 57.3 294.7 0 224 0C153.3 0 96 57.3 96 128ZM64 208H96H112H336H352H384C410.5 208 432 229.5 432 256V448C432 474.5 410.5 496 384 496H64C37.5 496 16 474.5 16 448V256C16 229.5 37.5 208 64 208ZM240 320V384C240 392.8 232.8 400 224 400C215.2 400 208 392.8 208 384V320C208 311.2 215.2 304 224 304C232.8 304 240 311.2 240 320ZM192 320V384C192 401.7 206.3 416 224 416C241.7 416 256 401.7 256 384V320C256 302.3 241.7 288 224 288C206.3 288 192 302.3 192 320Z" fill="white"/>
</g>
<defs>
<clipPath id="clip0_405_14">
<rect width="448" height="512" fill="white"/>
</clipPath>
</defs>
</svg>
