<svg width="576" height="512" viewBox="0 0 576 512" fill="none" xmlns="http://www.w3.org/2000/svg">
<g clip-path="url(#clip0_405_12)">
<path d="M448 16C386.1 16 336 66.1 336 128V192H384C419.3 192 448 220.7 448 256V448C448 483.3 419.3 512 384 512H64C28.7 512 0 483.3 0 448V256C0 220.7 28.7 192 64 192H320V128C320 57.3 377.3 0 448 0C518.7 0 576 57.3 576 128V216C576 220.4 572.4 224 568 224C563.6 224 560 220.4 560 216V128C560 66.1 509.9 16 448 16ZM64 208C37.5 208 16 229.5 16 256V448C16 474.5 37.5 496 64 496H384C410.5 496 432 474.5 432 448V256C432 229.5 410.5 208 384 208H336H320H64ZM256 368C264.8 368 272 360.8 272 352C272 343.2 264.8 336 256 336H192C183.2 336 176 343.2 176 352C176 360.8 183.2 368 192 368H256ZM256 320C273.7 320 288 334.3 288 352C288 369.7 273.7 384 256 384H192C174.3 384 160 369.7 160 352C160 334.3 174.3 320 192 320H256Z" fill="white"/>
</g>
<defs>
<clipPath id="clip0_405_12">
<rect width="576" height="512" fill="white"/>
</clipPath>
</defs>
</svg>
