<svg width="512" height="512" viewBox="0 0 512 512" fill="none" xmlns="http://www.w3.org/2000/svg">
<g clip-path="url(#clip0_405_18)">
<path d="M403.7 477.5L289.5 429.9L251.8 495.8C244.6 508.4 229.8 514.6 215.8 510.9C201.8 507.2 192 494.5 192 480V389.3L19.7 317.5C8.39998 312.8 0.799978 302.2 0.0999785 290C-0.600022 277.8 5.59998 266.3 16.2 260.2L24.1 274.1C18.8 277.1 15.7 282.9 16.1 289C16.5 295.1 20.3 300.4 25.9 302.8L194.8 373.2L479.6 16C477 16.1 474.4 16.8 472 18.1L24 274.1L16.1 260.2L464.1 4.19996C472.4 -0.500041 482.1 -1.30004 490.8 1.89996C493.3 2.79996 495.8 4.09996 498.1 5.59996C499.4 6.49996 500.6 7.39996 501.7 8.39996C502.6 9.19996 503.4 9.99996 504.1 10.9C510.2 17.9 513.1 27.4 511.6 36.8L447.6 452.8C446.1 462.5 440.2 471 431.6 475.8C423 480.6 412.7 481.2 403.6 477.4L403.7 477.5ZM210.1 379.5L295.6 415.1C295.6 415.1 295.6 415.1 295.7 415.1L409.9 462.7C414.4 464.6 419.6 464.3 423.9 461.9C428.2 459.5 431.1 455.2 431.9 450.4L495.9 34.4C496.5 30.7 495.7 27 493.9 23.9L210.1 379.5ZM208 396V480C208 487.3 212.9 493.6 219.9 495.5C226.9 497.4 234.3 494.3 237.9 488L274.6 423.8L208 396Z" fill="white"/>
</g>
<defs>
<clipPath id="clip0_405_18">
<rect width="512" height="512" fill="white"/>
</clipPath>
</defs>
</svg>
