<svg width="512" height="512" viewBox="0 0 512 512" fill="none" xmlns="http://www.w3.org/2000/svg">
<g clip-path="url(#clip0_405_16)">
<path d="M264 8V96C264 100.4 260.4 104 256 104C251.6 104 248 100.4 248 96V8C248 3.6 251.6 0 256 0C260.4 0 264 3.6 264 8ZM264 416V504C264 508.4 260.4 512 256 512C251.6 512 248 508.4 248 504V416C248 411.6 251.6 408 256 408C260.4 408 264 411.6 264 416ZM-8 256C-8 251.6 -4.4 248 0 248H96C100.4 248 104 251.6 104 256C104 260.4 100.4 264 96 264H0C-4.4 264 -8 260.4 -8 256ZM416 248H504C508.4 248 512 251.6 512 256C512 260.4 508.4 264 504 264H416C411.6 264 408 260.4 408 256C408 251.6 411.6 248 416 248ZM435.8 77.8C438.9 80.9 438.9 86 435.8 89.1L373.6 151.3C370.5 154.4 365.4 154.4 362.3 151.3C359.2 148.2 359.2 143.1 362.3 140L424.5 77.8C427.6 74.7 432.7 74.7 435.8 77.8ZM147.3 377.6L85.1 439.8C82 442.9 76.9 442.9 73.8 439.8C70.7 436.7 70.7 431.6 73.8 428.5L136 366.3C139.1 363.2 144.2 363.2 147.3 366.3C150.4 369.4 150.4 374.5 147.3 377.6ZM68.2 72.2C71.3 69.1 76.4 69.1 79.5 72.2L147.3 140C150.4 143.1 150.4 148.2 147.3 151.3C144.2 154.4 139.1 154.4 136 151.3L68.2 83.5C65.1 80.4 65.1 75.3 68.2 72.2ZM373.6 366.3L435.8 428.5C438.9 431.6 438.9 436.7 435.8 439.8C432.7 442.9 427.6 442.9 424.5 439.8L362.3 377.6C359.2 374.5 359.2 369.4 362.3 366.3C365.4 363.2 370.5 363.2 373.6 366.3Z" fill="white"/>
</g>
<defs>
<clipPath id="clip0_405_16">
<rect width="512" height="512" fill="white"/>
</clipPath>
</defs>
</svg>
