<svg height="500" viewBox="0 0 500 500" width="500" xmlns="http://www.w3.org/2000/svg"><path d="m277.54 413.52h-109.72c-17 0-30.88-16.74-30.88-37.32l.11-255.09c1.29-19.9 14.51-34.63 30.77-34.63h109.72c17 0 30.88 16.74 30.88 37.32v62.4a5.61 5.61 0 1 1 -11.21 0v-62.4c0-14.4-8.82-26.11-19.67-26.11h-109.72c-10.11 0-18.7 10.44-19.57 23.79l-.1 254.72c0 14.4 8.82 26.11 19.67 26.11h109.72c10.85 0 19.67-11.71 19.67-26.11v-63.75a5.61 5.61 0 1 1 11.21 0v63.75c0 20.58-13.85 37.32-30.88 37.32z"/><rect height="20.54" rx="1.83" width="78.38" x="183.5" y="92.1"/><rect height="45.47" rx=".75" width="8.39" x="134.16" y="153.02"/><rect height="45.47" rx=".75" width="8.39" x="134.16" y="211.42"/><path d="m365.84 245.6a69.9 69.9 0 0 1 -109.92 57.34 6.36 6.36 0 0 0 -6.11-.66l-18.26 7.72 7.69-18.25a6.33 6.33 0 0 0 -.65-6.11 69.92 69.92 0 1 1 127.25-40z" fill="#daa900"/><path d="m329.67 234.35v22.51h-22.5v22.5h-22.5v-22.5h-22.5v-22.51h22.5v-22.5h22.5v22.5z"/></svg>